<?xml version="1.0" standalone="no"?>
<!DOCTYPE svg PUBLIC "-//W3C//DTD SVG 1.1//EN" "http://www.w3.org/Graphics/SVG/1.1/DTD/svg11.dtd" >
<svg xmlns="http://www.w3.org/2000/svg" xmlns:xlink="http://www.w3.org/1999/xlink" version="1.1">
<metadata>
Created by FontForge 20170731 at Fri Jun  4 23:11:16 2021
 By Aleksey,,,
(c) 2017-2021 Apple Inc. All rights reserved.
</metadata>
<defs>
<font id="NewYork-Regular" horiz-adv-x="0" >
  <font-face 
    font-family="New York"
    font-weight="400"
    font-stretch="normal"
    units-per-em="2048"
    panose-1="0 0 0 0 0 0 0 0 0 0"
    ascent="1638"
    descent="-410"
    x-height="938"
    cap-height="1444"
    bbox="-465 -553 2754 1950"
    underline-thickness="12"
    underline-position="-238"
    unicode-range="U+0020-1F16B"
  />
<missing-glyph horiz-adv-x="2048" 
d="M199 -494h11v2444h-11v-2444zM609 -494h11v2444h-11v-2444zM1019 -494h11v2444h-11v-2444zM1429 -494h11v2444h-11v-2444zM1839 -494h11v2444h-11v-2444z" />
    <glyph glyph-name=".notdef" horiz-adv-x="2048" 
d="M199 -494h11v2444h-11v-2444zM609 -494h11v2444h-11v-2444zM1019 -494h11v2444h-11v-2444zM1429 -494h11v2444h-11v-2444zM1839 -494h11v2444h-11v-2444z" />
    <glyph glyph-name=".null" 
 />
    <glyph glyph-name="nonmarkingreturn" 
 />
    <glyph glyph-name="space" unicode=" " horiz-adv-x="400" 
 />
    <glyph glyph-name="exclam" unicode="!" horiz-adv-x="640" 
d="M320 -14q46 0 78 33t32 79q0 47 -32 79.5t-78 32.5q-45 0 -77.5 -32.5t-32.5 -79.5q0 -46 32.5 -79t77.5 -33zM320 1458q-49 0 -77.5 -38t-28.5 -97q0 -86 17.5 -228.5t38.5 -307.5l49 -383h1l52 383q23 164 38.5 307t15.5 229q0 59 -28 97t-78 38z" />
    <glyph glyph-name="quotedbl" unicode="&#x22;" horiz-adv-x="863" 
d="M256 1474q-43 0 -69 -32t-26 -77q0 -22 1.5 -42.5t8 -54t20.5 -95.5l64 -283h1l65 283q15 62 21 95.5t7.5 54t1.5 42.5q0 45 -25.5 77t-69.5 32zM607 1474q-43 0 -69 -32t-26 -77q0 -22 1.5 -42.5t8 -54t20.5 -95.5l64 -283h1l65 283q15 62 21 95.5t7.5 54t1.5 42.5
q0 45 -25.5 77t-69.5 32z" />
    <glyph glyph-name="numbersign" unicode="#" horiz-adv-x="1172" 
d="M308 0h6l101 1444h-6zM754 0h6l101 1444h-6zM106 979h996l1 6h-996zM70 459h996l1 6h-996z" />
    <glyph glyph-name="dollar" unicode="$" horiz-adv-x="1044" 
d="M498 -189h6v1820h-6v-1820zM501 16q123 0 228.5 48.5t170 137.5t64.5 211q0 137 -85.5 232t-239.5 165l-101 46q-134 61 -214.5 132t-80.5 188q0 109 73.5 179t215.5 70q89 0 158.5 -35t117.5 -104t71 -172h1l-14 236q-25 18 -69.5 36t-110 30t-154.5 12
q-106 0 -205 -36.5t-163 -114.5t-64 -203q0 -136 83 -229.5t237 -161.5l105 -46q150 -66 223 -139t73 -187q0 -137 -89.5 -214.5t-230.5 -77.5q-94 0 -175 35.5t-141.5 113t-95.5 202.5h-1l16 -256q73 -46 171.5 -72t225.5 -26z" />
    <glyph glyph-name="percent" unicode="%" horiz-adv-x="1448" 
d="M345 757q75 0 137.5 39.5t100.5 117t38 191.5q0 112 -38.5 189t-102 117.5t-139.5 40.5q-73 0 -136 -39.5t-101.5 -117t-38.5 -191.5q0 -111 38.5 -188.5t102.5 -118t139 -40.5zM345 760q-41 0 -70.5 38t-44.5 117.5t-15 203.5q0 123 14.5 195.5t42.5 103.5t69 31
q43 0 71.5 -38t43.5 -117t15 -204q0 -123 -14 -195t-42 -103.5t-70 -31.5zM335 0h9l768 1444h-9zM1108 -7q75 0 137.5 39.5t100.5 117t38 191.5q0 112 -38.5 189t-102 117.5t-139.5 40.5q-73 0 -136 -39.5t-101.5 -117t-38.5 -191.5q0 -111 38.5 -188.5t102.5 -118
t139 -40.5zM1108 -4q-41 0 -70.5 38t-44.5 117.5t-15 203.5q0 123 14.5 195.5t42.5 103.5t69 31q43 0 71.5 -38t43.5 -117t15 -204q0 -123 -14 -195t-42 -103.5t-70 -31.5z" />
    <glyph glyph-name="ampersand" unicode="&#x26;" horiz-adv-x="1535" 
d="M490 -14q106 0 193 44t164.5 125t153.5 191l218 315q60 87 99 135.5t74 70t83 26.5v1h-330v-1q59 -5 89 -28.5t23 -72t-58 -128.5l-201 -315q-60 -93 -123.5 -154.5t-129.5 -91.5t-132 -30q-97 0 -179 46t-131.5 129t-49.5 194q0 99 60 192.5t196 148.5v1
q-200 -58 -313.5 -171.5t-113.5 -260.5q0 -99 50.5 -182t142.5 -133.5t215 -50.5zM1223 0h338v1q-35 13 -74 37t-79.5 58.5t-82.5 75.5l-598 602q-105 106 -173 182.5t-101.5 142t-33.5 136.5q0 113 61.5 166.5t146.5 53.5q68 0 115.5 -38.5t72.5 -101t25 -134.5
q0 -99 -49 -197t-153 -154v-1q99 38 180.5 87.5t129.5 113.5t48 146q0 70 -40 134.5t-122 106t-207 41.5q-107 0 -186.5 -44t-124 -117.5t-44.5 -162.5q0 -77 30.5 -145.5t97.5 -148.5t178 -191z" />
    <glyph glyph-name="quotesingle" unicode="'" horiz-adv-x="512" 
d="M256 1474q-43 0 -69 -32t-26 -77q0 -22 1.5 -42.5t8 -54t20.5 -95.5l64 -283h1l65 283q15 62 21 95.5t7.5 54t1.5 42.5q0 45 -25.5 77t-69.5 32z" />
    <glyph glyph-name="parenleft" unicode="(" horiz-adv-x="640" 
d="M268 650q0 190 44 370.5t121 327t177 232.5h-1q-113 -65 -206 -163t-160.5 -220t-104 -261t-36.5 -286t36.5 -286t104 -261t160.5 -220t206 -163h1q-100 87 -177 233t-121 326.5t-44 370.5z" />
    <glyph glyph-name="parenright" unicode=")" horiz-adv-x="640" 
d="M372 650q0 -190 -44 -370.5t-121 -326.5t-177 -233h1q113 65 206 163t160.5 220t104 261t36.5 286t-36.5 286t-104 261t-160.5 220t-206 163h-1q100 -86 177 -232.5t121 -327t44 -370.5z" />
    <glyph glyph-name="asterisk" unicode="*" horiz-adv-x="640" 
d="M320 1167v0l59 196q9 30 2 51.5t-23.5 33t-37.5 11.5t-38.5 -11.5t-24.5 -33t2 -51.5zM306 1163v0l-132 149q-20 23 -42.5 27.5t-41 -4.5t-29.5 -27q-10 -18 -8.5 -38.5t16.5 -37t45 -24.5zM306 1149v0l-192 -46q-29 -7 -44 -24t-17 -37t8 -38q11 -18 30 -27.5t41 -5
t42 27.5zM321 1141v0l-61 -196q-9 -29 -2 -51t24 -33.5t38 -11.5t38 11.5t24 33.5t-2 51zM335 1150v0l132 -150q20 -23 42 -27.5t41 4.5t29 27q11 18 9 38.5t-16.5 37.5t-44.5 24zM334 1163v0l192 46q30 8 45 24.5t17 37t-9 37.5q-10 19 -29 28t-41 4.5t-43 -27.5z" />
    <glyph glyph-name="plus" unicode="+" horiz-adv-x="1048" 
d="M105 540h838v10h-838v-10zM519 126h10v838h-10v-838z" />
    <glyph glyph-name="comma" unicode="," horiz-adv-x="376" 
d="M73 -228q56 8 108 48t85.5 100.5t33.5 128.5q0 65 -31.5 111t-85.5 46q-33 0 -57.5 -18t-37.5 -48t-13 -67q57 -6 93.5 -44.5t36.5 -90.5q0 -66 -41 -108t-91 -56v-2z" />
    <glyph glyph-name="hyphen" unicode="&#x2011;" horiz-adv-x="546" 
d="M496 540v10h-446v-10h446z" />
    <glyph glyph-name="hyphen" unicode="&#x2010;" horiz-adv-x="546" 
d="M496 540v10h-446v-10h446z" />
    <glyph glyph-name="hyphen" unicode="-" horiz-adv-x="546" 
d="M496 540v10h-446v-10h446z" />
    <glyph glyph-name="period" unicode="." horiz-adv-x="376" 
d="M188 -14q31 0 55.5 15t39.5 40t15 55q0 31 -15 56t-39.5 39.5t-55.5 14.5q-30 0 -55 -14.5t-40 -39.5t-15 -56q0 -30 15 -55t40 -40t55 -15z" />
    <glyph glyph-name="slash" unicode="/" horiz-adv-x="640" 
d="M66 -280h11l498 1860h-11z" />
    <glyph glyph-name="zero" unicode="0" horiz-adv-x="1208" 
d="M608 -14q99 0 190 44.5t161.5 135.5t111.5 230t41 327q0 182 -41 319.5t-112.5 230t-164 139t-194.5 46.5q-98 0 -188 -44.5t-161.5 -135.5t-113 -230t-41.5 -327q0 -183 41.5 -320.5t113.5 -229.5t164 -138.5t193 -46.5zM608 -11q-71 0 -127 50t-94.5 147.5t-58.5 241.5
t-20 331q0 183 19 315t56.5 216.5t92 124.5t124.5 40q73 0 129 -50t94 -147.5t57.5 -241t19.5 -331.5q0 -183 -18.5 -315t-55.5 -216.5t-91.5 -124.5t-126.5 -40z" />
    <glyph glyph-name="one" unicode="1" horiz-adv-x="648" 
d="M427 1449h-110q-49 -53 -104.5 -101t-126.5 -95v-1l159 62v-1150q0 -57 -12.5 -88.5t-45 -47.5t-93.5 -27v-1h484v1q-64 12 -98.5 28t-47.5 47t-13 88z" />
    <glyph glyph-name="two" unicode="2" horiz-adv-x="896" 
d="M816 0l8 154h-753v0l201 167q188 156 308 278t178 236t58 244q0 112 -46.5 197.5t-129 133.5t-191.5 48q-177 0 -284 -93t-125 -246v-2q26 97 102.5 159t191.5 62q128 0 209 -92t81 -241q0 -92 -28 -178.5t-92 -182t-170.5 -214.5t-263.5 -276l-18 -18v-136h764z" />
    <glyph glyph-name="three" unicode="3" horiz-adv-x="1030" 
d="M478 -14q77 0 159.5 29t153.5 86t115 141t44 194q0 111 -55.5 202t-152 145t-219.5 54v0q108 13 189.5 57t127 110.5t45.5 147.5q0 89 -46 158.5t-126.5 108.5t-186.5 39q-117 0 -204 -44t-141 -118.5t-72 -164.5v-2q34 93 117.5 151t207.5 58q119 0 193 -64.5t74 -173.5
q0 -111 -96 -199.5t-331 -132.5v-2q227 0 353.5 -102.5t126.5 -263.5q0 -118 -47.5 -202.5t-128.5 -130t-180 -45.5q-81 0 -148 33t-107.5 91t-40.5 132h-2q0 -84 50.5 -150t136 -104t191.5 -38zM190 367q-35 0 -62.5 -25.5t-27.5 -63.5h1q0 -42 26.5 -67.5t61.5 -25.5
q38 0 65.5 25.5t27.5 67.5q0 37 -26.5 63t-65.5 26z" />
    <glyph glyph-name="four" unicode="4" horiz-adv-x="1048" 
d="M649 0h164v376h200l8 142h-208v931h-93l-695 -1016v-57h624v-376zM649 516h-507v0l508 826h-1v-826z" />
    <glyph glyph-name="five" unicode="5" horiz-adv-x="974" 
d="M433 -14q113 0 218 56.5t172.5 159.5t67.5 243q0 131 -54 229t-142.5 152.5t-191.5 54.5q-100 0 -176 -29.5t-126 -75.5t-73 -96v0l124 604h583l8 160h-581l-139 -774h4q31 52 92 85.5t147 33.5q87 0 162 -45t121 -130.5t46 -206.5q0 -126 -44.5 -212t-118.5 -129.5
t-163 -43.5q-88 0 -151.5 34.5t-97.5 89t-34 112.5h-2q0 -62 40 -125t117.5 -105t191.5 -42zM174 351q-35 0 -62.5 -26.5t-27.5 -66.5h1q0 -40 26.5 -64.5t61.5 -24.5q38 0 65.5 25.5t27.5 67.5q0 37 -26.5 63t-65.5 26z" />
    <glyph glyph-name="six" unicode="6" horiz-adv-x="1118" 
d="M93 583q0 -191 65.5 -324.5t176.5 -203t246 -69.5q79 0 160.5 28.5t150.5 86t111.5 145t42.5 205.5q0 122 -50.5 214t-138.5 142.5t-202 50.5q-112 0 -194 -46t-126.5 -128t-44.5 -190h1q0 131 77 208.5t195 77.5q130 0 207.5 -102t77.5 -282q0 -117 -33 -209t-93 -145
t-141 -53q-86 0 -151.5 56t-102 168t-36.5 281h-1v0q0 276 73 481t226.5 327t395.5 148v1q-195 2 -358 -60t-283 -178t-185.5 -276t-65.5 -354z" />
    <glyph glyph-name="seven" unicode="7" horiz-adv-x="928" 
d="M402 0q66 249 140 476t154.5 430t166.5 378v160h-801l-8 -160h807v2q-121 -182 -233.5 -379t-220 -420.5t-213.5 -485.5v-1h208z" />
    <glyph glyph-name="eight" unicode="8" horiz-adv-x="1136" 
d="M1043 367q0 93 -37 164.5t-113 135t-195 131.5l-148 86q-130 76 -187.5 150t-57.5 178q0 107 70 175t194 68q87 0 145.5 -43t88.5 -115t30 -159q0 -106 -46.5 -191.5t-131.5 -129.5l1 -1q98 28 174 75.5t119.5 113.5t43.5 148q0 91 -53 159.5t-148.5 107t-222.5 38.5
q-120 0 -216 -37.5t-152 -113t-56 -190.5q0 -86 35 -152.5t99 -121.5t152 -106l148 -86q114 -66 180.5 -123.5t95 -118.5t28.5 -138q0 -130 -84.5 -206t-227.5 -76q-92 0 -163 47t-111.5 128.5t-41.5 184.5q-1 131 54 224t158 145l-1 1q-104 -29 -188.5 -81t-134 -129.5
t-48.5 -183.5q1 -121 66.5 -195.5t173.5 -109t236 -34.5q118 0 226 42t177 127t69 212z" />
    <glyph glyph-name="nine" unicode="9" horiz-adv-x="1118" 
d="M1025 861q0 192 -65.5 325t-176 202.5t-246.5 69.5q-79 0 -160.5 -28.5t-150.5 -86t-111.5 -145t-42.5 -205.5q0 -122 50.5 -214t138.5 -142.5t202 -50.5q113 0 194.5 46t126 128t44.5 190h-1q0 -131 -76.5 -208.5t-195.5 -77.5q-130 0 -207.5 101.5t-77.5 282.5
q0 117 33 209t93 145t141 53q86 0 151.5 -56t102 -168t36.5 -281h1v0q0 -276 -73 -481t-226.5 -327t-395.5 -148v-1q195 -2 358 60t283 178t185.5 276t65.5 354z" />
    <glyph glyph-name="colon" unicode=":" horiz-adv-x="400" 
d="M200 -12q30 0 54.5 14.5t39 39t14.5 54.5q0 31 -14.5 55.5t-39 38.5t-54.5 14q-29 0 -54 -14t-39.5 -38.5t-14.5 -55.5q0 -30 14.5 -54.5t39.5 -39t54 -14.5zM200 704q30 0 54.5 14.5t39 39t14.5 54.5q0 31 -14.5 55.5t-39 38.5t-54.5 14q-29 0 -54 -14t-39.5 -38.5
t-14.5 -55.5q0 -30 14.5 -54.5t39.5 -39t54 -14.5z" />
    <glyph glyph-name="semicolon" unicode=";" horiz-adv-x="376" 
d="M73 -228q56 8 108 48t85.5 100.5t33.5 128.5q0 65 -31.5 111t-85.5 46q-33 0 -57.5 -18t-37.5 -48t-13 -67q57 -6 93.5 -44.5t36.5 -90.5q0 -66 -41 -108t-91 -56v-2zM188.236 702.28q30.3789 0 54.3887 14.7002q24.0098 14.6992 38.709 39.1992
q14.7002 24.499 14.7002 53.8984q0 30.3789 -14.7002 54.8789q-14.6992 24.5 -38.709 38.709q-24.0098 14.21 -54.3887 14.21q-29.3994 0 -53.8984 -14.21q-24.5 -14.209 -39.1992 -38.709q-14.7002 -24.5 -14.7002 -54.8789q0 -29.3994 14.7002 -53.8984
q14.6992 -24.5 39.1992 -39.1992q24.499 -14.7002 53.8984 -14.7002z" />
    <glyph glyph-name="less" unicode="&#x3c;" horiz-adv-x="1048" 
d="M970 92l-881 477v-4l881 476v10l-891 -482v-4l891 -485v12z" />
    <glyph glyph-name="equal" unicode="=" horiz-adv-x="1048" 
d="M105 729h838v10h-838v-10zM105 351h838v10h-838v-10z" />
    <glyph glyph-name="greater" unicode="&#x3e;" horiz-adv-x="1048" 
d="M78 1039l881 -477v4l-881 -476v-10l891 482v4l-891 485v-12z" />
    <glyph glyph-name="question" unicode="?" horiz-adv-x="640" 
d="M285 -14q46 0 78 32t32 78q0 47 -32 78.5t-78 31.5q-45 0 -77.5 -31.5t-32.5 -78.5q0 -46 32.5 -78t77.5 -32zM234 1459q-76 0 -113.5 -37t-37.5 -87q0 -8 1 -16t3 -15q95 0 178.5 -17t147.5 -52t101 -88t40 -126q3 -70 -34 -125.5t-114 -88.5t-196 -38l59 -345h4
l-16 144l-2 -8q96 23 163.5 84.5t103.5 158t36 222.5q0 133 -44.5 230.5t-118 150.5t-161.5 53z" />
    <glyph glyph-name="at" unicode="@" horiz-adv-x="1893" 
d="M538 342q0 -83 22.5 -155t70 -115.5t122.5 -43.5q67 0 135 42t122 117.5t77 174.5q-5 -26 -11 -52t-11 -52q-19 -88 5 -147.5t86 -90t157 -30.5q55 0 122 25t134 75.5t123 128t90.5 181.5t34.5 236q0 173 -66 308.5t-178 230t-253.5 143.5t-291.5 49q-119 0 -251 -36
t-258 -110.5t-228 -191.5t-162.5 -278.5t-60.5 -370.5q0 -183 64 -333.5t174 -259t251 -167.5t294 -59q105 0 219 23t214 93v6q-98 -70 -213 -93t-220 -23q-152 0 -291.5 58t-249 165.5t-173 257t-63.5 332.5q0 209 60 369.5t161 276.5t226 190t256.5 109.5t250.5 35.5
q150 0 290.5 -48.5t251.5 -142t176 -228t65 -306.5q0 -164 -51 -285t-129.5 -200t-164 -118t-153.5 -39q-18 0 -48.5 15t-48.5 59.5t1 133.5l157 737h-1l-195 -144q-26 74 -71.5 112.5t-121.5 38.5q-102 0 -184 -52.5t-141 -140.5t-90.5 -195t-31.5 -216zM710 306
q0 99 21 206t61 199.5t98.5 150t134.5 57.5q56 0 93 -32.5t59 -91.5l-91 -433q-9 -44 -34 -95.5t-61.5 -98t-81 -76.5t-92.5 -30q-67 0 -87 72.5t-20 171.5z" />
    <glyph glyph-name="A" unicode="A" horiz-adv-x="1244" 
d="M1086 213l-438 1231h-34l-421 -1147q-42 -116 -73 -177t-62 -86t-74 -33v-1h306v1q-66 10 -93 37.5t-20 87.5t43 166l308 908v0l346 -987q25 -70 24 -114.5t-27 -68t-78 -29.5v-1h467v1q-41 8 -70 28.5t-53 64t-51 119.5zM290 532h570l-1 12h-565z" />
    <glyph glyph-name="B" unicode="B" horiz-adv-x="1206" 
d="M1126 403q0 117 -67.5 197.5t-189 123.5t-281.5 47q122 5 231.5 42.5t179 110t69.5 181.5q0 118 -74.5 192.5t-208.5 110.5t-311 36h-428v-1q47 -10 72 -23.5t34.5 -37.5t9.5 -68v-1184q0 -43 -9.5 -67.5t-34.5 -37.5t-72 -24v-1h428q119 0 234.5 22t210 69.5t151 124.5
t56.5 187zM910 395q0 -176 -114 -280t-338 -111l-96 -3v770l187 -3q116 -2 196.5 -52t122.5 -133.5t42 -187.5zM860 1097q0 -163 -82.5 -242t-228.5 -81l-187 -2v671l96 -3q150 -5 238 -51.5t126 -122.5t38 -169z" />
    <glyph glyph-name="C" unicode="&#x216d;" horiz-adv-x="1344" 
d="M88 742q0 -170 51.5 -309t146.5 -239t227.5 -154t295.5 -54q111 0 201 15.5t151.5 37.5t86.5 41l16 336h-1q-22 -106 -64.5 -186.5t-102 -133.5t-132 -80t-155.5 -27q-131 0 -225.5 66t-154.5 176.5t-88.5 248t-28.5 279.5q0 215 59.5 371t168.5 240.5t257 84.5
q96 0 173.5 -31t135.5 -87.5t96.5 -135t57.5 -173.5h1l-16 336q-46 35 -150 64.5t-298 29.5q-144 0 -272 -45.5t-226.5 -136t-154.5 -224t-56 -310.5z" />
    <glyph glyph-name="C" unicode="C" horiz-adv-x="1344" 
d="M88 742q0 -170 51.5 -309t146.5 -239t227.5 -154t295.5 -54q111 0 201 15.5t151.5 37.5t86.5 41l16 336h-1q-22 -106 -64.5 -186.5t-102 -133.5t-132 -80t-155.5 -27q-131 0 -225.5 66t-154.5 176.5t-88.5 248t-28.5 279.5q0 215 59.5 371t168.5 240.5t257 84.5
q96 0 173.5 -31t135.5 -87.5t96.5 -135t57.5 -173.5h1l-16 336q-46 35 -150 64.5t-298 29.5q-144 0 -272 -45.5t-226.5 -136t-154.5 -224t-56 -310.5z" />
    <glyph glyph-name="D" unicode="&#x216e;" horiz-adv-x="1440" 
d="M1360 749q0 229 -114 383.5t-320 233t-484 78.5h-396v-1q47 -10 72 -23.5t34.5 -37.5t9.5 -68v-1184q0 -43 -9.5 -67.5t-34.5 -37.5t-72 -24v-1h396q187 0 353 45t293 137t199.5 233.5t72.5 333.5zM1136 727q0 -223 -81.5 -382.5t-239.5 -247t-389 -94.5l-64 -2v1442
l64 -2q235 -7 393 -96t237.5 -246.5t79.5 -371.5z" />
    <glyph glyph-name="D" unicode="D" horiz-adv-x="1440" 
d="M1360 749q0 229 -114 383.5t-320 233t-484 78.5h-396v-1q47 -10 72 -23.5t34.5 -37.5t9.5 -68v-1184q0 -43 -9.5 -67.5t-34.5 -37.5t-72 -24v-1h396q187 0 353 45t293 137t199.5 233.5t72.5 333.5zM1136 727q0 -223 -81.5 -382.5t-239.5 -247t-389 -94.5l-64 -2v1442
l64 -2q235 -7 393 -96t237.5 -246.5t79.5 -371.5z" />
    <glyph glyph-name="E" unicode="E" horiz-adv-x="1122" 
d="M992 1444h-946v-1q47 -10 72 -23.5t34.5 -37.5t9.5 -68v-1184q0 -43 -9.5 -67.5t-34.5 -37.5t-72 -24v-1h1000l22 354h-1q-21 -96 -52.5 -159.5t-82 -101.5t-130 -56t-196.5 -24l-244 -12v738l276 -11q82 -3 123.5 -24t59.5 -62.5t30 -105.5h1v408h-1q-12 -64 -30 -105.5
t-59.5 -62.5t-123.5 -24l-276 -11v702l164 -8q163 -8 258 -36.5t145.5 -92.5t79.5 -181h1z" />
    <glyph glyph-name="F" unicode="F" horiz-adv-x="998" 
d="M948 1444h-902v-1q47 -10 72 -23.5t34.5 -37.5t9.5 -68v-1184q0 -43 -9.5 -67.5t-34.5 -37.5t-72 -24v-1h440v1q-53 9 -80 24.5t-35.5 44t-8.5 76.5v585l224 -10q81 -4 121.5 -24.5t58 -62t29.5 -106.5h1v408h-1q-12 -65 -29.5 -106.5t-58 -62t-121.5 -24.5l-224 -10v710
l151 -8q153 -8 241.5 -36.5t136 -92.5t74.5 -181h1z" />
    <glyph glyph-name="G" unicode="G" horiz-adv-x="1455" 
d="M88 742q0 -170 52 -309t149.5 -239t233 -154t302.5 -54q141 0 278 44.5t222 118.5v367q0 50 9 77t33 39t68 17v1h-404v-1q45 -5 68.5 -17t32.5 -39t9 -77v-429q-44 -42 -128 -70t-188 -28q-136 0 -233 66t-159 176.5t-91.5 248t-29.5 279.5q0 215 60.5 371t171 240.5
t261.5 84.5q98 0 176.5 -30.5t137.5 -87t98.5 -134t58.5 -171.5h1l-16 332q-47 35 -153 64.5t-303 29.5q-145 0 -275 -45.5t-229 -136t-156 -224t-57 -310.5z" />
    <glyph glyph-name="H" unicode="H" horiz-adv-x="1446" 
d="M362 122v1200q0 41 9.5 63.5t33.5 35t69 22.5v1h-428v-1q47 -10 72 -23.5t34.5 -37.5t9.5 -68v-1184q0 -43 -9.5 -67.5t-34.5 -37.5t-72 -24v-1h428v1q-45 10 -69 22.5t-33.5 35t-9.5 63.5zM1284 130v1184q0 44 9.5 68t34.5 37.5t72 23.5v1h-428v-1q45 -10 69.5 -22.5
t33.5 -35t9 -63.5v-1200q0 -41 -9 -63.5t-33.5 -35t-69.5 -22.5v-1h428v1q-47 11 -72 24t-34.5 37.5t-9.5 67.5zM262 737h922v6h-922v-6z" />
    <glyph glyph-name="I" unicode="&#xa7ae;" horiz-adv-x="540" 
d="M370 130v1184q0 44 9.5 68t34.5 37.5t72 23.5v1h-432v-1q47 -10 72 -23.5t34.5 -37.5t9.5 -68v-1184q0 -43 -9.5 -67.5t-34.5 -37.5t-72 -24v-1h432v1q-47 11 -72 24t-34.5 37.5t-9.5 67.5z" />
    <glyph glyph-name="I" unicode="&#x2160;" horiz-adv-x="540" 
d="M370 130v1184q0 44 9.5 68t34.5 37.5t72 23.5v1h-432v-1q47 -10 72 -23.5t34.5 -37.5t9.5 -68v-1184q0 -43 -9.5 -67.5t-34.5 -37.5t-72 -24v-1h432v1q-47 11 -72 24t-34.5 37.5t-9.5 67.5z" />
    <glyph glyph-name="I" unicode="I" horiz-adv-x="540" 
d="M370 130v1184q0 44 9.5 68t34.5 37.5t72 23.5v1h-432v-1q47 -10 72 -23.5t34.5 -37.5t9.5 -68v-1184q0 -43 -9.5 -67.5t-34.5 -37.5t-72 -24v-1h432v1q-47 11 -72 24t-34.5 37.5t-9.5 67.5z" />
    <glyph glyph-name="J" unicode="J" horiz-adv-x="508" 
d="M354 232v1082q0 44 9.5 68t34.5 37.5t72 23.5v1h-432v-1q47 -10 72 -23.5t34.5 -37.5t9.5 -68v-1052q0 -176 -24.5 -300t-84 -211.5t-164.5 -155.5v-1q111 50 198.5 108t148.5 132t93.5 171.5t32.5 226.5z" />
    <glyph glyph-name="K" unicode="&#x212a;" horiz-adv-x="1252" 
d="M362 122v1200q0 41 9.5 63.5t33.5 35t69 22.5v1h-428v-1q47 -10 72 -23.5t34.5 -37.5t9.5 -68v-1184q0 -43 -9.5 -67.5t-34.5 -37.5t-72 -24v-1h428v1q-45 10 -69 22.5t-33.5 35t-9.5 63.5zM950 0h302v1q-34 12 -67 39t-75 83t-104 153l-399 629v0q56 58 126 133t135 141
q81 82 142 135.5t111.5 84.5t99.5 44v1h-319v-1q60 -7 74 -33.5t-17.5 -79.5t-108.5 -142l-373 -431zM480 752v8l-121 -4v-1z" />
    <glyph glyph-name="K" unicode="K" horiz-adv-x="1252" 
d="M362 122v1200q0 41 9.5 63.5t33.5 35t69 22.5v1h-428v-1q47 -10 72 -23.5t34.5 -37.5t9.5 -68v-1184q0 -43 -9.5 -67.5t-34.5 -37.5t-72 -24v-1h428v1q-45 10 -69 22.5t-33.5 35t-9.5 63.5zM950 0h302v1q-34 12 -67 39t-75 83t-104 153l-399 629v0q56 58 126 133t135 141
q81 82 142 135.5t111.5 84.5t99.5 44v1h-319v-1q60 -7 74 -33.5t-17.5 -79.5t-108.5 -142l-373 -431zM480 752v8l-121 -4v-1z" />
    <glyph glyph-name="L" unicode="&#x216c;" horiz-adv-x="1024" 
d="M974 0l22 354h-1q-22 -97 -54 -161t-85 -102.5t-136.5 -57.5t-208.5 -25l-149 -7v1297q0 49 8.5 77t35.5 43.5t80 24.5v1h-440v-1q47 -10 72 -23.5t34.5 -37.5t9.5 -68v-1184q0 -43 -9.5 -67.5t-34.5 -37.5t-72 -24v-1h928z" />
    <glyph glyph-name="L" unicode="L" horiz-adv-x="1024" 
d="M974 0l22 354h-1q-22 -97 -54 -161t-85 -102.5t-136.5 -57.5t-208.5 -25l-149 -7v1297q0 49 8.5 77t35.5 43.5t80 24.5v1h-440v-1q47 -10 72 -23.5t34.5 -37.5t9.5 -68v-1184q0 -43 -9.5 -67.5t-34.5 -37.5t-72 -24v-1h928z" />
    <glyph glyph-name="M" unicode="&#x216f;" horiz-adv-x="1656" 
d="M374 1444h-276v-1q35 -11 58.5 -31t34 -54.5t7.5 -90.5l-51 -992q-5 -102 -18 -158.5t-43.5 -81.5t-88.5 -34v-1h306v1q-57 9 -85 34t-35.5 81.5t-5.5 158.5l27 1096h-12l535 -1371h43l80 213l422 1119h-5l49 -1203q2 -45 -7 -70.5t-33.5 -37.5t-69.5 -20v-1h423v1
q-47 8 -70.5 20.5t-32 37.5t-10.5 70l-48 1186q-1 42 6.5 66.5t30 38.5t63.5 23v1h-286l-435 -1231v0z" />
    <glyph glyph-name="M" unicode="M" horiz-adv-x="1656" 
d="M374 1444h-276v-1q35 -11 58.5 -31t34 -54.5t7.5 -90.5l-51 -992q-5 -102 -18 -158.5t-43.5 -81.5t-88.5 -34v-1h306v1q-57 9 -85 34t-35.5 81.5t-5.5 158.5l27 1096h-12l535 -1371h43l80 213l422 1119h-5l49 -1203q2 -45 -7 -70.5t-33.5 -37.5t-69.5 -20v-1h423v1
q-47 8 -70.5 20.5t-32 37.5t-10.5 70l-48 1186q-1 42 6.5 66.5t30 38.5t63.5 23v1h-286l-435 -1231v0z" />
    <glyph glyph-name="N" unicode="N" horiz-adv-x="1338" 
d="M358 1444h-306v-1q36 -14 60.5 -34t37 -53t11.5 -89l-13 -971q-1 -111 -11.5 -172t-39.5 -87.5t-87 -35.5v-1h306v1q-57 9 -86.5 35t-39.5 87t-12 173l-15 1086h-17l991 -1382h47l10 1148q1 112 11.5 172.5t40 87.5t86.5 35v1h-306v-1q58 -8 86.5 -34.5t39 -87.5
t12.5 -173l18 -857v0z" />
    <glyph glyph-name="O" unicode="O" horiz-adv-x="1584" 
d="M88 723q0 -171 59.5 -307.5t161 -232t228 -146.5t261.5 -51q158 0 286 57.5t220.5 159.5t142 235.5t49.5 284.5q0 171 -59.5 307t-161 231.5t-228.5 146t-261 50.5q-158 0 -286.5 -57.5t-220.5 -158.5t-141.5 -234t-49.5 -285zM312 733q0 211 48 374t152.5 255.5
t273.5 92.5q111 0 201 -54t153.5 -152.5t97.5 -234.5t34 -301q0 -211 -48 -374.5t-152.5 -256.5t-273.5 -93q-112 0 -201.5 54t-153 153.5t-97.5 235.5t-34 301z" />
    <glyph glyph-name="P" unicode="P" horiz-adv-x="1132" 
d="M1080 1043q0 187 -153.5 294t-452.5 107h-428v-1q47 -10 72 -23.5t34.5 -37.5t9.5 -68v-1184q0 -43 -9.5 -67.5t-34.5 -37.5t-72 -24v-1h440v1q-53 9 -80 24.5t-35.5 44t-8.5 76.5v472h112q119 0 228 25.5t194 77.5t134.5 132t49.5 190zM864 1035q0 -108 -42 -200.5
t-131.5 -150.5t-232.5 -62l-96 -3v824l96 -3q146 -5 235.5 -61.5t130 -146.5t40.5 -197z" />
    <glyph glyph-name="Q" unicode="Q" horiz-adv-x="1584" 
d="M88 723q0 -171 59.5 -307.5t161 -232t228 -146.5t261.5 -51q158 0 286 57.5t220.5 159.5t142 235.5t49.5 284.5q0 171 -59.5 307t-161 231.5t-228.5 146t-261 50.5q-158 0 -286.5 -57.5t-220.5 -158.5t-141.5 -234t-49.5 -285zM312 733q0 211 48 374t152.5 255.5
t273.5 92.5q111 0 201 -54t154 -152.5t97.5 -234.5t33.5 -301q0 -211 -48.5 -374.5t-152.5 -256.5t-273 -93q-112 0 -201.5 54t-153 153.5t-97.5 235.5t-34 301zM1228 -326q69 0 131 25.5t111 64.5v1q-82 -25 -162 -3t-183 100l-188 143q-23 -9 -66 -13.5t-73 -4.5
q-14 0 -31.5 1.5t-35 4l-31.5 4.5l174 -147q75 -64 133 -102.5t110 -56t111 -17.5z" />
    <glyph glyph-name="R" unicode="R" horiz-adv-x="1212" 
d="M1066 1061q0 118 -66.5 204t-197 132.5t-324.5 46.5h-432v-1q47 -8 72 -21t34.5 -37.5t9.5 -70.5v-1184q0 -41 -9.5 -65t-34.5 -37.5t-72 -26.5v-1h428v1q-45 12 -69 25t-33.5 35t-9.5 61v569h217l349 -691h280v1q-28 10 -55.5 32t-64 77.5t-93.5 165.5l-240 469v-23
q91 20 161 67t110 116t40 156zM858 1053q0 -172 -104 -262t-264 -95l-128 -4v751l96 -3q153 -5 240 -60.5t123.5 -142t36.5 -184.5z" />
    <glyph glyph-name="S" unicode="S" horiz-adv-x="1084" 
d="M537 -14q121 0 227.5 50.5t173 143t66.5 218.5q0 145 -89 249.5t-251 171.5l-111 46q-136 56 -215.5 131.5t-79.5 195.5q0 116 74.5 189.5t219.5 73.5q94 0 164.5 -44.5t120.5 -127.5t82 -200h1l-14 300q-39 27 -126 51t-228 24q-111 0 -215 -38t-170.5 -119t-66.5 -211
q0 -145 86.5 -248.5t248.5 -168.5l115 -46q151 -61 223.5 -138t72.5 -193q0 -145 -89 -226t-220 -81q-80 0 -151 25.5t-129 77.5t-101 131.5t-67 188.5h-1l16 -332q62 -37 167.5 -65.5t265.5 -28.5z" />
    <glyph glyph-name="T" unicode="T" horiz-adv-x="1196" 
d="M1146 1444h-1096l-18 -319h1q28 117 73 181.5t125 94t211 38.5l56 4v-1297q0 -48 -8.5 -76.5t-35 -44t-80.5 -24.5v-1h448v1q-53 9 -80 24.5t-35.5 44t-8.5 76.5v1297l56 -4q131 -9 211 -38.5t125.5 -94t72.5 -181.5h1z" />
    <glyph glyph-name="U" unicode="U" horiz-adv-x="1360" 
d="M136 1322v-720q0 -174 46 -292.5t125 -189.5t179.5 -102.5t208.5 -31.5q179 0 293.5 73t170.5 201.5t59 293.5l10 594q2 112 12 172.5t37 87t79 35.5v1h-298v-1q59 -11 89 -37t41 -86t13 -172l10 -594q3 -165 -52.5 -288t-156 -191.5t-232.5 -68.5q-129 0 -226.5 58.5
t-152.5 186t-55 332.5v731q0 44 9.5 68t34.5 37.5t72 23.5v1h-428v-1q45 -10 69.5 -22.5t33.5 -35t9 -63.5z" />
    <glyph glyph-name="V" unicode="&#x2164;" horiz-adv-x="1244" 
d="M158 1231l438 -1231h34l421 1147q43 116 74 177t62 86.5t73 32.5v1h-306v-1q67 -9 93.5 -37t19 -88t-43.5 -166l-307 -908h1l-347 987q-24 70 -23.5 114.5t27 68t77.5 29.5v1h-467v-1q41 -7 70 -28t53 -64.5t51 -119.5z" />
    <glyph glyph-name="V" unicode="V" horiz-adv-x="1244" 
d="M158 1231l438 -1231h34l421 1147q43 116 74 177t62 86.5t73 32.5v1h-306v-1q67 -9 93.5 -37t19 -88t-43.5 -166l-307 -908h1l-347 987q-24 70 -23.5 114.5t27 68t77.5 29.5v1h-467v-1q41 -7 70 -28t53 -64.5t51 -119.5z" />
    <glyph glyph-name="W" unicode="W" horiz-adv-x="2001" 
d="M156 1231l402 -1231h34l429 1330h-33l416 -1330h34l381 1147q39 116 67.5 177t58.5 86.5t72 32.5v1h-306v-1q67 -9 93.5 -37t21 -88t-37.5 -166l-266 -890v0l-284 964q-25 86 -29 130t16.5 62t67.5 25v1h-433v-1q60 -12 88.5 -32.5t27.5 -69.5t-30 -146l-273 -933v0
l-302 969q-22 71 -22 115.5t24.5 67.5t77.5 29v1h-467v-1q34 -5 63 -23t55.5 -61.5t53.5 -127.5z" />
    <glyph glyph-name="X" unicode="&#x2169;" horiz-adv-x="1276" 
d="M212 1247l664 -1086q26 -41 33 -73.5t-10.5 -54t-66.5 -32.5v-1h444v1q-40 13 -71 32.5t-62 58t-72 105.5l-664 1086q-31 52 -40.5 83.5t10.5 49.5t74 27v1h-427v-1q37 -12 64 -32.5t55.5 -59t68.5 -104.5zM294 307q-81 -121 -131.5 -184t-86.5 -88t-76 -34v-1h302v1
q-63 10 -83 36.5t4.5 88.5t93.5 176l260 426v1zM969 1147q79 117 128 177.5t85.5 85.5t75.5 33v1h-302v-1q63 -9 83.5 -35.5t-2.5 -86t-91 -169.5l-252 -409v-1z" />
    <glyph glyph-name="X" unicode="X" horiz-adv-x="1276" 
d="M212 1247l664 -1086q26 -41 33 -73.5t-10.5 -54t-66.5 -32.5v-1h444v1q-40 13 -71 32.5t-62 58t-72 105.5l-664 1086q-31 52 -40.5 83.5t10.5 49.5t74 27v1h-427v-1q37 -12 64 -32.5t55.5 -59t68.5 -104.5zM294 307q-81 -121 -131.5 -184t-86.5 -88t-76 -34v-1h302v1
q-63 10 -83 36.5t4.5 88.5t93.5 176l260 426v1zM969 1147q79 117 128 177.5t85.5 85.5t75.5 33v1h-302v-1q63 -9 83.5 -35.5t-2.5 -86t-91 -169.5l-252 -409v-1z" />
    <glyph glyph-name="Y" unicode="Y" horiz-adv-x="1242" 
d="M211 1220l310 -523v-551q0 -48 -8.5 -76.5t-35 -44t-80.5 -24.5v-1h448v1q-53 9 -80 24.5t-35.5 44t-8.5 76.5v565l263 436q70 116 113 177t76.5 86t72.5 33v1h-302v-1q63 -9 87 -36t6.5 -86.5t-77.5 -168.5l-239 -434v0l-295 506q-67 114 -50 160t87 59v1h-467v-1
q33 -5 60.5 -21t63 -61.5t91.5 -140.5z" />
    <glyph glyph-name="Z" unicode="Z" horiz-adv-x="1173" 
d="M1099 0l22 354h-1q-24 -100 -57.5 -164t-91.5 -101t-154 -54t-245 -23l-294 -11l824 1441v2h-983l-26 -319h1q24 87 58 144.5t96 92t168 51.5t274 23l192 7l-822 -1441v-2h1039z" />
    <glyph glyph-name="bracketleft" unicode="[" horiz-adv-x="640" 
d="M214 -288l340 8v4l-190 12v1828l190 12v4l-340 8v-1876z" />
    <glyph glyph-name="backslash" unicode="\" horiz-adv-x="640" 
d="M564 -280h11l-498 1860h-11z" />
    <glyph glyph-name="bracketright" unicode="]" horiz-adv-x="640" 
d="M426 1588l-340 -8v-4l190 -12v-1828l-190 -12v-4l340 -8v1876z" />
    <glyph glyph-name="asciicircum" unicode="^" horiz-adv-x="1048" 
d="M521 1444l-371 -535l8 -6l366 528v0l366 -528l8 6l-371 535h-6z" />
    <glyph glyph-name="underscore" unicode="_" horiz-adv-x="1024" 
d="M20 -285h984v10h-984v-10z" />
    <glyph glyph-name="grave" unicode="`" horiz-adv-x="1024" 
d="M546 1024h1l-119 340h-194v-2z" />
    <glyph glyph-name="a" unicode="a" horiz-adv-x="930" 
d="M339 -14q70 0 128 18.5t99.5 51.5t59.5 77q8 -46 31.5 -78t60.5 -48.5t84 -16.5q44 0 80.5 9.5t57.5 24.5v1q-17 -5 -34 -5q-47 0 -75.5 31.5t-28.5 97.5v519q0 150 -101 217t-256 67q-101 0 -177.5 -27.5t-119 -73t-42.5 -100.5q0 -39 27 -65.5t63 -26.5q39 0 65.5 27
t26.5 65q0 43 -27.5 68.5t-65.5 25.5q-31 0 -58.5 -26t-29.5 -68v0q0 52 37 93.5t98 65.5t132 24q116 0 184 -65t68 -213v-523q-30 -49 -73 -70t-104 -21q-76 0 -132 52.5t-56 149.5q0 66 24.5 116.5t88 88t179.5 62.5l111 25v2l-214 -46q-135 -29 -217.5 -68.5
t-119.5 -91.5t-37 -119q0 -106 75.5 -166.5t187.5 -60.5z" />
    <glyph glyph-name="b" unicode="b" horiz-adv-x="1092" 
d="M1016 474q0 155 -56.5 261.5t-147.5 161.5t-193 55q-101 0 -184 -51t-123 -137v710l-282 -30v-1l43 -17q39 -16 48 -29t9 -51v-1346h64l117 127q25 -64 87.5 -102.5t157.5 -38.5q127 0 231 60.5t166.5 170.5t62.5 257zM826 446q0 -128 -38 -228.5t-108 -158t-166 -57.5
q-63 0 -120.5 35t-81.5 91v635q37 60 90.5 92.5t133.5 32.5q82 0 147.5 -55.5t104 -155t38.5 -231.5z" />
    <glyph glyph-name="c" unicode="c" horiz-adv-x="910" 
d="M525 -14q118 0 206 45.5t129 118.5l-1 1q-37 -43 -94 -72t-150 -29q-90 0 -170 54.5t-129.5 159.5t-49.5 254q0 115 39 210t115.5 151.5t189.5 56.5q69 0 123 -26t85 -68t31 -91v0q0 42 -28 67.5t-60 25.5q-37 0 -65 -25.5t-28 -67.5q0 -38 26.5 -65t65.5 -27
q36 0 63 26.5t27 65.5q0 50 -34 96t-99.5 75.5t-162.5 29.5q-147 0 -254 -67t-165.5 -176t-58.5 -234q0 -141 57 -251.5t158 -174t234 -63.5z" />
    <glyph glyph-name="d" unicode="d" horiz-adv-x="1098" 
d="M76 464q0 -154 57 -261t147.5 -162t192.5 -55q101 0 184 51t123 137v-180l282 30v1l-43 17q-39 16 -48 29.5t-9 50.5v1352l-282 -30v-1l43 -17q39 -16 48 -29t9 -51v-533q-26 64 -87.5 101.5t-156.5 37.5q-126 0 -230.5 -60.5t-167 -170t-62.5 -257.5zM266 492
q0 129 38 229t108 157.5t166 57.5q62 0 120 -35t82 -91v-635q-37 -61 -90.5 -93t-133.5 -32q-82 0 -147.5 55.5t-104 155t-38.5 231.5z" />
    <glyph glyph-name="e" unicode="e" horiz-adv-x="940" 
d="M76 475q0 -140 57.5 -251t159.5 -174.5t236 -63.5q118 0 206 45.5t129 118.5l-1 1q-37 -43 -94 -72t-150 -29q-107 0 -187.5 66.5t-125 179.5t-44.5 254q0 181 61 290t182 109q70 0 112.5 -47t62 -121t19.5 -155q0 -21 -1.5 -41t-3.5 -37l10 5l-498 -9v-1h666q4 18 4 40
q0 103 -45 186.5t-128 133t-198 49.5q-136 0 -232 -63t-146.5 -171t-50.5 -243z" />
    <glyph glyph-name="f" unicode="f" horiz-adv-x="544" 
d="M318 118v801l226 -15v34l-226 -15v332q0 116 32.5 167t98.5 51q59 0 95 -35.5t36 -86.5v0q0 37 -24 59.5t-53 22.5q-33 0 -57.5 -22.5t-24.5 -59.5q0 -34 23.5 -57.5t57.5 -23.5q33 0 56 23.5t23 57.5q0 56 -42 95.5t-129 39.5q-79 0 -141 -34t-97.5 -99.5t-35.5 -161.5
v-253l-100 -33v-1h100v-798q0 -53 -17 -73.5t-83 -31.5v-1h390v1q-47 9 -70.5 21t-30.5 34.5t-7 61.5z" />
    <glyph glyph-name="g" unicode="g" horiz-adv-x="940" 
d="M83 641q0 -80 35.5 -139t97 -97t139.5 -55q-115 -8 -190 -59.5t-75 -136.5q0 -89 83 -139t211 -44q-111 -5 -186 -35.5t-112.5 -79t-37.5 -109.5q0 -75 57.5 -128t152.5 -81t208 -28q71 0 145 23t137 67t101.5 108.5t38.5 147.5q0 136 -93 203t-275 67h-110
q-96 0 -145 26.5t-49 79.5q0 50 40 80t102 38q25 -5 51.5 -8.5t54.5 -3.5q99 0 185.5 37.5t140.5 106.5t54 164q0 104 -55.5 174t-151.5 102l291 -16v34l-297 -16q-38 12 -79.5 20t-88.5 8q-98 0 -185 -37t-141 -106.5t-54 -167.5zM261 646q0 142 51 222.5t151 80.5
q101 0 152 -89t51 -219q0 -141 -51 -220.5t-151 -79.5t-151.5 87.5t-51.5 217.5zM195 -244q0 85 45.5 144t150.5 70h118q131 0 192 -51.5t61 -149.5q0 -126 -86.5 -191t-209.5 -65q-128 0 -199.5 70t-71.5 173z" />
    <glyph glyph-name="h" unicode="h" horiz-adv-x="1068" 
d="M318 1474l-282 -30v-1l43 -17q39 -16 48 -29t9 -51v-1232q0 -57 -19 -78.5t-81 -34.5v-1h378v1q-65 11 -80.5 31.5t-15.5 73.5v657q35 61 91.5 93t129.5 32q107 0 163 -61.5t56 -192.5v-528q0 -53 -16 -73.5t-80 -31.5v-1h378v1q-66 14 -83 35t-17 78v554
q0 152 -88.5 218t-222.5 66q-105 0 -187.5 -51.5t-123.5 -136.5v710z" />
    <glyph glyph-name="i" unicode="i" horiz-adv-x="450" 
d="M318 948l-282 -30v-1l43 -17q39 -16 48 -29t9 -51v-706q0 -57 -19 -78.5t-81 -34.5v-1h382v1q-61 13 -80.5 34.5t-19.5 78.5v834zM211 1101.29q43.0498 0 72.9746 29.9248q29.9238 29.9248 29.9238 70.874q0 40.9502 -29.9238 70.875q-29.9248 29.9238 -72.9746 29.9238
q-42 0 -72.4492 -29.9238q-30.4492 -29.9248 -30.4492 -70.875q0 -40.9492 30.4492 -70.874t72.4492 -29.9248z" />
    <glyph glyph-name="j" unicode="j" horiz-adv-x="434" 
d="M312 948l-282 -30v-1l43 -17q39 -16 48 -29t9 -51v-698q0 -117 -10 -205t-33.5 -155.5t-63.5 -122.5t-101 -108v-1l58 41q87 62 150 113t103.5 109.5t59.5 140t19 203.5v811zM205 1101.29q43.0498 0 72.9746 29.9248q29.9238 29.9248 29.9238 70.874
q0 40.9502 -29.9238 70.875q-29.9248 29.9238 -72.9746 29.9238q-42 0 -72.4492 -29.9238q-30.4492 -29.9248 -30.4492 -70.875q0 -40.9492 30.4492 -70.874t72.4492 -29.9248z" />
    <glyph glyph-name="k" unicode="k" horiz-adv-x="970" 
d="M318 1474l-282 -30v-1l43 -17q39 -16 48 -29t9 -51v-1232q0 -57 -19 -78.5t-81 -34.5v-1h378v1q-65 11 -80.5 31.5t-15.5 73.5v1368zM315 514l113 -6v18l-113 -11v-1zM726 0h264v1q-28 6 -53 22t-52 50.5t-63 93.5l-290 485v0l143 135q51 48 86.5 75.5t72 44t86.5 30.5v1
h-298v-1q72 -16 77.5 -46.5t-46.5 -91.5l-239 -282z" />
    <glyph glyph-name="l" unicode="l" horiz-adv-x="454" 
d="M318 1474l-282 -30v-1l43 -17q39 -16 48 -29t9 -51v-1232q0 -57 -19 -78.5t-81 -34.5v-1h382v1q-61 13 -80.5 34.5t-19.5 78.5v1360z" />
    <glyph glyph-name="m" unicode="m" horiz-adv-x="1646" 
d="M318 948l-282 -30v-1l43 -17q39 -16 48 -29t9 -51v-706q0 -57 -19 -78.5t-81 -34.5v-1h378v1q-65 11 -80.5 31.5t-15.5 73.5v657v1v184zM626 952q-107 0 -187 -51.5t-121 -136.5v-1q36 61 87 93t127 32q101 0 152.5 -61.5t51.5 -192.5v-528q0 -53 -15.5 -73.5
t-80.5 -31.5v-1h374v1q-65 11 -80.5 31.5t-15.5 73.5v562q0 137 -75.5 210.5t-216.5 73.5zM1225 952q-100 0 -189 -51.5t-131 -139.5v-1q34 62 93 95t134 33q101 0 152.5 -61.5t51.5 -192.5v-528q0 -53 -15.5 -73.5t-80.5 -31.5v-1h378v1q-61 13 -80.5 34.5t-19.5 78.5v554
q0 152 -82.5 218t-210.5 66z" />
    <glyph glyph-name="n" unicode="n" horiz-adv-x="1068" 
d="M318 948l-282 -30v-1l43 -17q39 -16 48 -29t9 -51v-706q0 -57 -19 -78.5t-81 -34.5v-1h378v1q-65 11 -80.5 31.5t-15.5 73.5v657q35 61 91.5 93t129.5 32q107 0 163 -61.5t56 -192.5v-528q0 -53 -16 -73.5t-80 -31.5v-1h378v1q-66 14 -83 35t-17 78v554q0 152 -88.5 218
t-222.5 66q-105 0 -187.5 -51.5t-123.5 -136.5v184z" />
    <glyph glyph-name="o" unicode="o" horiz-adv-x="1106" 
d="M553 -14q130 0 238.5 61.5t173.5 170.5t65 251q0 150 -65 258.5t-173.5 166.5t-238.5 58t-238.5 -61.5t-173.5 -170t-65 -251.5q0 -150 65 -258.5t173.5 -166.5t238.5 -58zM553 -11q-84 0 -145 62.5t-94.5 172t-33.5 249.5q0 141 33.5 248t94.5 167.5t145 60.5
t145.5 -62.5t94.5 -172t33 -249.5t-33 -247.5t-94.5 -168t-145.5 -60.5z" />
    <glyph glyph-name="p" unicode="p" horiz-adv-x="1098" 
d="M1022 474q0 155 -56.5 261.5t-147.5 161.5t-193 55q-101 0 -184 -51t-123 -137v184l-282 -30v-1l43 -17q39 -16 48 -29t9 -51v-1174q0 -53 -17 -73.5t-83 -31.5v-1h390v1q-47 9 -70.5 21t-30.5 34.5t-7 61.5v467q26 -64 88 -101.5t156 -37.5q127 0 231 60.5t166.5 170.5
t62.5 257zM832 446q0 -128 -38 -228.5t-108 -158t-166 -57.5q-63 0 -120.5 35t-81.5 91v635q37 60 90.5 92.5t133.5 32.5q82 0 147.5 -55.5t104 -155t38.5 -231.5z" />
    <glyph glyph-name="q" unicode="q" horiz-adv-x="1092" 
d="M76 464q0 -154 57 -261t147.5 -162t192.5 -55q101 0 184 51t123 137v-516q0 -39 -7 -61.5t-30 -34.5t-71 -21v-1h390v1q-66 11 -83 31.5t-17 73.5v1292h-64l-118 -125q-26 64 -87.5 101.5t-156.5 37.5q-126 0 -230.5 -60.5t-167 -170t-62.5 -257.5zM266 492q0 129 38 229
t108 157.5t166 57.5q62 0 120 -35t82 -91v-635q-37 -61 -90.5 -93t-133.5 -32q-82 0 -147.5 55.5t-104 155t-38.5 231.5z" />
    <glyph glyph-name="r" unicode="r" horiz-adv-x="688" 
d="M318 948l-282 -30v-1l43 -17q39 -16 48 -29t9 -51v-714q0 -53 -17 -73.5t-83 -31.5v-1h390v1q-47 9 -70.5 21t-30.5 34.5t-7 61.5v618q39 36 101 56t128 20q29 0 54.5 -3t37.5 -6q7 8 14 26t7 38q0 34 -22 57.5t-66 23.5q-54 0 -112.5 -53t-141.5 -158v211z" />
    <glyph glyph-name="s" unicode="s" horiz-adv-x="802" 
d="M84 683q0 -97 63.5 -162t187.5 -111l71 -26q92 -34 137 -83.5t45 -128.5q0 -76 -54.5 -129.5t-145.5 -53.5q-61 0 -125 39t-114.5 113.5t-71.5 180.5h-1l13 -270q28 -20 73.5 -35t103.5 -23t122 -8q76 0 154 30.5t131 91.5t53 150q0 108 -62.5 181.5t-181.5 116.5l-71 26
q-92 34 -140.5 76t-48.5 115q0 75 49.5 125.5t146.5 50.5q93 0 162 -73.5t92 -213.5h1l-2 239q-26 19 -92 35t-161 16q-87 0 -163.5 -29.5t-123.5 -89.5t-47 -150z" />
    <glyph glyph-name="t" unicode="t" horiz-adv-x="546" 
d="M136 237q0 -87 28 -142.5t77.5 -82t115.5 -26.5q76 0 128.5 34t68.5 72v1q-17 -25 -45 -38.5t-61 -12.5q-55 0 -92.5 38t-37.5 123v716l223 -15v34l-223 -15v210h-1l-295 -228v-1h114v-667z" />
    <glyph glyph-name="u" unicode="u" horiz-adv-x="1054" 
d="M304 948l-282 -30v-1l43 -17q39 -16 48 -29t9 -51v-550q0 -152 88 -218t221 -66q104 0 186.5 51.5t122.5 136.5v-180l282 30v1l-43 17q-39 16 -48 29.5t-9 50.5v826l-282 -30v-1l43 -17q39 -16 48 -29t9 -51v-645q-35 -60 -90.5 -92.5t-128.5 -32.5q-106 0 -161.5 62
t-55.5 192v644z" />
    <glyph glyph-name="v" unicode="v" horiz-adv-x="891" 
d="M128 784l302 -784h32l279 721q32 82 56 125.5t49.5 63t60.5 27.5v1h-261v-1q52 -11 75.5 -30t21.5 -61t-29 -121l-183 -537v0l-192 550q-25 73 -28 112t20.5 57.5t76.5 29.5v1h-424v-1q36 -7 60 -20.5t43 -44t41 -88.5z" />
    <glyph glyph-name="w" unicode="w" horiz-adv-x="1475" 
d="M133 784l270 -784h32l313 834h-17l299 -834h32l264 721q30 82 54 126t50 63t61 27v1h-261v-1q52 -11 75.5 -30t21.5 -61t-28 -121l-169 -529v1l-184 541q-25 74 -27.5 113t20.5 57t76 29v1h-400v-1q53 -11 76 -29.5t20 -57.5t-27 -112l-179 -542v1l-170 541
q-23 74 -26 113t19.5 57t75.5 29v1h-420v-1q36 -7 62 -20.5t46.5 -43.5t40.5 -89z" />
    <glyph glyph-name="x" unicode="x" horiz-adv-x="886" 
d="M140 808l403 -654q32 -51 37.5 -83.5t-17 -49t-75.5 -20.5v-1h414v1q-41 8 -74.5 36.5t-73.5 92.5l-403 654q-47 77 -35.5 112t90.5 41v1h-414v-1q41 -7 74.5 -36t73.5 -93zM696 780q36 53 63.5 82.5t56 45.5t66.5 29v1h-266v-1q47 -9 69.5 -23t19 -42.5t-34.5 -82.5
l-163 -281l-130 -58l-203 -292q-36 -53 -63.5 -82.5t-55.5 -45.5t-67 -29v-1h266v1q-64 14 -82 42t28 106l179 300l130 58z" />
    <glyph glyph-name="y" unicode="y" horiz-adv-x="890" 
d="M130 784l322 -788q-32 -79 -82 -167.5t-106 -165t-108 -122.5v-1h146l152 456l87 223l198 502q32 82 56.5 125.5t50.5 63t61 27.5v1h-261v-1q52 -11 75 -30t20.5 -61t-29.5 -121l-174 -504v0l-195 517q-41 110 -27 146.5t93 52.5v1h-425v-1q36 -7 59.5 -20.5t43.5 -44
t43 -88.5z" />
    <glyph glyph-name="z" unicode="z" horiz-adv-x="799" 
d="M64 938l-11 -255h1q18 88 53.5 139.5t107.5 75.5t196 31l144 8v0l-515 -936v-1h711l8 298h-1q-18 -113 -51.5 -173t-99 -85t-178.5 -30l-192 -9v0l516 936v1h-689z" />
    <glyph glyph-name="braceleft" unicode="{" horiz-adv-x="640" 
d="M383 983v295q0 100 16 166.5t60 100t127 33.5v2h-34q-157 0 -238 -84t-81 -271v-348q0 -115 -58 -169t-138 -54v-2q80 0 138 -54.5t58 -174.5v-348q0 -187 81 -271t238 -84h34v2q-83 0 -127 33.5t-60 100t-16 166.5v300q0 160 -79 235.5t-249 95.5v0q176 20 252 95
t76 235z" />
    <glyph glyph-name="bar" unicode="|" horiz-adv-x="640" 
d="M315 -280h11v1860h-11v-1860z" />
    <glyph glyph-name="braceright" unicode="}" horiz-adv-x="640" 
d="M257 983q0 -160 76.5 -235t251.5 -95v0q-170 -20 -249 -95.5t-79 -235.5v-300q0 -100 -16 -166.5t-60 -100t-127 -33.5v-2h34q158 0 238.5 84t80.5 271v348q0 120 58 174.5t138 54.5v2q-80 0 -138 54t-58 169v348q0 187 -80.5 271t-238.5 84h-34v-2q83 0 127 -33.5
t60 -100t16 -166.5v-295z" />
    <glyph glyph-name="asciitilde" unicode="&#x223c;" horiz-adv-x="1048" 
d="M807 433q-53 0 -103 28t-98.5 68.5t-97 81.5t-99.5 69t-106 28q-87 0 -143.5 -70t-56.5 -214h9q0 140 55 207.5t134 67.5q54 0 104 -28t98 -68.5t97 -81.5t99.5 -69t105.5 -28q87 0 143.5 70.5t56.5 213.5h-9q0 -139 -54.5 -207t-134.5 -68z" />
    <glyph glyph-name="asciitilde" unicode="~" horiz-adv-x="1048" 
d="M807 433q-53 0 -103 28t-98.5 68.5t-97 81.5t-99.5 69t-106 28q-87 0 -143.5 -70t-56.5 -214h9q0 140 55 207.5t134 67.5q54 0 104 -28t98 -68.5t97 -81.5t99.5 -69t105.5 -28q87 0 143.5 70.5t56.5 213.5h-9q0 -139 -54.5 -207t-134.5 -68z" />
    <glyph glyph-name="exclamdown" unicode="&#xa1;" horiz-adv-x="640" 
d="M320 920q-46 0 -78 -32.5t-32 -79.5t32 -79.5t78 -32.5q45 0 77.5 32.5t32.5 79.5t-32.5 79.5t-77.5 32.5zM320 -552q50 0 78 38t28 97q0 86 -17.5 228.5t-38.5 307.5l-49 383h-1l-52 -383q-22 -164 -38 -307t-16 -229q0 -59 28.5 -97t77.5 -38z" />
    <glyph glyph-name="cent" unicode="&#xa2;" horiz-adv-x="910" 
d="M543 0v1444h-6v-1444h6zM525 239q118 0 206 45.5t129 118.5l-1 1q-37 -43 -94 -72t-150 -29q-90 0 -170 54.5t-129.5 159.5t-49.5 254q0 117 38.5 212.5t113.5 152.5t186 57q69 0 124 -26.5t87.5 -69.5t32.5 -93h1q0 42 -28 67.5t-60 25.5q-37 0 -65 -25.5t-28 -67.5
q0 -38 26.5 -65t65.5 -27q36 0 63 26.5t27 65.5q0 75 -75.5 138t-220.5 63q-147 0 -254 -67t-165.5 -176t-58.5 -234q0 -141 57 -251.5t158 -174t234 -63.5z" />
    <glyph glyph-name="sterling" unicode="&#xa3;" horiz-adv-x="1048" 
d="M937 0v154h-733v0q89 40 164.5 98t121.5 131.5t46 157.5q0 77 -22.5 149t-51.5 143t-51.5 146t-22.5 159q0 160 81 232t205 72q67 0 124.5 -24t93 -65.5t35.5 -95.5v0q0 42 -28 67.5t-60 25.5q-37 0 -65 -25.5t-28 -67.5q0 -38 26.5 -65t65.5 -27q36 0 63 26.5t27 65.5
q0 59 -40 104.5t-109.5 71t-158.5 25.5q-68 0 -142 -20t-137.5 -64.5t-103 -118.5t-39.5 -183q0 -69 18.5 -132.5t46 -123t54.5 -117t45.5 -114.5t18.5 -116t-21.5 -124t-77.5 -125.5t-158 -106.5v-113h813zM121 716v-6h681v6h-681z" />
    <glyph glyph-name="currency" unicode="&#xa4;" horiz-adv-x="1048" 
d="M524 217q96 0 175.5 47.5t126.5 126.5t47 175t-47 175.5t-126.5 126.5t-175.5 47t-175 -47t-126.5 -126.5t-47.5 -175.5t47.5 -175t126.5 -126.5t175 -47.5zM524 226q-93 0 -170.5 46t-123.5 123.5t-46 170.5q0 94 46 171t123.5 123t170.5 46q94 0 171 -46t123 -123
t46 -171q0 -93 -46 -170.5t-123 -123.5t-171 -46zM288 315l-146 -159l7 -6l146 159zM906 156l-146 160l-7 -6l146 -160zM899 982l-146 -160l7 -6l146 160zM295 823l-146 159l-7 -6l146 -159z" />
    <glyph glyph-name="yen" unicode="&#xa5;" horiz-adv-x="1048" 
d="M73 475v-6h890v6h-890zM73 757v-6h890v6h-890zM796 1443q56 -7 83.5 -28.5t17.5 -77t-69 -165.5l-220 -415v0l-251 467q-41 78 -48 122.5t15.5 66.5t69.5 30v1h-448v-1q33 -5 62 -20.5t65 -60.5t89 -142l266 -484v-590q0 -48 -8.5 -76.5t-35 -44t-80.5 -24.5v-1h428v1
q-53 9 -80 24.5t-35.5 44t-8.5 76.5v605l237 420q62 110 100.5 165.5t72 77t79.5 29.5v1h-301v-1z" />
    <glyph glyph-name="brokenbar" unicode="&#xa6;" horiz-adv-x="640" 
d="M315 789h11v791h-11v-791zM315 -280h11v791h-11v-791z" />
    <glyph glyph-name="section" unicode="&#xa7;" horiz-adv-x="944" 
d="M92 602q0 -78 30.5 -136t89.5 -104t143 -89l81 -41q101 -51 152.5 -105.5t51.5 -147.5q0 -98 -54 -160t-156 -62q-66 0 -125.5 33.5t-105 100.5t-69.5 167h-1l13 -230q49 -31 122 -52.5t166 -21.5q86 0 163.5 36.5t126.5 103t49 154.5q0 125 -87.5 206.5t-229.5 146.5v-1
q24 -9 49.5 -13t50.5 -4q73 0 142 30.5t113.5 89t44.5 142.5q0 75 -30 132t-88.5 103.5t-144.5 89.5l-82 41q-112 56 -165 108t-51 136q0 87 56.5 143t161.5 56q94 0 162 -60.5t96 -188.5h1l-2 201q-29 20 -100 35.5t-157 15.5q-96 0 -175.5 -34.5t-126.5 -96t-47 -144.5
q0 -78 38 -136.5t111.5 -106.5t181.5 -95l11 -1q-26 8 -53 14t-56 5q-78 0 -147 -31.5t-111.5 -90t-42.5 -138.5zM720 593q0 -90 -54.5 -146t-139.5 -56q-25 0 -57 8.5t-66 26.5q-91 46 -135 104t-44 122q0 91 54.5 147t139.5 55q26 1 57.5 -8t65.5 -27q91 -46 135 -104
t44 -122z" />
    <glyph glyph-name="dieresis" unicode="&#xa8;" horiz-adv-x="1024" 
d="M336 1111.64q38.54 0 65.3301 26.79t26.79 63.4502t-26.79 63.4502t-65.3301 26.79q-37.5996 0 -64.8604 -26.79q-27.2598 -26.79 -27.2598 -63.4502t27.2598 -63.4502q27.2607 -26.79 64.8604 -26.79zM688 1111.64q38.54 0 65.3301 26.79t26.79 63.4502t-26.79 63.4502
t-65.3301 26.79q-37.5996 0 -64.8604 -26.79q-27.2598 -26.79 -27.2598 -63.4502t27.2598 -63.4502q27.2607 -26.79 64.8604 -26.79z" />
    <glyph glyph-name="copyright" unicode="&#xa9;" horiz-adv-x="1654" 
d="M505 731q0 -112 47 -194t130 -126.5t192 -44.5q77 0 132.5 14.5t74.5 28.5l7 180h-1q-14 -68 -45 -117.5t-74 -76.5t-94 -27q-78 0 -128.5 54t-74.5 138.5t-24 175.5q0 157 60.5 250t162.5 93q59 0 103 -29.5t72.5 -79t40.5 -110.5h1l-7 178q-24 17 -74.5 30t-136.5 13
q-98 0 -181 -39t-133 -117t-50 -194zM827 -16q152 0 286 57.5t236 159.5t159.5 236t57.5 286t-57.5 286t-159.5 236t-236 159.5t-286 57.5t-286 -57.5t-236 -159.5t-159.5 -236t-57.5 -286t57.5 -286t159.5 -236t236 -159.5t286 -57.5zM827 -10q-151 0 -283.5 57.5
t-233.5 158.5t-158.5 233.5t-57.5 283.5t57.5 283.5t158.5 233.5t233.5 158.5t283.5 57.5t283.5 -57.5t233.5 -158.5t158.5 -233.5t57.5 -283.5t-57.5 -283.5t-158.5 -233.5t-234 -158.5t-283 -57.5z" />
    <glyph glyph-name="a.sups" unicode="&#xaa;" horiz-adv-x="545" 
d="M190 907q58 0 99.5 20.5t51.5 55.5q5 -37 35 -55.5t70 -18.5q27 0 50.5 5.5t36.5 13.5v2q-8 -2 -16 -2q-22 0 -35.5 14.5t-13.5 44.5v243q0 74 -54.5 108.5t-146.5 34.5q-90 0 -141.5 -30.5t-51.5 -73.5q0 -23 17.5 -39t40.5 -16q24 0 41 16t17 39q0 25 -17.5 40.5
t-41.5 15.5q-21 0 -38.5 -16t-17.5 -39h1q0 38 41.5 65t96.5 27q61 0 94 -30t33 -100v-246q-22 -42 -75 -42q-34 0 -57.5 24t-23.5 69q0 47 26 78t99 47l46 10v2l-107 -21q-104 -20 -149 -53.5t-45 -83.5t38.5 -79.5t96.5 -29.5z" />
    <glyph glyph-name="guillemetleft" unicode="&#xab;" horiz-adv-x="766" 
d="M54 474l361 -367h1l-214 392v-48l214 392h-1l-361 -368v-1zM344 474l361 -367h1l-214 392v-48l214 392h-1l-361 -368v-1z" />
    <glyph glyph-name="logicalnot" unicode="&#xac;" horiz-adv-x="1048" 
d="M105 540h838v10h-838v-10zM933 126h10v419h-10v-419z" />
    <glyph glyph-name="registered" unicode="&#xae;" horiz-adv-x="1654" 
d="M1077 889q0 84 -72.5 134t-218.5 50h-241v-1q33 -7 44.5 -19.5t11.5 -45.5v-568q0 -31 -11.5 -43.5t-44.5 -21.5v-1h237v1q-32 8 -43 20t-11 41v275h92l160 -337h164v1q-20 8 -40 30.5t-58 98.5l-118 241v-17q65 13 107 55.5t42 106.5zM949 885q0 -82 -47.5 -125.5
t-121.5 -46.5l-52 -2v360l40 -1q101 -4 141 -59t40 -126zM827 -16q152 0 286 57.5t236 159.5t159.5 236t57.5 286t-57.5 286t-159.5 236t-236 159.5t-286 57.5t-286 -57.5t-236 -159.5t-159.5 -236t-57.5 -286t57.5 -286t159.5 -236t236 -159.5t286 -57.5zM827 -10
q-151 0 -283.5 57.5t-233.5 158.5t-158.5 233.5t-57.5 283.5t57.5 283.5t158.5 233.5t233.5 158.5t283.5 57.5t283.5 -57.5t233.5 -158.5t158.5 -233.5t57.5 -283.5t-57.5 -283.5t-158.5 -233.5t-234 -158.5t-283 -57.5z" />
    <glyph glyph-name="macron" unicode="&#xaf;" horiz-adv-x="1024" 
d="M283 1142h458v106h-458v-106z" />
    <glyph glyph-name="degree" unicode="&#xb0;" horiz-adv-x="640" 
d="M320 915q65 0 119 31.5t86 85.5t32 120q0 67 -32 120.5t-86 85t-119 31.5t-119 -31.5t-86 -85t-32 -120.5q0 -66 32 -120t86 -85.5t119 -31.5zM320 923q-63 0 -115 30t-83 81.5t-31 117.5t31 117.5t83 81.5t115 30t115 -30t83 -81.5t31 -117.5q0 -65 -31 -117t-83 -82
t-115 -30z" />
    <glyph glyph-name="plusminus" unicode="&#xb1;" horiz-adv-x="1048" 
d="M105 587h838v10h-838v-10zM519 219h10v745h-10v-745zM105 126h838v10h-838v-10z" />
    <glyph glyph-name="two.sups" unicode="&#xb2;" horiz-adv-x="548" 
d="M477 960v104h-414v-1l72 40q122 86 194.5 146.5t105 113t32.5 112.5q0 75 -52.5 123.5t-139.5 48.5q-90 0 -148 -43.5t-73 -121.5v-2q14 39 54 63t95 24q60 0 93.5 -36.5t33.5 -95.5q0 -50 -22.5 -97.5t-73.5 -105t-139 -139.5l-36 -30l1 -103h417z" />
    <glyph glyph-name="three.sups" unicode="&#xb3;" horiz-adv-x="579" 
d="M253 953q62 0 117.5 23.5t91 69.5t35.5 112q0 83 -54 136t-148 54v-1q81 6 131.5 46.5t50.5 102.5q0 70 -50 111t-136 41q-89 0 -146.5 -45t-74.5 -116v-2q16 37 55.5 60t91.5 23q58 0 91.5 -28.5t33.5 -75.5q0 -53 -45.5 -94.5t-152.5 -58.5v-2q107 0 160 -48t53 -125
q0 -71 -42 -117.5t-114 -46.5q-54 0 -98 30t-44 76h-3q0 -52 55 -88.5t142 -36.5zM114 1133q-24 0 -41 -16t-17 -39h1q0 -24 16.5 -39.5t39.5 -15.5q24 0 41 15.5t17 40.5q0 23 -17 38.5t-40 15.5z" />
    <glyph glyph-name="acute" unicode="&#xb4;" horiz-adv-x="1024" 
d="M478 1024l308 338v2h-186l-123 -340h1z" />
    <glyph glyph-name="mu.grek" unicode="&#x3bc;" horiz-adv-x="1056" 
d="M136 -460h184q-8 76 -14.5 179t-10 215t-3.5 214h-45q11 -73 73 -117t153 -44q99 0 163 53t82 126q4 -82 48 -128.5t116 -46.5q56 0 96.5 22.5t65.5 56.5v1q-24 -22 -63 -22q-42 0 -70.5 42t-28.5 158q0 70 1.5 149.5t3.5 167t5 181t6 191.5h-188l8 -767
q-27 -57 -73.5 -84.5t-115.5 -27.5q-62 0 -114 29.5t-83.5 89.5t-31.5 152q0 149 2.5 300.5t9.5 307.5h-184q1 -67 2.5 -144.5t2.5 -165.5t1.5 -187.5t1 -209t0.5 -230.5v-461z" />
    <glyph glyph-name="mu.grek" unicode="&#xb5;" horiz-adv-x="1056" 
d="M136 -460h184q-8 76 -14.5 179t-10 215t-3.5 214h-45q11 -73 73 -117t153 -44q99 0 163 53t82 126q4 -82 48 -128.5t116 -46.5q56 0 96.5 22.5t65.5 56.5v1q-24 -22 -63 -22q-42 0 -70.5 42t-28.5 158q0 70 1.5 149.5t3.5 167t5 181t6 191.5h-188l8 -767
q-27 -57 -73.5 -84.5t-115.5 -27.5q-62 0 -114 29.5t-83.5 89.5t-31.5 152q0 149 2.5 300.5t9.5 307.5h-184q1 -67 2.5 -144.5t2.5 -165.5t1.5 -187.5t1 -209t0.5 -230.5v-461z" />
    <glyph glyph-name="paragraph" unicode="&#xb6;" horiz-adv-x="1103" 
d="M629 -220h6v1664h-6v-1664zM524 1444q-83 0 -163.5 -24.5t-146.5 -75t-105 -126t-39 -177.5q0 -106 41 -186.5t108.5 -135t147.5 -82t157 -27.5h108v834h-108zM847 1444v-1664h6v1512q0 61 14 92t53 43t113 16v1h-186z" />
    <glyph glyph-name="middledot" unicode="&#x2e31;" horiz-adv-x="400" 
d="M200 435q31 0 55.5 15t39.5 40t15 55q0 32 -15 56.5t-39.5 39t-55.5 14.5q-30 0 -55 -14.5t-40 -39t-15 -56.5q0 -30 15 -55t40 -40t55 -15z" />
    <glyph glyph-name="middledot" unicode="&#x2027;" horiz-adv-x="400" 
d="M200 435q31 0 55.5 15t39.5 40t15 55q0 32 -15 56.5t-39.5 39t-55.5 14.5q-30 0 -55 -14.5t-40 -39t-15 -56.5q0 -30 15 -55t40 -40t55 -15z" />
    <glyph glyph-name="middledot" unicode="&#xb7;" horiz-adv-x="400" 
d="M200 435q31 0 55.5 15t39.5 40t15 55q0 32 -15 56.5t-39.5 39t-55.5 14.5q-30 0 -55 -14.5t-40 -39t-15 -56.5q0 -30 15 -55t40 -40t55 -15z" />
    <glyph glyph-name="cedilla" unicode="&#xb8;" horiz-adv-x="1024" 
d="M495 -413q40 0 76 17t59.5 49t23.5 78q0 41 -20 72.5t-54 49.5t-75 19q-38 1 -68.5 -11.5t-43.5 -30.5v-3l116 173v2h-3l-140 -205v-1q16 12 56 12q36 0 61 -21.5t25 -57.5q0 -38 -27 -61t-67 -23q-29 0 -54 11.5t-40 28.5l-1 -1q20 -45 70 -71t106 -26z" />
    <glyph glyph-name="one.sups" unicode="&#xb9;" horiz-adv-x="488" 
d="M316 1642h-53q-43 -27 -85.5 -54t-85.5 -54v-2l93 30v-520q0 -41 -18.5 -56.5t-69.5 -23.5v-2h306v2q-50 8 -68.5 23.5t-18.5 56.5v600z" />
    <glyph glyph-name="o.sups" unicode="&#xba;" horiz-adv-x="624" 
d="M312 907q72 0 130 29.5t92.5 82t34.5 121.5q0 108 -75 170t-182 62q-72 0 -130 -29.5t-92.5 -82t-34.5 -121.5q0 -108 75.5 -170t181.5 -62zM312 910q-54 0 -84.5 63t-30.5 169q0 104 29.5 165.5t84.5 61.5q54 0 84.5 -63t30.5 -169q0 -103 -29.5 -165t-84.5 -62z" />
    <glyph glyph-name="guillemetright" unicode="&#xbb;" horiz-adv-x="766" 
d="M422 476l-361 367h-1l214 -392v48l-214 -392h1l361 368v1zM712 476l-361 367h-1l214 -392v48l-214 -392h1l361 368v1z" />
    <glyph glyph-name="onequarter" unicode="&#xbc;" horiz-adv-x="1068" 
d="M316 1446h-53q-43 -27 -85.5 -54t-85.5 -54v-2l93 30v-520q0 -41 -18.5 -56.5t-69.5 -23.5v-2h306v2q-50 8 -68.5 23.5t-18.5 56.5v600zM154 0h9l768 1444h-9zM814 0h122v166h102v85h-102v431h-84l-339 -470v-46h301v-166zM814 250h-240v-1l241 376h-1v-375z" />
    <glyph glyph-name="onehalf" unicode="&#xbd;" horiz-adv-x="1130" 
d="M316 1446h-53q-43 -27 -85.5 -54t-85.5 -54v-2l93 30v-520q0 -41 -18.5 -56.5t-69.5 -23.5v-2h306v2q-50 8 -68.5 23.5t-18.5 56.5v600zM154 0h9l768 1444h-9zM1059 0v104h-414v-1l72 40q122 86 194.5 146.5t105 113t32.5 112.5q0 75 -52.5 123.5t-139.5 48.5
q-90 0 -148 -43.5t-73 -121.5v-2q14 39 54 63t95 24q60 0 93.5 -36.5t33.5 -95.5q0 -50 -22.5 -97.5t-73.5 -105t-139 -139.5l-36 -30l1 -103h417z" />
    <glyph glyph-name="threequarters" unicode="&#xbe;" horiz-adv-x="1144" 
d="M253 757q62 0 117.5 23.5t91 69.5t35.5 112q0 83 -54 136t-148 54v-1q81 6 131.5 46.5t50.5 102.5q0 70 -50 111t-136 41q-89 0 -146.5 -45t-74.5 -116v-2q16 37 55.5 60t91.5 23q58 0 91.5 -28.5t33.5 -75.5q0 -53 -45.5 -94.5t-152.5 -58.5v-2q107 0 160 -48t53 -125
q0 -71 -42 -117.5t-114 -46.5q-54 0 -98 30t-44 76h-3q0 -52 55 -88.5t142 -36.5zM114 937q-24 0 -41 -16t-17 -39h1q0 -24 16.5 -39.5t39.5 -15.5q24 0 41 15.5t17 40.5q0 23 -17 38.5t-40 15.5zM229 0h9l768 1444h-9zM890 0h122v166h102v85h-102v431h-84l-339 -470v-46
h301v-166zM890 250h-240v-1l241 376h-1v-375z" />
    <glyph glyph-name="questiondown" unicode="&#xbf;" horiz-adv-x="640" 
d="M355 920q-46 0 -78 -32t-32 -78t32 -78t78 -32q45 0 77.5 32t32.5 78t-32.5 78t-77.5 32zM406 -553q77 0 114 37.5t37 86.5q0 8 -1 16t-3 15q-95 0 -178.5 17t-147.5 52t-101 88t-40 126q-2 70 34.5 125.5t113.5 89t196 37.5l-59 345h-4l16 -144l2 8
q-96 -23 -163.5 -84.5t-103.5 -157.5t-36 -223q0 -133 44.5 -230.5t118 -150.5t161.5 -53z" />
    <glyph glyph-name="Agrave" unicode="&#xc0;" horiz-adv-x="1244" 
d="M1086 213l-438 1231h-34l-421 -1147q-42 -116 -73 -177t-62 -86t-74 -33v-1h306v1q-66 10 -93 37.5t-20 87.5t43 166l308 908v0l346 -987q25 -70 24 -114.5t-27 -68t-78 -29.5v-1h467v1q-41 8 -70 28.5t-53 64t-51 119.5zM290 532h570l-1 12h-565zM677 1513h2l-105 257
h-194v-2z" />
    <glyph glyph-name="Aacute" unicode="&#xc1;" horiz-adv-x="1244" 
d="M1086 213l-438 1231h-34l-421 -1147q-42 -116 -73 -177t-62 -86t-74 -33v-1h306v1q-66 10 -93 37.5t-20 87.5t43 166l308 908v0l346 -987q25 -70 24 -114.5t-27 -68t-78 -29.5v-1h467v1q-41 8 -70 28.5t-53 64t-51 119.5zM290 532h570l-1 12h-565zM600 1512l293 255v2
h-186l-109 -257h2z" />
    <glyph glyph-name="Acircumflex" unicode="&#xc2;" horiz-adv-x="1244" 
d="M1086 213l-438 1231h-34l-421 -1147q-42 -116 -73 -177t-62 -86t-74 -33v-1h306v1q-66 10 -93 37.5t-20 87.5t43 166l308 908v0l346 -987q25 -70 24 -114.5t-27 -68t-78 -29.5v-1h467v1q-41 8 -70 28.5t-53 64t-51 119.5zM290 532h570l-1 12h-565zM422 1513l257 168h-81
l256 -168h2l-189 257h-56l-189 -257v0v0z" />
    <glyph glyph-name="Atilde" unicode="&#xc3;" horiz-adv-x="1244" 
d="M1086 213l-438 1231h-34l-421 -1147q-42 -116 -73 -177t-62 -86t-74 -33v-1h306v1q-66 10 -93 37.5t-20 87.5t43 166l308 908v0l346 -987q25 -70 24 -114.5t-27 -68t-78 -29.5v-1h467v1q-41 8 -70 28.5t-53 64t-51 119.5zM290 532h570l-1 12h-565zM725 1543q60 0 96 45
t29 166h-1q-5 -70 -23.5 -94.5t-46.5 -24.5q-22 0 -40 8t-47 27l-29 19q-38 26 -68 38.5t-61 12.5q-60 0 -96 -44.5t-29 -166.5h1q5 71 23.5 95t46.5 24q22 0 40 -7.5t47 -27.5l29 -19q38 -25 68 -38t61 -13z" />
    <glyph glyph-name="Adieresis" unicode="&#xc4;" horiz-adv-x="1244" 
d="M1086 213l-438 1231h-34l-421 -1147q-42 -116 -73 -177t-62 -86t-74 -33v-1h306v1q-66 10 -93 37.5t-20 87.5t43 166l308 908v0l346 -987q25 -70 24 -114.5t-27 -68t-78 -29.5v-1h467v1q-41 8 -70 28.5t-53 64t-51 119.5zM290 532h570l-1 12h-565zM494 1561q34 0 57 24
t23 57q0 32 -23 56t-57 24q-33 0 -56 -24t-23 -56q0 -33 23 -57t56 -24zM766 1561q33 0 56 24t23 57q0 32 -23 56t-56 24q-34 0 -57 -24t-23 -56q0 -33 23 -57t57 -24z" />
    <glyph glyph-name="Aring" unicode="&#x212b;" horiz-adv-x="1244" 
d="M1086 213l-438 1231h-34l-421 -1147q-42 -116 -73 -177t-62 -86t-74 -33v-1h306v1q-66 10 -93 37.5t-20 87.5t43 166l308 908v0l346 -987q25 -70 24 -114.5t-27 -68t-78 -29.5v-1h467v1q-41 8 -70 28.5t-53 64t-51 119.5zM290 532h570l-1 12h-565zM438 1692
q0 -67 61 -99.5t131 -32.5q71 0 131.5 32.5t60.5 99.5q0 65 -60.5 98.5t-131.5 33.5t-131.5 -33.5t-60.5 -98.5zM555 1692q0 55 20 92.5t55 37.5t55 -38t20 -92q0 -58 -20 -94t-55 -36t-55 36t-20 94z" />
    <glyph glyph-name="Aring" unicode="&#xc5;" horiz-adv-x="1244" 
d="M1086 213l-438 1231h-34l-421 -1147q-42 -116 -73 -177t-62 -86t-74 -33v-1h306v1q-66 10 -93 37.5t-20 87.5t43 166l308 908v0l346 -987q25 -70 24 -114.5t-27 -68t-78 -29.5v-1h467v1q-41 8 -70 28.5t-53 64t-51 119.5zM290 532h570l-1 12h-565zM438 1692
q0 -67 61 -99.5t131 -32.5q71 0 131.5 32.5t60.5 99.5q0 65 -60.5 98.5t-131.5 33.5t-131.5 -33.5t-60.5 -98.5zM555 1692q0 55 20 92.5t55 37.5t55 -38t20 -92q0 -58 -20 -94t-55 -36t-55 36t-20 94z" />
    <glyph glyph-name="AE" unicode="&#xc6;" horiz-adv-x="1839" 
d="M1713 1444h-837l-626 -1147q-64 -118 -107.5 -178t-78.5 -84t-76 -34v-1h318v1q-62 9 -89 34t-13.5 85t72.5 172l601 1149h36v-1319q0 -41 -9 -63.5t-33.5 -35t-69.5 -22.5v-1h962l22 354h-1q-21 -96 -51 -159.5t-78.5 -101.5t-124 -56t-187.5 -24l-240 -12v738l256 -11
q82 -4 123.5 -24.5t59.5 -62t30 -105.5h1v408h-1q-12 -64 -30 -105.5t-59.5 -62t-123.5 -24.5l-256 -11v702l164 -8q156 -8 247 -36t139 -93t77 -181h1zM486 707h520v12h-514z" />
    <glyph glyph-name="Ccedilla" unicode="&#xc7;" horiz-adv-x="1344" 
d="M88 742q0 -170 51.5 -309t146.5 -239t227.5 -154t295.5 -54q111 0 201 15.5t151.5 37.5t86.5 41l16 336h-1q-22 -106 -64.5 -186.5t-102 -133.5t-132 -80t-155.5 -27q-131 0 -225.5 66t-154.5 176.5t-88.5 248t-28.5 279.5q0 215 59.5 371t168.5 240.5t257 84.5
q96 0 173.5 -31t135.5 -87.5t96.5 -135t57.5 -173.5h1l-16 336q-46 35 -150 64.5t-298 29.5q-144 0 -272 -45.5t-226.5 -136t-154.5 -224t-56 -310.5zM807 -413q40 0 76 17t59.5 49t23.5 78q0 62 -43.5 101t-105.5 40q-38 1 -68.5 -11.5t-43.5 -30.5v-3l116 159v2h-3
l-140 -191v-1q16 12 56 12q36 0 61 -21.5t25 -57.5q0 -38 -27 -61t-67 -23q-29 0 -54 11t-40 29l-1 -1q20 -45 70 -71t106 -26z" />
    <glyph glyph-name="Egrave" unicode="&#xc8;" horiz-adv-x="1122" 
d="M992 1444h-946v-1q47 -10 72 -23.5t34.5 -37.5t9.5 -68v-1184q0 -43 -9.5 -67.5t-34.5 -37.5t-72 -24v-1h1000l22 354h-1q-21 -96 -52.5 -159.5t-82 -101.5t-130 -56t-196.5 -24l-244 -12v738l276 -11q82 -3 123.5 -24t59.5 -62.5t30 -105.5h1v408h-1q-12 -64 -30 -105.5
t-59.5 -62.5t-123.5 -24l-276 -11v702l164 -8q163 -8 258 -36.5t145.5 -92.5t79.5 -181h1zM626 1513h2l-105 257h-194v-2z" />
    <glyph glyph-name="Eacute" unicode="&#xc9;" horiz-adv-x="1122" 
d="M992 1444h-946v-1q47 -10 72 -23.5t34.5 -37.5t9.5 -68v-1184q0 -43 -9.5 -67.5t-34.5 -37.5t-72 -24v-1h1000l22 354h-1q-21 -96 -52.5 -159.5t-82 -101.5t-130 -56t-196.5 -24l-244 -12v738l276 -11q82 -3 123.5 -24t59.5 -62.5t30 -105.5h1v408h-1q-12 -64 -30 -105.5
t-59.5 -62.5t-123.5 -24l-276 -11v702l164 -8q163 -8 258 -36.5t145.5 -92.5t79.5 -181h1zM549 1512l293 255v2h-186l-109 -257h2z" />
    <glyph glyph-name="Ecircumflex" unicode="&#xca;" horiz-adv-x="1122" 
d="M992 1444h-946v-1q47 -10 72 -23.5t34.5 -37.5t9.5 -68v-1184q0 -43 -9.5 -67.5t-34.5 -37.5t-72 -24v-1h1000l22 354h-1q-21 -96 -52.5 -159.5t-82 -101.5t-130 -56t-196.5 -24l-244 -12v738l276 -11q82 -3 123.5 -24t59.5 -62.5t30 -105.5h1v408h-1q-12 -64 -30 -105.5
t-59.5 -62.5t-123.5 -24l-276 -11v702l164 -8q163 -8 258 -36.5t145.5 -92.5t79.5 -181h1zM371 1513l257 168h-81l256 -168h2l-189 257h-56l-189 -257v0v0z" />
    <glyph glyph-name="Edieresis" unicode="&#xcb;" horiz-adv-x="1122" 
d="M992 1444h-946v-1q47 -10 72 -23.5t34.5 -37.5t9.5 -68v-1184q0 -43 -9.5 -67.5t-34.5 -37.5t-72 -24v-1h1000l22 354h-1q-21 -96 -52.5 -159.5t-82 -101.5t-130 -56t-196.5 -24l-244 -12v738l276 -11q82 -3 123.5 -24t59.5 -62.5t30 -105.5h1v408h-1q-12 -64 -30 -105.5
t-59.5 -62.5t-123.5 -24l-276 -11v702l164 -8q163 -8 258 -36.5t145.5 -92.5t79.5 -181h1zM443 1561q34 0 57 24t23 57q0 32 -23 56t-57 24q-33 0 -56 -24t-23 -56q0 -33 23 -57t56 -24zM715 1561q33 0 56 24t23 57q0 32 -23 56t-56 24q-34 0 -57 -24t-23 -56q0 -33 23 -57
t57 -24z" />
    <glyph glyph-name="Igrave" unicode="&#xcc;" horiz-adv-x="540" 
d="M370 130v1184q0 44 9.5 68t34.5 37.5t72 23.5v1h-432v-1q47 -10 72 -23.5t34.5 -37.5t9.5 -68v-1184q0 -43 -9.5 -67.5t-34.5 -37.5t-72 -24v-1h432v1q-47 11 -72 24t-34.5 37.5t-9.5 67.5zM317 1513h2l-105 257h-194v-2z" />
    <glyph glyph-name="Iacute" unicode="&#xcd;" horiz-adv-x="540" 
d="M370 130v1184q0 44 9.5 68t34.5 37.5t72 23.5v1h-432v-1q47 -10 72 -23.5t34.5 -37.5t9.5 -68v-1184q0 -43 -9.5 -67.5t-34.5 -37.5t-72 -24v-1h432v1q-47 11 -72 24t-34.5 37.5t-9.5 67.5zM240 1512l293 255v2h-186l-109 -257h2z" />
    <glyph glyph-name="Icircumflex" unicode="&#xce;" horiz-adv-x="540" 
d="M370 130v1184q0 44 9.5 68t34.5 37.5t72 23.5v1h-432v-1q47 -10 72 -23.5t34.5 -37.5t9.5 -68v-1184q0 -43 -9.5 -67.5t-34.5 -37.5t-72 -24v-1h432v1q-47 11 -72 24t-34.5 37.5t-9.5 67.5zM62 1513l257 168h-81l256 -168h2l-189 257h-56l-189 -257v0v0z" />
    <glyph glyph-name="Idieresis" unicode="&#xcf;" horiz-adv-x="540" 
d="M370 130v1184q0 44 9.5 68t34.5 37.5t72 23.5v1h-432v-1q47 -10 72 -23.5t34.5 -37.5t9.5 -68v-1184q0 -43 -9.5 -67.5t-34.5 -37.5t-72 -24v-1h432v1q-47 11 -72 24t-34.5 37.5t-9.5 67.5zM134 1561q34 0 57 24t23 57q0 32 -23 56t-57 24q-33 0 -56 -24t-23 -56
q0 -33 23 -57t56 -24zM406 1561q33 0 56 24t23 57q0 32 -23 56t-56 24q-34 0 -57 -24t-23 -56q0 -33 23 -57t57 -24z" />
    <glyph glyph-name="Dstroke" unicode="&#x110;" horiz-adv-x="1440" 
d="M1360 749q0 229 -114 383.5t-320 233t-484 78.5h-396v-1q47 -10 72 -23.5t34.5 -37.5t9.5 -68v-1184q0 -43 -9.5 -67.5t-34.5 -37.5t-72 -24v-1h396q187 0 353 45t293 137t199.5 233.5t72.5 333.5zM1136 727q0 -223 -81.5 -382.5t-239.5 -247t-389 -94.5l-64 -2v1442
l64 -2q235 -7 393 -96t237.5 -246.5t79.5 -371.5zM46 736h614v8h-614v-8z" />
    <glyph glyph-name="Dstroke" unicode="&#xd0;" horiz-adv-x="1440" 
d="M1360 749q0 229 -114 383.5t-320 233t-484 78.5h-396v-1q47 -10 72 -23.5t34.5 -37.5t9.5 -68v-1184q0 -43 -9.5 -67.5t-34.5 -37.5t-72 -24v-1h396q187 0 353 45t293 137t199.5 233.5t72.5 333.5zM1136 727q0 -223 -81.5 -382.5t-239.5 -247t-389 -94.5l-64 -2v1442
l64 -2q235 -7 393 -96t237.5 -246.5t79.5 -371.5zM46 736h614v8h-614v-8z" />
    <glyph glyph-name="Ntilde" unicode="&#xd1;" horiz-adv-x="1338" 
d="M358 1444h-306v-1q36 -14 60.5 -34t37 -53t11.5 -89l-13 -971q-1 -111 -11.5 -172t-39.5 -87.5t-87 -35.5v-1h306v1q-57 9 -86.5 35t-39.5 87t-12 173l-15 1086h-17l991 -1382h47l10 1148q1 112 11.5 172.5t40 87.5t86.5 35v1h-306v-1q58 -8 86.5 -34.5t39 -87.5
t12.5 -173l18 -857v0zM811 1543q60 0 96 45t29 166h-1q-5 -70 -23.5 -94.5t-46.5 -24.5q-22 0 -40 8t-47 27l-29 19q-38 26 -68 38.5t-61 12.5q-60 0 -96 -44.5t-29 -166.5h1q5 71 23.5 95t46.5 24q22 0 40 -7.5t47 -27.5l29 -19q38 -25 68 -38t61 -13z" />
    <glyph glyph-name="Ograve" unicode="&#xd2;" horiz-adv-x="1584" 
d="M88 723q0 -171 59.5 -307.5t161 -232t228 -146.5t261.5 -51q158 0 286 57.5t220.5 159.5t142 235.5t49.5 284.5q0 171 -59.5 307t-161 231.5t-228.5 146t-261 50.5q-158 0 -286.5 -57.5t-220.5 -158.5t-141.5 -234t-49.5 -285zM312 733q0 211 48 374t152.5 255.5
t273.5 92.5q111 0 201 -54t153.5 -152.5t97.5 -234.5t34 -301q0 -211 -48 -374.5t-152.5 -256.5t-273.5 -93q-112 0 -201.5 54t-153 153.5t-97.5 235.5t-34 301zM837 1513h2l-105 257h-194v-2z" />
    <glyph glyph-name="Oacute" unicode="&#xd3;" horiz-adv-x="1584" 
d="M88 723q0 -171 59.5 -307.5t161 -232t228 -146.5t261.5 -51q158 0 286 57.5t220.5 159.5t142 235.5t49.5 284.5q0 171 -59.5 307t-161 231.5t-228.5 146t-261 50.5q-158 0 -286.5 -57.5t-220.5 -158.5t-141.5 -234t-49.5 -285zM312 733q0 211 48 374t152.5 255.5
t273.5 92.5q111 0 201 -54t153.5 -152.5t97.5 -234.5t34 -301q0 -211 -48 -374.5t-152.5 -256.5t-273.5 -93q-112 0 -201.5 54t-153 153.5t-97.5 235.5t-34 301zM760 1512l293 255v2h-186l-109 -257h2z" />
    <glyph glyph-name="Ocircumflex" unicode="&#xd4;" horiz-adv-x="1584" 
d="M88 723q0 -171 59.5 -307.5t161 -232t228 -146.5t261.5 -51q158 0 286 57.5t220.5 159.5t142 235.5t49.5 284.5q0 171 -59.5 307t-161 231.5t-228.5 146t-261 50.5q-158 0 -286.5 -57.5t-220.5 -158.5t-141.5 -234t-49.5 -285zM312 733q0 211 48 374t152.5 255.5
t273.5 92.5q111 0 201 -54t153.5 -152.5t97.5 -234.5t34 -301q0 -211 -48 -374.5t-152.5 -256.5t-273.5 -93q-112 0 -201.5 54t-153 153.5t-97.5 235.5t-34 301zM582 1513l257 168h-81l256 -168h2l-189 257h-56l-189 -257v0v0z" />
    <glyph glyph-name="Otilde" unicode="&#xd5;" horiz-adv-x="1584" 
d="M88 723q0 -171 59.5 -307.5t161 -232t228 -146.5t261.5 -51q158 0 286 57.5t220.5 159.5t142 235.5t49.5 284.5q0 171 -59.5 307t-161 231.5t-228.5 146t-261 50.5q-158 0 -286.5 -57.5t-220.5 -158.5t-141.5 -234t-49.5 -285zM312 733q0 211 48 374t152.5 255.5
t273.5 92.5q111 0 201 -54t153.5 -152.5t97.5 -234.5t34 -301q0 -211 -48 -374.5t-152.5 -256.5t-273.5 -93q-112 0 -201.5 54t-153 153.5t-97.5 235.5t-34 301zM885 1543q60 0 96 45t29 166h-1q-5 -70 -23.5 -94.5t-46.5 -24.5q-22 0 -40 8t-47 27l-29 19q-38 26 -68 38.5
t-61 12.5q-60 0 -96 -44.5t-29 -166.5h1q5 71 23.5 95t46.5 24q22 0 40 -7.5t47 -27.5l29 -19q38 -25 68 -38t61 -13z" />
    <glyph glyph-name="Odieresis" unicode="&#xd6;" horiz-adv-x="1584" 
d="M88 723q0 -171 59.5 -307.5t161 -232t228 -146.5t261.5 -51q158 0 286 57.5t220.5 159.5t142 235.5t49.5 284.5q0 171 -59.5 307t-161 231.5t-228.5 146t-261 50.5q-158 0 -286.5 -57.5t-220.5 -158.5t-141.5 -234t-49.5 -285zM312 733q0 211 48 374t152.5 255.5
t273.5 92.5q111 0 201 -54t153.5 -152.5t97.5 -234.5t34 -301q0 -211 -48 -374.5t-152.5 -256.5t-273.5 -93q-112 0 -201.5 54t-153 153.5t-97.5 235.5t-34 301zM654 1561q34 0 57 24t23 57q0 32 -23 56t-57 24q-33 0 -56 -24t-23 -56q0 -33 23 -57t56 -24zM926 1561
q33 0 56 24t23 57q0 32 -23 56t-56 24q-34 0 -57 -24t-23 -56q0 -33 23 -57t57 -24z" />
    <glyph glyph-name="multiply" unicode="&#xd7;" horiz-adv-x="1048" 
d="M877 905l-712 -712l7 -7l712 712zM884 192l-712 712l-7 -7l712 -712z" />
    <glyph glyph-name="Ostroke" unicode="&#xd8;" horiz-adv-x="1584" 
d="M88 723q0 -171 59.5 -307.5t161 -232t228 -146.5t261.5 -51q158 0 286 57.5t220.5 159.5t142 235.5t49.5 284.5q0 171 -59.5 307t-161 231.5t-228.5 146t-261 50.5q-158 0 -286.5 -57.5t-220.5 -158.5t-141.5 -234t-49.5 -285zM312 733q0 211 48 374t152.5 255.5
t273.5 92.5q111 0 201 -54t153.5 -152.5t97.5 -234.5t34 -301q0 -211 -48 -374.5t-152.5 -256.5t-273.5 -93q-112 0 -201.5 54t-153 153.5t-97.5 235.5t-34 301zM1387 1428l-1197 -1408l6 -5l1197 1408z" />
    <glyph glyph-name="Ugrave" unicode="&#xd9;" horiz-adv-x="1360" 
d="M136 1322v-720q0 -174 46 -292.5t125 -189.5t179.5 -102.5t208.5 -31.5q179 0 293.5 73t170.5 201.5t59 293.5l10 594q2 112 12 172.5t37 87t79 35.5v1h-298v-1q59 -11 89 -37t41 -86t13 -172l10 -594q3 -165 -52.5 -288t-156 -191.5t-232.5 -68.5q-129 0 -226.5 58.5
t-152.5 186t-55 332.5v731q0 44 9.5 68t34.5 37.5t72 23.5v1h-428v-1q45 -10 69.5 -22.5t33.5 -35t9 -63.5zM805 1513h2l-105 257h-194v-2z" />
    <glyph glyph-name="Uacute" unicode="&#xda;" horiz-adv-x="1360" 
d="M136 1322v-720q0 -174 46 -292.5t125 -189.5t179.5 -102.5t208.5 -31.5q179 0 293.5 73t170.5 201.5t59 293.5l10 594q2 112 12 172.5t37 87t79 35.5v1h-298v-1q59 -11 89 -37t41 -86t13 -172l10 -594q3 -165 -52.5 -288t-156 -191.5t-232.5 -68.5q-129 0 -226.5 58.5
t-152.5 186t-55 332.5v731q0 44 9.5 68t34.5 37.5t72 23.5v1h-428v-1q45 -10 69.5 -22.5t33.5 -35t9 -63.5zM728 1512l293 255v2h-186l-109 -257h2z" />
    <glyph glyph-name="Ucircumflex" unicode="&#xdb;" horiz-adv-x="1360" 
d="M136 1322v-720q0 -174 46 -292.5t125 -189.5t179.5 -102.5t208.5 -31.5q179 0 293.5 73t170.5 201.5t59 293.5l10 594q2 112 12 172.5t37 87t79 35.5v1h-298v-1q59 -11 89 -37t41 -86t13 -172l10 -594q3 -165 -52.5 -288t-156 -191.5t-232.5 -68.5q-129 0 -226.5 58.5
t-152.5 186t-55 332.5v731q0 44 9.5 68t34.5 37.5t72 23.5v1h-428v-1q45 -10 69.5 -22.5t33.5 -35t9 -63.5zM550 1513l257 168h-81l256 -168h2l-189 257h-56l-189 -257v0v0z" />
    <glyph glyph-name="Udieresis" unicode="&#xdc;" horiz-adv-x="1360" 
d="M136 1322v-720q0 -174 46 -292.5t125 -189.5t179.5 -102.5t208.5 -31.5q179 0 293.5 73t170.5 201.5t59 293.5l10 594q2 112 12 172.5t37 87t79 35.5v1h-298v-1q59 -11 89 -37t41 -86t13 -172l10 -594q3 -165 -52.5 -288t-156 -191.5t-232.5 -68.5q-129 0 -226.5 58.5
t-152.5 186t-55 332.5v731q0 44 9.5 68t34.5 37.5t72 23.5v1h-428v-1q45 -10 69.5 -22.5t33.5 -35t9 -63.5zM622 1561q34 0 57 24t23 57q0 32 -23 56t-57 24q-33 0 -56 -24t-23 -56q0 -33 23 -57t56 -24zM894 1561q33 0 56 24t23 57q0 32 -23 56t-56 24q-34 0 -57 -24
t-23 -56q0 -33 23 -57t57 -24z" />
    <glyph glyph-name="Yacute" unicode="&#xdd;" horiz-adv-x="1242" 
d="M211 1220l310 -523v-551q0 -48 -8.5 -76.5t-35 -44t-80.5 -24.5v-1h448v1q-53 9 -80 24.5t-35.5 44t-8.5 76.5v565l263 436q70 116 113 177t76.5 86t72.5 33v1h-302v-1q63 -9 87 -36t6.5 -86.5t-77.5 -168.5l-239 -434v0l-295 506q-67 114 -50 160t87 59v1h-467v-1
q33 -5 60.5 -21t63 -61.5t91.5 -140.5zM670 1512l293 255v2h-186l-109 -257h2z" />
    <glyph glyph-name="Thorn" unicode="&#xde;" horiz-adv-x="1148" 
d="M1090 758q0 126 -73 210.5t-210.5 127t-332.5 42.5h-112v160q0 49 8.5 77t35.5 43.5t80 24.5v1h-440v-1q47 -10 72 -23.5t34.5 -37.5t9.5 -68v-1184q0 -43 -9.5 -67.5t-34.5 -37.5t-72 -24v-1h440v1q-53 9 -80 24.5t-35.5 44t-8.5 76.5v208h112q170 0 310 44.5t223 134.5
t83 225zM874 742q0 -165 -106 -271t-310 -113l-96 -3v782l96 -3q141 -4 233 -58.5t137.5 -142t45.5 -191.5z" />
    <glyph glyph-name="germandbls" unicode="&#xdf;" horiz-adv-x="1172" 
d="M314 0v1068q0 194 75.5 290.5t206.5 96.5q123 0 189 -71.5t66 -181.5q0 -92 -33 -149t-81.5 -95t-97 -71t-81.5 -75.5t-33 -110.5q0 -74 47.5 -125.5t138.5 -100.5l68 -37q112 -61 150.5 -123.5t38.5 -142.5q0 -83 -53.5 -133t-147.5 -50q-69 0 -130 42.5t-104.5 121.5
t-58.5 187h-2v-285q39 -25 118 -47t177 -22q77 0 154 34.5t128 102t51 167.5q0 95 -49 165t-171 134l-68 36q-89 47 -122 85t-33 96q0 60 33 100t81.5 71t97 62.5t81.5 73.5t33 105q0 70 -49 124t-136 85t-202 31q-134 0 -239 -52.5t-165 -153t-60 -246.5v-900
q0 -53 -17 -73.5t-83 -31.5v-1h282z" />
    <glyph glyph-name="agrave" unicode="&#xe0;" horiz-adv-x="930" 
d="M339 -14q70 0 128 18.5t99.5 51.5t59.5 77q8 -46 31.5 -78t60.5 -48.5t84 -16.5q44 0 80.5 9.5t57.5 24.5v1q-17 -5 -34 -5q-47 0 -75.5 31.5t-28.5 97.5v519q0 150 -101 217t-256 67q-101 0 -177.5 -27.5t-119 -73t-42.5 -100.5q0 -39 27 -65.5t63 -26.5q39 0 65.5 27
t26.5 65q0 43 -27.5 68.5t-65.5 25.5q-31 0 -58.5 -26t-29.5 -68v0q0 52 37 93.5t98 65.5t132 24q116 0 184 -65t68 -213v-523q-30 -49 -73 -70t-104 -21q-76 0 -132 52.5t-56 149.5q0 66 24.5 116.5t88 88t179.5 62.5l111 25v2l-214 -46q-135 -29 -217.5 -68.5
t-119.5 -91.5t-37 -119q0 -106 75.5 -166.5t187.5 -60.5zM470 1024h1l-119 340h-194v-2z" />
    <glyph glyph-name="aacute" unicode="&#xe1;" horiz-adv-x="930" 
d="M339 -14q70 0 128 18.5t99.5 51.5t59.5 77q8 -46 31.5 -78t60.5 -48.5t84 -16.5q44 0 80.5 9.5t57.5 24.5v1q-17 -5 -34 -5q-47 0 -75.5 31.5t-28.5 97.5v519q0 150 -101 217t-256 67q-101 0 -177.5 -27.5t-119 -73t-42.5 -100.5q0 -39 27 -65.5t63 -26.5q39 0 65.5 27
t26.5 65q0 43 -27.5 68.5t-65.5 25.5q-31 0 -58.5 -26t-29.5 -68v0q0 52 37 93.5t98 65.5t132 24q116 0 184 -65t68 -213v-523q-30 -49 -73 -70t-104 -21q-76 0 -132 52.5t-56 149.5q0 66 24.5 116.5t88 88t179.5 62.5l111 25v2l-214 -46q-135 -29 -217.5 -68.5
t-119.5 -91.5t-37 -119q0 -106 75.5 -166.5t187.5 -60.5zM402 1024l308 338v2h-186l-123 -340h1z" />
    <glyph glyph-name="acircumflex" unicode="&#xe2;" horiz-adv-x="930" 
d="M339 -14q70 0 128 18.5t99.5 51.5t59.5 77q8 -46 31.5 -78t60.5 -48.5t84 -16.5q44 0 80.5 9.5t57.5 24.5v1q-17 -5 -34 -5q-47 0 -75.5 31.5t-28.5 97.5v519q0 150 -101 217t-256 67q-101 0 -177.5 -27.5t-119 -73t-42.5 -100.5q0 -39 27 -65.5t63 -26.5q39 0 65.5 27
t26.5 65q0 43 -27.5 68.5t-65.5 25.5q-31 0 -58.5 -26t-29.5 -68v0q0 52 37 93.5t98 65.5t132 24q116 0 184 -65t68 -213v-523q-30 -49 -73 -70t-104 -21q-76 0 -132 52.5t-56 149.5q0 66 24.5 116.5t88 88t179.5 62.5l111 25v2l-214 -46q-135 -29 -217.5 -68.5
t-119.5 -91.5t-37 -119q0 -106 75.5 -166.5t187.5 -60.5zM204 1024l274 226h-82l272 -226h1l-208 340h-50l-208 -340h1z" />
    <glyph glyph-name="atilde" unicode="&#xe3;" horiz-adv-x="930" 
d="M339 -14q70 0 128 18.5t99.5 51.5t59.5 77q8 -46 31.5 -78t60.5 -48.5t84 -16.5q44 0 80.5 9.5t57.5 24.5v1q-17 -5 -34 -5q-47 0 -75.5 31.5t-28.5 97.5v519q0 150 -101 217t-256 67q-101 0 -177.5 -27.5t-119 -73t-42.5 -100.5q0 -39 27 -65.5t63 -26.5q39 0 65.5 27
t26.5 65q0 43 -27.5 68.5t-65.5 25.5q-31 0 -58.5 -26t-29.5 -68v0q0 52 37 93.5t98 65.5t132 24q116 0 184 -65t68 -213v-523q-30 -49 -73 -70t-104 -21q-76 0 -132 52.5t-56 149.5q0 66 24.5 116.5t88 88t179.5 62.5l111 25v2l-214 -46q-135 -29 -217.5 -68.5
t-119.5 -91.5t-37 -119q0 -106 75.5 -166.5t187.5 -60.5zM535 1102q62 0 98.5 47t30.5 177h-1q-6 -76 -24.5 -102.5t-47.5 -26.5q-22 0 -41 8.5t-49 29.5l-30 21q-40 28 -71 41.5t-63 13.5q-61 0 -98 -47t-31 -177h1q6 77 25 103t47 26q23 0 41.5 -8.5t48.5 -29.5l30 -21
q40 -28 71.5 -41.5t62.5 -13.5z" />
    <glyph glyph-name="adieresis" unicode="&#xe4;" horiz-adv-x="930" 
d="M339 -14q70 0 128 18.5t99.5 51.5t59.5 77q8 -46 31.5 -78t60.5 -48.5t84 -16.5q44 0 80.5 9.5t57.5 24.5v1q-17 -5 -34 -5q-47 0 -75.5 31.5t-28.5 97.5v519q0 150 -101 217t-256 67q-101 0 -177.5 -27.5t-119 -73t-42.5 -100.5q0 -39 27 -65.5t63 -26.5q39 0 65.5 27
t26.5 65q0 43 -27.5 68.5t-65.5 25.5q-31 0 -58.5 -26t-29.5 -68v0q0 52 37 93.5t98 65.5t132 24q116 0 184 -65t68 -213v-523q-30 -49 -73 -70t-104 -21q-76 0 -132 52.5t-56 149.5q0 66 24.5 116.5t88 88t179.5 62.5l111 25v2l-214 -46q-135 -29 -217.5 -68.5
t-119.5 -91.5t-37 -119q0 -106 75.5 -166.5t187.5 -60.5zM260 1111.64q38.54 0 65.3301 26.79t26.79 63.4502t-26.79 63.4502t-65.3301 26.79q-37.5996 0 -64.8604 -26.79q-27.2598 -26.79 -27.2598 -63.4502t27.2598 -63.4502q27.2607 -26.79 64.8604 -26.79zM612 1111.64
q38.54 0 65.3301 26.79t26.79 63.4502t-26.79 63.4502t-65.3301 26.79q-37.5996 0 -64.8604 -26.79q-27.2598 -26.79 -27.2598 -63.4502t27.2598 -63.4502q27.2607 -26.79 64.8604 -26.79z" />
    <glyph glyph-name="aring" unicode="&#xe5;" horiz-adv-x="930" 
d="M339 -14q70 0 128 18.5t99.5 51.5t59.5 77q8 -46 31.5 -78t60.5 -48.5t84 -16.5q44 0 80.5 9.5t57.5 24.5v1q-17 -5 -34 -5q-47 0 -75.5 31.5t-28.5 97.5v519q0 150 -101 217t-256 67q-101 0 -177.5 -27.5t-119 -73t-42.5 -100.5q0 -39 27 -65.5t63 -26.5q39 0 65.5 27
t26.5 65q0 43 -27.5 68.5t-65.5 25.5q-31 0 -58.5 -26t-29.5 -68v0q0 52 37 93.5t98 65.5t132 24q116 0 184 -65t68 -213v-523q-30 -49 -73 -70t-104 -21q-76 0 -132 52.5t-56 149.5q0 66 24.5 116.5t88 88t179.5 62.5l111 25v2l-214 -46q-135 -29 -217.5 -68.5
t-119.5 -91.5t-37 -119q0 -106 75.5 -166.5t187.5 -60.5zM223 1213q0 -49 31.5 -81.5t80.5 -48.5t101 -16t101 16t80.5 48.5t31.5 82.5q0 72 -67 109.5t-146 37.5t-146 -37.5t-67 -110.5zM353 1213q0 61 22 103t61 42t61 -42t22 -102q0 -65 -22 -104.5t-61 -39.5t-61 39.5
t-22 103.5z" />
    <glyph glyph-name="ae" unicode="&#xe6;" horiz-adv-x="1495" 
d="M339 -14q91 0 160.5 33t109 103t39.5 180v123h-3v-123q0 -95 -30.5 -152t-78 -82.5t-99.5 -25.5q-78 0 -128.5 52.5t-50.5 144.5q0 101 61 172t196 104l159 39v2l-215 -46q-139 -30 -224.5 -75.5t-124 -103.5t-38.5 -128q0 -101 75 -159t192 -58zM1088 -14q118 0 206 50
t129 114v1q-40 -43 -95.5 -72t-149.5 -29q-107 0 -187.5 66.5t-125 179.5t-44.5 254q0 181 65 290t182 109q67 0 107.5 -47t59.5 -121t19 -155q0 -21 -1.5 -41t-3.5 -37l10 5l-494 -9v-1h662q4 18 4 40q0 103 -44 186.5t-125.5 133t-193.5 49.5q-106 0 -186.5 -39.5
t-134.5 -107.5q-26 53 -77.5 85.5t-113 47t-116.5 14.5q-97 0 -172.5 -27.5t-119 -73t-43.5 -100.5q0 -39 27 -65.5t63 -26.5q39 0 65.5 27t26.5 65q0 43 -27.5 68.5t-65.5 25.5q-21 0 -41 -11.5t-33 -32t-14 -48.5v0q0 47 36.5 88t98 67t136.5 26q67 0 128.5 -30t100.5 -99
t39 -185v-195q0 -108 35 -190t96 -137.5t141.5 -83.5t170.5 -28z" />
    <glyph glyph-name="ccedilla" unicode="&#xe7;" horiz-adv-x="910" 
d="M525 -14q118 0 206 45.5t129 118.5l-1 1q-37 -43 -94 -72t-150 -29q-90 0 -170 54.5t-129.5 159.5t-49.5 254q0 115 39 210t115.5 151.5t189.5 56.5q69 0 123 -26t85 -68t31 -91v0q0 42 -28 67.5t-60 25.5q-37 0 -65 -25.5t-28 -67.5q0 -38 26.5 -65t65.5 -27
q36 0 63 26.5t27 65.5q0 50 -34 96t-99.5 75.5t-162.5 29.5q-147 0 -254 -67t-165.5 -176t-58.5 -234q0 -141 57 -251.5t158 -174t234 -63.5zM527 -413q40 0 76 17t59.5 49t23.5 78q0 62 -43.5 101t-105.5 40q-38 1 -68.5 -11.5t-43.5 -30.5v-3l116 159v2h-3l-140 -191v-1
q16 12 56 12q36 0 61 -21.5t25 -57.5q0 -38 -27 -61t-67 -23q-29 0 -54 11t-40 29l-1 -1q20 -45 70 -71t106 -26z" />
    <glyph glyph-name="egrave" unicode="&#xe8;" horiz-adv-x="940" 
d="M76 475q0 -140 57.5 -251t159.5 -174.5t236 -63.5q118 0 206 45.5t129 118.5l-1 1q-37 -43 -94 -72t-150 -29q-107 0 -187.5 66.5t-125 179.5t-44.5 254q0 181 61 290t182 109q70 0 112.5 -47t62 -121t19.5 -155q0 -21 -1.5 -41t-3.5 -37l10 5l-498 -9v-1h666q4 18 4 40
q0 103 -45 186.5t-128 133t-198 49.5q-136 0 -232 -63t-146.5 -171t-50.5 -243zM542 1024h1l-119 340h-194v-2z" />
    <glyph glyph-name="eacute" unicode="&#xe9;" horiz-adv-x="940" 
d="M76 475q0 -140 57.5 -251t159.5 -174.5t236 -63.5q118 0 206 45.5t129 118.5l-1 1q-37 -43 -94 -72t-150 -29q-107 0 -187.5 66.5t-125 179.5t-44.5 254q0 181 61 290t182 109q70 0 112.5 -47t62 -121t19.5 -155q0 -21 -1.5 -41t-3.5 -37l10 5l-498 -9v-1h666q4 18 4 40
q0 103 -45 186.5t-128 133t-198 49.5q-136 0 -232 -63t-146.5 -171t-50.5 -243zM474 1024l308 338v2h-186l-123 -340h1z" />
    <glyph glyph-name="ecircumflex" unicode="&#xea;" horiz-adv-x="940" 
d="M76 475q0 -140 57.5 -251t159.5 -174.5t236 -63.5q118 0 206 45.5t129 118.5l-1 1q-37 -43 -94 -72t-150 -29q-107 0 -187.5 66.5t-125 179.5t-44.5 254q0 181 61 290t182 109q70 0 112.5 -47t62 -121t19.5 -155q0 -21 -1.5 -41t-3.5 -37l10 5l-498 -9v-1h666q4 18 4 40
q0 103 -45 186.5t-128 133t-198 49.5q-136 0 -232 -63t-146.5 -171t-50.5 -243zM276 1024l274 226h-82l272 -226h1l-208 340h-50l-208 -340h1z" />
    <glyph glyph-name="edieresis" unicode="&#xeb;" horiz-adv-x="940" 
d="M76 475q0 -140 57.5 -251t159.5 -174.5t236 -63.5q118 0 206 45.5t129 118.5l-1 1q-37 -43 -94 -72t-150 -29q-107 0 -187.5 66.5t-125 179.5t-44.5 254q0 181 61 290t182 109q70 0 112.5 -47t62 -121t19.5 -155q0 -21 -1.5 -41t-3.5 -37l10 5l-498 -9v-1h666q4 18 4 40
q0 103 -45 186.5t-128 133t-198 49.5q-136 0 -232 -63t-146.5 -171t-50.5 -243zM332 1111.64q38.54 0 65.3301 26.79t26.79 63.4502t-26.79 63.4502t-65.3301 26.79q-37.5996 0 -64.8604 -26.79q-27.2598 -26.79 -27.2598 -63.4502t27.2598 -63.4502
q27.2607 -26.79 64.8604 -26.79zM684 1111.64q38.54 0 65.3301 26.79t26.79 63.4502t-26.79 63.4502t-65.3301 26.79q-37.5996 0 -64.8604 -26.79q-27.2598 -26.79 -27.2598 -63.4502t27.2598 -63.4502q27.2607 -26.79 64.8604 -26.79z" />
    <glyph glyph-name="igrave" unicode="&#xec;" horiz-adv-x="450" 
d="M318 948l-282 -30v-1l43 -17q39 -16 48 -29t9 -51v-706q0 -57 -19 -78.5t-81 -34.5v-1h382v1q-61 13 -80.5 34.5t-19.5 78.5v834zM245 1024h1l-119 340h-194v-2z" />
    <glyph glyph-name="iacute" unicode="&#xed;" horiz-adv-x="450" 
d="M318 948l-282 -30v-1l43 -17q39 -16 48 -29t9 -51v-706q0 -57 -19 -78.5t-81 -34.5v-1h382v1q-61 13 -80.5 34.5t-19.5 78.5v834zM177 1024l308 338v2h-186l-123 -340h1z" />
    <glyph glyph-name="icircumflex" unicode="&#xee;" horiz-adv-x="450" 
d="M318 948l-282 -30v-1l43 -17q39 -16 48 -29t9 -51v-706q0 -57 -19 -78.5t-81 -34.5v-1h382v1q-61 13 -80.5 34.5t-19.5 78.5v834zM2.19434 1024l246.606 226h-73.8018l244.807 -226h0.900391l-187.205 340h-45.002l-187.205 -340h0.900391z" />
    <glyph glyph-name="idieresis" unicode="&#xef;" horiz-adv-x="450" 
d="M318 948l-282 -30v-1l43 -17q39 -16 48 -29t9 -51v-706q0 -57 -19 -78.5t-81 -34.5v-1h382v1q-61 13 -80.5 34.5t-19.5 78.5v834zM35 1111.64q38.54 0 65.3301 26.79t26.79 63.4502t-26.79 63.4502t-65.3301 26.79q-37.5996 0 -64.8604 -26.79
q-27.2598 -26.79 -27.2598 -63.4502t27.2598 -63.4502q27.2607 -26.79 64.8604 -26.79zM387 1111.64q38.54 0 65.3301 26.79t26.79 63.4502t-26.79 63.4502t-65.3301 26.79q-37.5996 0 -64.8604 -26.79q-27.2598 -26.79 -27.2598 -63.4502t27.2598 -63.4502
q27.2607 -26.79 64.8604 -26.79z" />
    <glyph glyph-name="eth" unicode="&#xf0;" horiz-adv-x="1113" 
d="M546 -11q-92 0 -151.5 64.5t-88 174.5t-28.5 247q0 209 75 333.5t204 124.5q111 0 171.5 -60t84.5 -162.5t24 -230.5q0 -158 -27.5 -255t-72 -148.5t-95 -69.5t-96.5 -18zM256 1147l4 -7l541 339l-4 7zM546 -14q80 0 166 36t160 107.5t119.5 177t45.5 244.5
q0 203 -87.5 386t-262 325.5t-435.5 223.5l-1 -2q167 -79 275 -190.5t173 -245.5t102 -281q-27 77 -88 131t-172 54q-132 0 -237 -63.5t-166.5 -174.5t-61.5 -254q0 -125 52.5 -233t157 -174.5t260.5 -66.5z" />
    <glyph glyph-name="ntilde" unicode="&#xf1;" horiz-adv-x="1068" 
d="M318 948l-282 -30v-1l43 -17q39 -16 48 -29t9 -51v-706q0 -57 -19 -78.5t-81 -34.5v-1h378v1q-65 11 -80.5 31.5t-15.5 73.5v657q35 61 91.5 93t129.5 32q107 0 163 -61.5t56 -192.5v-528q0 -53 -16 -73.5t-80 -31.5v-1h378v1q-66 14 -83 35t-17 78v554q0 152 -88.5 218
t-222.5 66q-105 0 -187.5 -51.5t-123.5 -136.5v184zM637 1102q62 0 98.5 47t30.5 177h-1q-6 -76 -24.5 -102.5t-47.5 -26.5q-22 0 -41 8.5t-49 29.5l-30 21q-40 28 -71 41.5t-63 13.5q-61 0 -98 -47t-31 -177h1q6 77 25 103t47 26q23 0 41.5 -8.5t48.5 -29.5l30 -21
q40 -28 71.5 -41.5t62.5 -13.5z" />
    <glyph glyph-name="ograve" unicode="&#xf2;" horiz-adv-x="1106" 
d="M553 -14q130 0 238.5 61.5t173.5 170.5t65 251q0 150 -65 258.5t-173.5 166.5t-238.5 58t-238.5 -61.5t-173.5 -170t-65 -251.5q0 -150 65 -258.5t173.5 -166.5t238.5 -58zM553 -11q-84 0 -145 62.5t-94.5 172t-33.5 249.5q0 141 33.5 248t94.5 167.5t145 60.5
t145.5 -62.5t94.5 -172t33 -249.5t-33 -247.5t-94.5 -168t-145.5 -60.5zM588 1024h1l-119 340h-194v-2z" />
    <glyph glyph-name="oacute" unicode="&#xf3;" horiz-adv-x="1106" 
d="M553 -14q130 0 238.5 61.5t173.5 170.5t65 251q0 150 -65 258.5t-173.5 166.5t-238.5 58t-238.5 -61.5t-173.5 -170t-65 -251.5q0 -150 65 -258.5t173.5 -166.5t238.5 -58zM553 -11q-84 0 -145 62.5t-94.5 172t-33.5 249.5q0 141 33.5 248t94.5 167.5t145 60.5
t145.5 -62.5t94.5 -172t33 -249.5t-33 -247.5t-94.5 -168t-145.5 -60.5zM520 1024l308 338v2h-186l-123 -340h1z" />
    <glyph glyph-name="ocircumflex" unicode="&#xf4;" horiz-adv-x="1106" 
d="M553 -14q130 0 238.5 61.5t173.5 170.5t65 251q0 150 -65 258.5t-173.5 166.5t-238.5 58t-238.5 -61.5t-173.5 -170t-65 -251.5q0 -150 65 -258.5t173.5 -166.5t238.5 -58zM553 -11q-84 0 -145 62.5t-94.5 172t-33.5 249.5q0 141 33.5 248t94.5 167.5t145 60.5
t145.5 -62.5t94.5 -172t33 -249.5t-33 -247.5t-94.5 -168t-145.5 -60.5zM322 1024l274 226h-82l272 -226h1l-208 340h-50l-208 -340h1z" />
    <glyph glyph-name="otilde" unicode="&#xf5;" horiz-adv-x="1106" 
d="M553 -14q130 0 238.5 61.5t173.5 170.5t65 251q0 150 -65 258.5t-173.5 166.5t-238.5 58t-238.5 -61.5t-173.5 -170t-65 -251.5q0 -150 65 -258.5t173.5 -166.5t238.5 -58zM553 -11q-84 0 -145 62.5t-94.5 172t-33.5 249.5q0 141 33.5 248t94.5 167.5t145 60.5
t145.5 -62.5t94.5 -172t33 -249.5t-33 -247.5t-94.5 -168t-145.5 -60.5zM653 1102q62 0 98.5 47t30.5 177h-1q-6 -76 -24.5 -102.5t-47.5 -26.5q-22 0 -41 8.5t-49 29.5l-30 21q-40 28 -71 41.5t-63 13.5q-61 0 -98 -47t-31 -177h1q6 77 25 103t47 26q23 0 41.5 -8.5
t48.5 -29.5l30 -21q40 -28 71.5 -41.5t62.5 -13.5z" />
    <glyph glyph-name="odieresis" unicode="&#xf6;" horiz-adv-x="1106" 
d="M553 -14q130 0 238.5 61.5t173.5 170.5t65 251q0 150 -65 258.5t-173.5 166.5t-238.5 58t-238.5 -61.5t-173.5 -170t-65 -251.5q0 -150 65 -258.5t173.5 -166.5t238.5 -58zM553 -11q-84 0 -145 62.5t-94.5 172t-33.5 249.5q0 141 33.5 248t94.5 167.5t145 60.5
t145.5 -62.5t94.5 -172t33 -249.5t-33 -247.5t-94.5 -168t-145.5 -60.5zM378 1111.64q38.54 0 65.3301 26.79t26.79 63.4502t-26.79 63.4502t-65.3301 26.79q-37.5996 0 -64.8604 -26.79q-27.2598 -26.79 -27.2598 -63.4502t27.2598 -63.4502q27.2607 -26.79 64.8604 -26.79
zM730 1111.64q38.54 0 65.3301 26.79t26.79 63.4502t-26.79 63.4502t-65.3301 26.79q-37.5996 0 -64.8604 -26.79q-27.2598 -26.79 -27.2598 -63.4502t27.2598 -63.4502q27.2607 -26.79 64.8604 -26.79z" />
    <glyph glyph-name="divide" unicode="&#xf7;" horiz-adv-x="1048" 
d="M105 540h838v10h-838v-10zM525 105q43 0 73 30.5t30 73.5q0 44 -30 73.5t-73 29.5t-73.5 -29.5t-30.5 -73.5q0 -43 30.5 -73.5t73.5 -30.5zM525 777q43 0 73 30t30 73q0 45 -30 74.5t-73 29.5t-73.5 -29.5t-30.5 -74.5q0 -43 30.5 -73t73.5 -30z" />
    <glyph glyph-name="ostroke" unicode="&#xf8;" horiz-adv-x="1101" 
d="M550 -14q129 0 237 61t172.5 170t64.5 251q0 150 -64.5 258t-172.5 166t-237 58t-237 -61t-172.5 -169.5t-64.5 -251.5q0 -150 64.5 -258t172.5 -166t237 -58zM550 -11q-84 0 -146 63t-95.5 172.5t-33.5 248.5q0 140 34 247.5t96 168t146 60.5q85 0 146.5 -63t95 -172
t33.5 -249t-33.5 -247.5t-95.5 -168t-147 -60.5zM955 929l-811 -915l6 -5l811 915z" />
    <glyph glyph-name="ugrave" unicode="&#xf9;" horiz-adv-x="1054" 
d="M304 948l-282 -30v-1l43 -17q39 -16 48 -29t9 -51v-550q0 -152 88 -218t221 -66q104 0 186.5 51.5t122.5 136.5v-180l282 30v1l-43 17q-39 16 -48 29.5t-9 50.5v826l-282 -30v-1l43 -17q39 -16 48 -29t9 -51v-645q-35 -60 -90.5 -92.5t-128.5 -32.5q-106 0 -161.5 62
t-55.5 192v644zM557 1024h1l-119 340h-194v-2z" />
    <glyph glyph-name="uacute" unicode="&#xfa;" horiz-adv-x="1054" 
d="M304 948l-282 -30v-1l43 -17q39 -16 48 -29t9 -51v-550q0 -152 88 -218t221 -66q104 0 186.5 51.5t122.5 136.5v-180l282 30v1l-43 17q-39 16 -48 29.5t-9 50.5v826l-282 -30v-1l43 -17q39 -16 48 -29t9 -51v-645q-35 -60 -90.5 -92.5t-128.5 -32.5q-106 0 -161.5 62
t-55.5 192v644zM489 1024l308 338v2h-186l-123 -340h1z" />
    <glyph glyph-name="ucircumflex" unicode="&#xfb;" horiz-adv-x="1054" 
d="M304 948l-282 -30v-1l43 -17q39 -16 48 -29t9 -51v-550q0 -152 88 -218t221 -66q104 0 186.5 51.5t122.5 136.5v-180l282 30v1l-43 17q-39 16 -48 29.5t-9 50.5v826l-282 -30v-1l43 -17q39 -16 48 -29t9 -51v-645q-35 -60 -90.5 -92.5t-128.5 -32.5q-106 0 -161.5 62
t-55.5 192v644zM291 1024l274 226h-82l272 -226h1l-208 340h-50l-208 -340h1z" />
    <glyph glyph-name="udieresis" unicode="&#xfc;" horiz-adv-x="1054" 
d="M304 948l-282 -30v-1l43 -17q39 -16 48 -29t9 -51v-550q0 -152 88 -218t221 -66q104 0 186.5 51.5t122.5 136.5v-180l282 30v1l-43 17q-39 16 -48 29.5t-9 50.5v826l-282 -30v-1l43 -17q39 -16 48 -29t9 -51v-645q-35 -60 -90.5 -92.5t-128.5 -32.5q-106 0 -161.5 62
t-55.5 192v644zM347 1111.64q38.54 0 65.3301 26.79t26.79 63.4502t-26.79 63.4502t-65.3301 26.79q-37.5996 0 -64.8604 -26.79q-27.2598 -26.79 -27.2598 -63.4502t27.2598 -63.4502q27.2607 -26.79 64.8604 -26.79zM699 1111.64q38.54 0 65.3301 26.79t26.79 63.4502
t-26.79 63.4502t-65.3301 26.79q-37.5996 0 -64.8604 -26.79q-27.2598 -26.79 -27.2598 -63.4502t27.2598 -63.4502q27.2607 -26.79 64.8604 -26.79z" />
    <glyph glyph-name="yacute" unicode="&#xfd;" horiz-adv-x="890" 
d="M130 784l322 -788q-32 -79 -82 -167.5t-106 -165t-108 -122.5v-1h146l152 456l87 223l198 502q32 82 56.5 125.5t50.5 63t61 27.5v1h-261v-1q52 -11 75 -30t20.5 -61t-29.5 -121l-174 -504v0l-195 517q-41 110 -27 146.5t93 52.5v1h-425v-1q36 -7 59.5 -20.5t43.5 -44
t43 -88.5zM482 1024l308 338v2h-186l-123 -340h1z" />
    <glyph glyph-name="thorn" unicode="&#xfe;" horiz-adv-x="1092" 
d="M1016 474q0 155 -57 261.5t-147.5 161.5t-192.5 55q-101 0 -184 -51t-123 -137v710l-282 -30v-1l43 -17q39 -16 48 -29t9 -51v-1700q0 -53 -17 -73.5t-83 -31.5v-1h390v1q-47 9 -70.5 21t-30.5 34.5t-7 61.5v467q26 -64 88 -101.5t156 -37.5q126 0 230.5 60.5t167 170.5
t62.5 257zM826 446q0 -128 -38 -228.5t-108 -158t-166 -57.5q-63 0 -120.5 35t-81.5 91v635q37 60 90.5 92.5t133.5 32.5q82 0 148 -55.5t104 -155t38 -231.5z" />
    <glyph glyph-name="ydieresis" unicode="&#xff;" horiz-adv-x="890" 
d="M130 784l322 -788q-32 -79 -82 -167.5t-106 -165t-108 -122.5v-1h146l152 456l87 223l198 502q32 82 56.5 125.5t50.5 63t61 27.5v1h-261v-1q52 -11 75 -30t20.5 -61t-29.5 -121l-174 -504v0l-195 517q-41 110 -27 146.5t93 52.5v1h-425v-1q36 -7 59.5 -20.5t43.5 -44
t43 -88.5zM340 1111.64q38.54 0 65.3301 26.79t26.79 63.4502t-26.79 63.4502t-65.3301 26.79q-37.5996 0 -64.8604 -26.79q-27.2598 -26.79 -27.2598 -63.4502t27.2598 -63.4502q27.2607 -26.79 64.8604 -26.79zM692 1111.64q38.54 0 65.3301 26.79t26.79 63.4502
t-26.79 63.4502t-65.3301 26.79q-37.5996 0 -64.8604 -26.79q-27.2598 -26.79 -27.2598 -63.4502t27.2598 -63.4502q27.2607 -26.79 64.8604 -26.79z" />
    <glyph glyph-name="Amacron" unicode="&#x100;" horiz-adv-x="1244" 
d="M1086 213l-438 1231h-34l-421 -1147q-42 -116 -73 -177t-62 -86t-74 -33v-1h306v1q-66 10 -93 37.5t-20 87.5t43 166l308 908v0l346 -987q25 -70 24 -114.5t-27 -68t-78 -29.5v-1h467v1q-41 8 -70 28.5t-53 64t-51 119.5zM290 532h570l-1 12h-565zM424 1582h413v85h-413
v-85z" />
    <glyph glyph-name="amacron" unicode="&#x101;" horiz-adv-x="930" 
d="M339 -14q70 0 128 18.5t99.5 51.5t59.5 77q8 -46 31.5 -78t60.5 -48.5t84 -16.5q44 0 80.5 9.5t57.5 24.5v1q-17 -5 -34 -5q-47 0 -75.5 31.5t-28.5 97.5v519q0 150 -101 217t-256 67q-101 0 -177.5 -27.5t-119 -73t-42.5 -100.5q0 -39 27 -65.5t63 -26.5q39 0 65.5 27
t26.5 65q0 43 -27.5 68.5t-65.5 25.5q-31 0 -58.5 -26t-29.5 -68v0q0 52 37 93.5t98 65.5t132 24q116 0 184 -65t68 -213v-523q-30 -49 -73 -70t-104 -21q-76 0 -132 52.5t-56 149.5q0 66 24.5 116.5t88 88t179.5 62.5l111 25v2l-214 -46q-135 -29 -217.5 -68.5
t-119.5 -91.5t-37 -119q0 -106 75.5 -166.5t187.5 -60.5zM207 1142h458v106h-458v-106z" />
    <glyph glyph-name="Abreve" unicode="&#x102;" horiz-adv-x="1244" 
d="M1086 213l-438 1231h-34l-421 -1147q-42 -116 -73 -177t-62 -86t-74 -33v-1h306v1q-66 10 -93 37.5t-20 87.5t43 166l308 908v0l346 -987q25 -70 24 -114.5t-27 -68t-78 -29.5v-1h467v1q-41 8 -70 28.5t-53 64t-51 119.5zM290 532h570l-1 12h-565zM630 1580
q64 0 109.5 31t70 81.5t24.5 106.5q0 23 -3 44h-1v0v0q0 -50 -27.5 -86.5t-73 -55.5t-100.5 -19t-100.5 19t-73 55.5t-27.5 86.5v0v0h-1q-3 -21 -3 -44q0 -56 25 -106.5t71 -81.5t110 -31z" />
    <glyph glyph-name="abreve" unicode="&#x103;" horiz-adv-x="930" 
d="M339 -14q70 0 128 18.5t99.5 51.5t59.5 77q8 -46 31.5 -78t60.5 -48.5t84 -16.5q44 0 80.5 9.5t57.5 24.5v1q-17 -5 -34 -5q-47 0 -75.5 31.5t-28.5 97.5v519q0 150 -101 217t-256 67q-101 0 -177.5 -27.5t-119 -73t-42.5 -100.5q0 -39 27 -65.5t63 -26.5q39 0 65.5 27
t26.5 65q0 43 -27.5 68.5t-65.5 25.5q-31 0 -58.5 -26t-29.5 -68v0q0 52 37 93.5t98 65.5t132 24q116 0 184 -65t68 -213v-523q-30 -49 -73 -70t-104 -21q-76 0 -132 52.5t-56 149.5q0 66 24.5 116.5t88 88t179.5 62.5l111 25v2l-214 -46q-135 -29 -217.5 -68.5
t-119.5 -91.5t-37 -119q0 -106 75.5 -166.5t187.5 -60.5zM436 1090q74 0 125.5 35.5t78.5 92t27 119.5q0 12 -0.5 24.5t-2.5 24.5h-1v0v0q0 -56 -31 -96t-82.5 -61.5t-113.5 -21.5t-113.5 21.5t-82.5 61.5t-31 96v0v0h-1q-1 -12 -2 -24.5t-1 -24.5q0 -63 27 -119.5t79 -92
t125 -35.5z" />
    <glyph glyph-name="Aogonek" unicode="&#x104;" horiz-adv-x="1244" 
d="M1086 213l-438 1231h-34l-421 -1147q-42 -116 -73 -177t-62 -86t-74 -33v-1h306v1q-66 10 -93 37.5t-20 87.5t43 166l308 908v0l346 -987q25 -70 24 -114.5t-27 -68t-78 -29.5v-1h467v1q-41 8 -70 28.5t-53 64t-51 119.5zM290 532h570l-1 12h-565zM1027 -468
q56 0 100 31.5t60 83.5l-1 1q-11 -18 -30 -30.5t-44 -12.5q-49 0 -85 60t-36 142q0 62 11 111.5t32 82.5h-1q-80 -68 -124 -143.5t-44 -159.5q0 -73 45.5 -119.5t116.5 -46.5z" />
    <glyph glyph-name="aogonek" unicode="&#x105;" horiz-adv-x="940" 
d="M339 -14q70 0 128 18.5t99.5 51.5t59.5 77q8 -46 31.5 -78t60.5 -48.5t84 -16.5q44 0 80.5 9t57.5 25v1q-17 -5 -34 -5q-47 0 -75.5 31.5t-28.5 97.5v519q0 150 -101 217t-256 67q-101 0 -177.5 -27.5t-119 -73t-42.5 -100.5q0 -39 27 -65.5t63 -26.5q39 0 65.5 27
t26.5 65q0 43 -27.5 68.5t-65.5 25.5q-31 0 -58.5 -26t-29.5 -68v0q0 52 37 93.5t98 65.5t132 24q116 0 184 -65t68 -213v-523q-30 -49 -73 -70t-104 -21q-76 0 -132 52.5t-56 149.5q0 66 24.5 116.5t88 88t179.5 62.5l111 25v2l-214 -46q-135 -29 -217.5 -68.5
t-119.5 -91.5t-37 -119q0 -106 75.5 -166.5t187.5 -60.5zM772 -468q68 0 113.5 27.5t68.5 72.5l-1 1q-10 -16 -33.5 -23.5t-46.5 -7.5q-48 0 -83 34.5t-35 99.5q0 75 43 145t142 143h-1l-76 -42q-131 -72 -191.5 -144t-60.5 -150q0 -68 46.5 -112t114.5 -44z" />
    <glyph glyph-name="Cacute" unicode="&#x106;" horiz-adv-x="1344" 
d="M88 742q0 -170 51.5 -309t146.5 -239t227.5 -154t295.5 -54q111 0 201 15.5t151.5 37.5t86.5 41l16 336h-1q-22 -106 -64.5 -186.5t-102 -133.5t-132 -80t-155.5 -27q-131 0 -225.5 66t-154.5 176.5t-88.5 248t-28.5 279.5q0 215 59.5 371t168.5 240.5t257 84.5
q96 0 173.5 -31t135.5 -87.5t96.5 -135t57.5 -173.5h1l-16 336q-46 35 -150 64.5t-298 29.5q-144 0 -272 -45.5t-226.5 -136t-154.5 -224t-56 -310.5zM790 1512l293 255v2h-186l-109 -257h2z" />
    <glyph glyph-name="cacute" unicode="&#x107;" horiz-adv-x="910" 
d="M525 -14q118 0 206 45.5t129 118.5l-1 1q-37 -43 -94 -72t-150 -29q-90 0 -170 54.5t-129.5 159.5t-49.5 254q0 115 39 210t115.5 151.5t189.5 56.5q69 0 123 -26t85 -68t31 -91v0q0 42 -28 67.5t-60 25.5q-37 0 -65 -25.5t-28 -67.5q0 -38 26.5 -65t65.5 -27
q36 0 63 26.5t27 65.5q0 50 -34 96t-99.5 75.5t-162.5 29.5q-147 0 -254 -67t-165.5 -176t-58.5 -234q0 -141 57 -251.5t158 -174t234 -63.5zM490 1024l308 338v2h-186l-123 -340h1z" />
    <glyph glyph-name="Ccircumflex" unicode="&#x108;" horiz-adv-x="1344" 
d="M88 742q0 -170 51.5 -309t146.5 -239t227.5 -154t295.5 -54q111 0 201 15.5t151.5 37.5t86.5 41l16 336h-1q-22 -106 -64.5 -186.5t-102 -133.5t-132 -80t-155.5 -27q-131 0 -225.5 66t-154.5 176.5t-88.5 248t-28.5 279.5q0 215 59.5 371t168.5 240.5t257 84.5
q96 0 173.5 -31t135.5 -87.5t96.5 -135t57.5 -173.5h1l-16 336q-46 35 -150 64.5t-298 29.5q-144 0 -272 -45.5t-226.5 -136t-154.5 -224t-56 -310.5zM612 1513l257 168h-81l256 -168h2l-189 257h-56l-189 -257v0v0z" />
    <glyph glyph-name="ccircumflex" unicode="&#x109;" horiz-adv-x="910" 
d="M525 -14q118 0 206 45.5t129 118.5l-1 1q-37 -43 -94 -72t-150 -29q-90 0 -170 54.5t-129.5 159.5t-49.5 254q0 115 39 210t115.5 151.5t189.5 56.5q69 0 123 -26t85 -68t31 -91v0q0 42 -28 67.5t-60 25.5q-37 0 -65 -25.5t-28 -67.5q0 -38 26.5 -65t65.5 -27
q36 0 63 26.5t27 65.5q0 50 -34 96t-99.5 75.5t-162.5 29.5q-147 0 -254 -67t-165.5 -176t-58.5 -234q0 -141 57 -251.5t158 -174t234 -63.5zM292 1024l274 226h-82l272 -226h1l-208 340h-50l-208 -340h1z" />
    <glyph glyph-name="Cdotaccent" unicode="&#x10a;" horiz-adv-x="1344" 
d="M88 742q0 -170 51.5 -309t146.5 -239t227.5 -154t295.5 -54q111 0 201 15.5t151.5 37.5t86.5 41l16 336h-1q-22 -106 -64.5 -186.5t-102 -133.5t-132 -80t-155.5 -27q-131 0 -225.5 66t-154.5 176.5t-88.5 248t-28.5 279.5q0 215 59.5 371t168.5 240.5t257 84.5
q96 0 173.5 -31t135.5 -87.5t96.5 -135t57.5 -173.5h1l-16 336q-46 35 -150 64.5t-298 29.5q-144 0 -272 -45.5t-226.5 -136t-154.5 -224t-56 -310.5zM820 1559q35 0 59 24.5t24 57.5t-24 57.5t-59 24.5q-34 0 -58.5 -24.5t-24.5 -57.5t24.5 -57.5t58.5 -24.5z" />
    <glyph glyph-name="cdotaccent" unicode="&#x10b;" horiz-adv-x="910" 
d="M525 -14q118 0 206 45.5t129 118.5l-1 1q-37 -43 -94 -72t-150 -29q-90 0 -170 54.5t-129.5 159.5t-49.5 254q0 115 39 210t115.5 151.5t189.5 56.5q69 0 123 -26t85 -68t31 -91v0q0 42 -28 67.5t-60 25.5q-37 0 -65 -25.5t-28 -67.5q0 -38 26.5 -65t65.5 -27
q36 0 63 26.5t27 65.5q0 50 -34 96t-99.5 75.5t-162.5 29.5q-147 0 -254 -67t-165.5 -176t-58.5 -234q0 -141 57 -251.5t158 -174t234 -63.5zM524 1106q41 0 69.5 28.5t28.5 67.5t-28.5 67.5t-69.5 28.5q-40 0 -69 -28.5t-29 -67.5t29 -67.5t69 -28.5z" />
    <glyph glyph-name="Ccaron" unicode="&#x10c;" horiz-adv-x="1344" 
d="M88 742q0 -170 51.5 -309t146.5 -239t227.5 -154t295.5 -54q111 0 201 15.5t151.5 37.5t86.5 41l16 336h-1q-22 -106 -64.5 -186.5t-102 -133.5t-132 -80t-155.5 -27q-131 0 -225.5 66t-154.5 176.5t-88.5 248t-28.5 279.5q0 215 59.5 371t168.5 240.5t257 84.5
q96 0 173.5 -31t135.5 -87.5t96.5 -135t57.5 -173.5h1l-16 336q-46 35 -150 64.5t-298 29.5q-144 0 -272 -45.5t-226.5 -136t-154.5 -224t-56 -310.5zM1044 1803l-257 -168h81l-256 168h-2l189 -257h56l189 257v0v0z" />
    <glyph glyph-name="ccaron" unicode="&#x10d;" horiz-adv-x="910" 
d="M525 -14q118 0 206 45.5t129 118.5l-1 1q-37 -43 -94 -72t-150 -29q-90 0 -170 54.5t-129.5 159.5t-49.5 254q0 115 39 210t115.5 151.5t189.5 56.5q69 0 123 -26t85 -68t31 -91v0q0 42 -28 67.5t-60 25.5q-37 0 -65 -25.5t-28 -67.5q0 -38 26.5 -65t65.5 -27
q36 0 63 26.5t27 65.5q0 50 -34 96t-99.5 75.5t-162.5 29.5q-147 0 -254 -67t-165.5 -176t-58.5 -234q0 -141 57 -251.5t158 -174t234 -63.5zM756 1408l-274 -226h82l-272 226h-1l208 -340h50l208 340h-1z" />
    <glyph glyph-name="Dcaron" unicode="&#x10e;" horiz-adv-x="1440" 
d="M1360 749q0 229 -114 383.5t-320 233t-484 78.5h-396v-1q47 -10 72 -23.5t34.5 -37.5t9.5 -68v-1184q0 -43 -9.5 -67.5t-34.5 -37.5t-72 -24v-1h396q187 0 353 45t293 137t199.5 233.5t72.5 333.5zM1136 727q0 -223 -81.5 -382.5t-239.5 -247t-389 -94.5l-64 -2v1442
l64 -2q235 -7 393 -96t237.5 -246.5t79.5 -371.5zM918 1803l-257 -168h81l-256 168h-2l189 -257h56l189 257v0v0z" />
    <glyph glyph-name="dcaron" unicode="&#x10f;" horiz-adv-x="1098" 
d="M76 464q0 -154 57 -261t147.5 -162t192.5 -55q101 0 184 51t123 137v-180l282 30v1l-43 17q-39 16 -48 29.5t-9 50.5v1352l-282 -30v-1l43 -17q39 -16 48 -29t9 -51v-533q-26 64 -87.5 101.5t-156.5 37.5q-126 0 -230.5 -60.5t-167 -170t-62.5 -257.5zM266 492
q0 129 38 229t108 157.5t166 57.5q62 0 120 -35t82 -91v-635q-37 -61 -90.5 -93t-133.5 -32q-82 0 -147.5 55.5t-104 155t-38.5 231.5zM1083 1026l193 382h-152l-42 -382h1z" />
    <glyph glyph-name="dstroke" unicode="&#x111;" horiz-adv-x="1098" 
d="M266 492q0 129 38 229t108 157.5t166 57.5q62 0 120 -35t82 -91v-635q-37 -61 -90.5 -93t-133.5 -32q-82 0 -147.5 55.5t-104 155t-38.5 231.5zM76 464q0 -154 57 -261t147.5 -162t192.5 -55q101 0 184 51t123 137v-180l282 30v1l-43 17q-39 16 -48 29.5t-9 50.5v1352
l-182 -15v-646q-26 64 -87.5 101.5t-156.5 37.5q-126 0 -230.5 -60.5t-167 -170t-62.5 -257.5zM580 1222h482v8h-482v-8z" />
    <glyph glyph-name="Emacron" unicode="&#x112;" horiz-adv-x="1122" 
d="M992 1444h-946v-1q47 -10 72 -23.5t34.5 -37.5t9.5 -68v-1184q0 -43 -9.5 -67.5t-34.5 -37.5t-72 -24v-1h1000l22 354h-1q-21 -96 -52.5 -159.5t-82 -101.5t-130 -56t-196.5 -24l-244 -12v738l276 -11q82 -3 123.5 -24t59.5 -62.5t30 -105.5h1v408h-1q-12 -64 -30 -105.5
t-59.5 -62.5t-123.5 -24l-276 -11v702l164 -8q163 -8 258 -36.5t145.5 -92.5t79.5 -181h1zM373 1582h413v85h-413v-85z" />
    <glyph glyph-name="emacron" unicode="&#x113;" horiz-adv-x="940" 
d="M76 475q0 -140 57.5 -251t159.5 -174.5t236 -63.5q118 0 206 45.5t129 118.5l-1 1q-37 -43 -94 -72t-150 -29q-107 0 -187.5 66.5t-125 179.5t-44.5 254q0 181 61 290t182 109q70 0 112.5 -47t62 -121t19.5 -155q0 -21 -1.5 -41t-3.5 -37l10 5l-498 -9v-1h666q4 18 4 40
q0 103 -45 186.5t-128 133t-198 49.5q-136 0 -232 -63t-146.5 -171t-50.5 -243zM279 1142h458v106h-458v-106z" />
    <glyph glyph-name="Ebreve" unicode="&#x114;" horiz-adv-x="1122" 
d="M992 1444h-946v-1q47 -10 72 -23.5t34.5 -37.5t9.5 -68v-1184q0 -43 -9.5 -67.5t-34.5 -37.5t-72 -24v-1h1000l22 354h-1q-21 -96 -52.5 -159.5t-82 -101.5t-130 -56t-196.5 -24l-244 -12v738l276 -11q82 -3 123.5 -24t59.5 -62.5t30 -105.5h1v408h-1q-12 -64 -30 -105.5
t-59.5 -62.5t-123.5 -24l-276 -11v702l164 -8q163 -8 258 -36.5t145.5 -92.5t79.5 -181h1zM579 1580q64 0 109.5 31t70 81.5t24.5 106.5q0 23 -3 44h-1v0v0q0 -50 -27.5 -86.5t-73 -55.5t-100.5 -19t-100.5 19t-73 55.5t-27.5 86.5v0v0h-1q-3 -21 -3 -44q0 -56 25 -106.5
t71 -81.5t110 -31z" />
    <glyph glyph-name="ebreve" unicode="&#x115;" horiz-adv-x="940" 
d="M76 475q0 -140 57.5 -251t159.5 -174.5t236 -63.5q118 0 206 45.5t129 118.5l-1 1q-37 -43 -94 -72t-150 -29q-107 0 -187.5 66.5t-125 179.5t-44.5 254q0 181 61 290t182 109q70 0 112.5 -47t62 -121t19.5 -155q0 -21 -1.5 -41t-3.5 -37l10 5l-498 -9v-1h666q4 18 4 40
q0 103 -45 186.5t-128 133t-198 49.5q-136 0 -232 -63t-146.5 -171t-50.5 -243zM508 1090q74 0 125.5 35.5t78.5 92t27 119.5q0 12 -0.5 24.5t-2.5 24.5h-1v0v0q0 -56 -31 -96t-82.5 -61.5t-113.5 -21.5t-113.5 21.5t-82.5 61.5t-31 96v0v0h-1q-1 -12 -2 -24.5t-1 -24.5
q0 -63 27 -119.5t79 -92t125 -35.5z" />
    <glyph glyph-name="Edotaccent" unicode="&#x116;" horiz-adv-x="1122" 
d="M992 1444h-946v-1q47 -10 72 -23.5t34.5 -37.5t9.5 -68v-1184q0 -43 -9.5 -67.5t-34.5 -37.5t-72 -24v-1h1000l22 354h-1q-21 -96 -52.5 -159.5t-82 -101.5t-130 -56t-196.5 -24l-244 -12v738l276 -11q82 -3 123.5 -24t59.5 -62.5t30 -105.5h1v408h-1q-12 -64 -30 -105.5
t-59.5 -62.5t-123.5 -24l-276 -11v702l164 -8q163 -8 258 -36.5t145.5 -92.5t79.5 -181h1zM579 1559q35 0 59 24.5t24 57.5t-24 57.5t-59 24.5q-34 0 -58.5 -24.5t-24.5 -57.5t24.5 -57.5t58.5 -24.5z" />
    <glyph glyph-name="edotaccent" unicode="&#x117;" horiz-adv-x="940" 
d="M76 475q0 -140 57.5 -251t159.5 -174.5t236 -63.5q118 0 206 45.5t129 118.5l-1 1q-37 -43 -94 -72t-150 -29q-107 0 -187.5 66.5t-125 179.5t-44.5 254q0 181 61 290t182 109q70 0 112.5 -47t62 -121t19.5 -155q0 -21 -1.5 -41t-3.5 -37l10 5l-498 -9v-1h666q4 18 4 40
q0 103 -45 186.5t-128 133t-198 49.5q-136 0 -232 -63t-146.5 -171t-50.5 -243zM508 1106q41 0 69.5 28.5t28.5 67.5t-28.5 67.5t-69.5 28.5q-40 0 -69 -28.5t-29 -67.5t29 -67.5t69 -28.5z" />
    <glyph glyph-name="Eogonek" unicode="&#x118;" horiz-adv-x="1122" 
d="M992 1444h-946v-1q47 -10 72 -23.5t34.5 -37.5t9.5 -68v-1184q0 -43 -9.5 -67.5t-34.5 -37.5t-72 -24v-1h1000l22 354h-1q-21 -96 -52.5 -159.5t-82 -101.5t-130 -56t-196.5 -24l-244 -12v738l276 -11q83 -3 124 -24t59 -62t30 -106h1v408h-1q-12 -64 -30 -105.5t-59 -62
t-124 -24.5l-276 -11v702l164 -8q163 -8 258 -36.5t145.5 -92.5t79.5 -181h1zM908 -468q56 0 100 31.5t60 83.5l-1 1q-11 -18 -30 -30.5t-44 -12.5q-49 0 -85 60t-36 142q0 62 11 111.5t32 82.5h-1q-80 -68 -124 -143.5t-44 -159.5q0 -73 45.5 -119.5t116.5 -46.5z" />
    <glyph glyph-name="eogonek" unicode="&#x119;" horiz-adv-x="948" 
d="M76 475q0 -140 57.5 -251t159.5 -174.5t236 -63.5q69 0 131.5 14.5t104.5 45.5v0l-35 -24q-113 -78 -172.5 -156.5t-59.5 -163.5q0 -75 51.5 -122.5t121.5 -47.5q65 0 108 27.5t66 72.5l-1 1q-10 -14 -27.5 -22.5t-39.5 -8.5q-55 0 -95 44.5t-40 123.5q0 73 31.5 144
t97.5 132q19 18 36.5 36t31.5 35t25 33l-1 1q-37 -43 -94 -72t-150 -29q-107 0 -187.5 66.5t-125 179.5t-44.5 254q0 181 61 290t182 109q70 0 112.5 -47t62 -121t19.5 -155q0 -21 -1.5 -41t-3.5 -37l10 5l-498 -9v-1h666q4 18 4 40q0 103 -45 186.5t-128 133t-198 49.5
q-136 0 -232 -63t-146.5 -171t-50.5 -243z" />
    <glyph glyph-name="Ecaron" unicode="&#x11a;" horiz-adv-x="1122" 
d="M992 1444h-946v-1q47 -10 72 -23.5t34.5 -37.5t9.5 -68v-1184q0 -43 -9.5 -67.5t-34.5 -37.5t-72 -24v-1h1000l22 354h-1q-21 -96 -52.5 -159.5t-82 -101.5t-130 -56t-196.5 -24l-244 -12v738l276 -11q82 -3 123.5 -24t59.5 -62.5t30 -105.5h1v408h-1q-12 -64 -30 -105.5
t-59.5 -62.5t-123.5 -24l-276 -11v702l164 -8q163 -8 258 -36.5t145.5 -92.5t79.5 -181h1zM803 1803l-257 -168h81l-256 168h-2l189 -257h56l189 257v0v0z" />
    <glyph glyph-name="ecaron" unicode="&#x11b;" horiz-adv-x="940" 
d="M76 475q0 -140 57.5 -251t159.5 -174.5t236 -63.5q118 0 206 45.5t129 118.5l-1 1q-37 -43 -94 -72t-150 -29q-107 0 -187.5 66.5t-125 179.5t-44.5 254q0 181 61 290t182 109q70 0 112.5 -47t62 -121t19.5 -155q0 -21 -1.5 -41t-3.5 -37l10 5l-498 -9v-1h666q4 18 4 40
q0 103 -45 186.5t-128 133t-198 49.5q-136 0 -232 -63t-146.5 -171t-50.5 -243zM740 1408l-274 -226h82l-272 226h-1l208 -340h50l208 340h-1z" />
    <glyph glyph-name="Gcircumflex" unicode="&#x11c;" horiz-adv-x="1455" 
d="M88 742q0 -170 52 -309t149.5 -239t233 -154t302.5 -54q141 0 278 44.5t222 118.5v367q0 50 9 77t33 39t68 17v1h-404v-1q45 -5 68.5 -17t32.5 -39t9 -77v-429q-44 -42 -128 -70t-188 -28q-136 0 -233 66t-159 176.5t-91.5 248t-29.5 279.5q0 215 60.5 371t171 240.5
t261.5 84.5q98 0 176.5 -30.5t137.5 -87t98.5 -134t58.5 -171.5h1l-16 332q-47 35 -153 64.5t-303 29.5q-145 0 -275 -45.5t-229 -136t-156 -224t-57 -310.5zM612 1513l257 168h-81l256 -168h2l-189 257h-56l-189 -257v0v0z" />
    <glyph glyph-name="gcircumflex" unicode="&#x11d;" horiz-adv-x="940" 
d="M83 641q0 -80 35.5 -139t97 -97t139.5 -55q-115 -8 -190 -59.5t-75 -136.5q0 -89 83 -139t211 -44q-111 -5 -186 -35.5t-112.5 -79t-37.5 -109.5q0 -75 57.5 -128t152.5 -81t208 -28q71 0 145 23t137 67t101.5 108.5t38.5 147.5q0 136 -93 203t-275 67h-110
q-96 0 -145 26.5t-49 79.5q0 50 40 80t102 38q25 -5 51.5 -8.5t54.5 -3.5q99 0 185.5 37.5t140.5 106.5t54 164q0 104 -55.5 174t-151.5 102l291 -16v34l-297 -16q-38 12 -79.5 20t-88.5 8q-98 0 -185 -37t-141 -106.5t-54 -167.5zM261 646q0 142 51 222.5t151 80.5
q101 0 152 -89t51 -219q0 -141 -51 -220.5t-151 -79.5t-151.5 87.5t-51.5 217.5zM195 -244q0 85 45.5 144t150.5 70h118q131 0 192 -51.5t61 -149.5q0 -126 -86.5 -191t-209.5 -65q-128 0 -199.5 70t-71.5 173zM251 1024l274 226h-82l272 -226h1l-208 340h-50l-208 -340h1z
" />
    <glyph glyph-name="Gbreve" unicode="&#x11e;" horiz-adv-x="1455" 
d="M88 742q0 -170 52 -309t149.5 -239t233 -154t302.5 -54q141 0 278 44.5t222 118.5v367q0 50 9 77t33 39t68 17v1h-404v-1q45 -5 68.5 -17t32.5 -39t9 -77v-429q-44 -42 -128 -70t-188 -28q-136 0 -233 66t-159 176.5t-91.5 248t-29.5 279.5q0 215 60.5 371t171 240.5
t261.5 84.5q98 0 176.5 -30.5t137.5 -87t98.5 -134t58.5 -171.5h1l-16 332q-47 35 -153 64.5t-303 29.5q-145 0 -275 -45.5t-229 -136t-156 -224t-57 -310.5zM820 1580q64 0 109.5 31t70 81.5t24.5 106.5q0 23 -3 44h-1v0v0q0 -50 -27.5 -86.5t-73 -55.5t-100.5 -19
t-100.5 19t-73 55.5t-27.5 86.5v0v0h-1q-3 -21 -3 -44q0 -56 25 -106.5t71 -81.5t110 -31z" />
    <glyph glyph-name="gbreve" unicode="&#x11f;" horiz-adv-x="940" 
d="M83 641q0 -80 35.5 -139t97 -97t139.5 -55q-115 -8 -190 -59.5t-75 -136.5q0 -89 83 -139t211 -44q-111 -5 -186 -35.5t-112.5 -79t-37.5 -109.5q0 -75 57.5 -128t152.5 -81t208 -28q71 0 145 23t137 67t101.5 108.5t38.5 147.5q0 136 -93 203t-275 67h-110
q-96 0 -145 26.5t-49 79.5q0 50 40 80t102 38q25 -5 51.5 -8.5t54.5 -3.5q99 0 185.5 37.5t140.5 106.5t54 164q0 104 -55.5 174t-151.5 102l291 -16v34l-297 -16q-38 12 -79.5 20t-88.5 8q-98 0 -185 -37t-141 -106.5t-54 -167.5zM261 646q0 142 51 222.5t151 80.5
q101 0 152 -89t51 -219q0 -141 -51 -220.5t-151 -79.5t-151.5 87.5t-51.5 217.5zM195 -244q0 85 45.5 144t150.5 70h118q131 0 192 -51.5t61 -149.5q0 -126 -86.5 -191t-209.5 -65q-128 0 -199.5 70t-71.5 173zM483 1090q74 0 125.5 35.5t78.5 92t27 119.5q0 12 -0.5 24.5
t-2.5 24.5h-1v0v0q0 -56 -31 -96t-82.5 -61.5t-113.5 -21.5t-113.5 21.5t-82.5 61.5t-31 96v0v0h-1q-1 -12 -2 -24.5t-1 -24.5q0 -63 27 -119.5t79 -92t125 -35.5z" />
    <glyph glyph-name="Gdotaccent" unicode="&#x120;" horiz-adv-x="1455" 
d="M88 742q0 -170 52 -309t149.5 -239t233 -154t302.5 -54q141 0 278 44.5t222 118.5v367q0 50 9 77t33 39t68 17v1h-404v-1q45 -5 68.5 -17t32.5 -39t9 -77v-429q-44 -42 -128 -70t-188 -28q-136 0 -233 66t-159 176.5t-91.5 248t-29.5 279.5q0 215 60.5 371t171 240.5
t261.5 84.5q98 0 176.5 -30.5t137.5 -87t98.5 -134t58.5 -171.5h1l-16 332q-47 35 -153 64.5t-303 29.5q-145 0 -275 -45.5t-229 -136t-156 -224t-57 -310.5zM820 1559q35 0 59 24.5t24 57.5t-24 57.5t-59 24.5q-34 0 -58.5 -24.5t-24.5 -57.5t24.5 -57.5t58.5 -24.5z" />
    <glyph glyph-name="gdotaccent" unicode="&#x121;" horiz-adv-x="940" 
d="M83 641q0 -80 35.5 -139t97 -97t139.5 -55q-115 -8 -190 -59.5t-75 -136.5q0 -89 83 -139t211 -44q-111 -5 -186 -35.5t-112.5 -79t-37.5 -109.5q0 -75 57.5 -128t152.5 -81t208 -28q71 0 145 23t137 67t101.5 108.5t38.5 147.5q0 136 -93 203t-275 67h-110
q-96 0 -145 26.5t-49 79.5q0 50 40 80t102 38q25 -5 51.5 -8.5t54.5 -3.5q99 0 185.5 37.5t140.5 106.5t54 164q0 104 -55.5 174t-151.5 102l291 -16v34l-297 -16q-38 12 -79.5 20t-88.5 8q-98 0 -185 -37t-141 -106.5t-54 -167.5zM261 646q0 142 51 222.5t151 80.5
q101 0 152 -89t51 -219q0 -141 -51 -220.5t-151 -79.5t-151.5 87.5t-51.5 217.5zM195 -244q0 85 45.5 144t150.5 70h118q131 0 192 -51.5t61 -149.5q0 -126 -86.5 -191t-209.5 -65q-128 0 -199.5 70t-71.5 173zM483 1106q41 0 69.5 28.5t28.5 67.5t-28.5 67.5t-69.5 28.5
q-40 0 -69 -28.5t-29 -67.5t29 -67.5t69 -28.5z" />
    <glyph glyph-name="Gcommaaccent" unicode="&#x122;" horiz-adv-x="1455" 
d="M88 742q0 -170 52 -309t149.5 -239t233 -154t302.5 -54q141 0 278 44.5t222 118.5v367q0 50 9 77t33 39t68 17v1h-404v-1q45 -5 68.5 -17t32.5 -39t9 -77v-429q-44 -42 -128 -70t-188 -28q-136 0 -233 66t-159 176.5t-91.5 248t-29.5 279.5q0 215 60.5 371t171 240.5
t261.5 84.5q98 0 176.5 -30.5t137.5 -87t98.5 -134t58.5 -171.5h1l-16 332q-47 35 -153 64.5t-303 29.5q-145 0 -275 -45.5t-229 -136t-156 -224t-57 -310.5zM820 -417q77 0 129 39.5t52 103.5q0 65 -46.5 102.5t-116.5 37.5q-58 0 -92 -28t-56 -58v-1q11 5 30.5 9.5
t39.5 4.5q45 0 74 -20.5t29 -57.5q0 -34 -28 -55t-74 -21q-37 0 -71 16t-55 38l-1 -1q18 -45 70 -77t116 -32z" />
    <glyph glyph-name="gcommaaccent" unicode="&#x123;" horiz-adv-x="940" 
d="M483 1336q-76 0 -128.5 -39t-52.5 -104q0 -64 46.5 -102t116.5 -38q58 0 92 28t56 58v1q-11 -5 -30.5 -9.5t-39.5 -4.5q-45 0 -74 20.5t-29 57.5q0 35 28 55.5t74 20.5q38 0 71.5 -15.5t54.5 -38.5l1 1q-18 45 -70 77t-116 32zM83 641q0 -80 35.5 -139t97 -97t139.5 -55
q-115 -8 -190 -59.5t-75 -136.5q0 -89 83 -139t211 -44q-111 -5 -186 -35.5t-112.5 -79t-37.5 -109.5q0 -75 57.5 -128t152.5 -81t208 -28q71 0 145 23t137 67t101.5 108.5t38.5 147.5q0 136 -93 203t-275 67h-110q-96 0 -145 26.5t-49 79.5q0 50 40 80t102 38
q25 -5 51.5 -8.5t54.5 -3.5q99 0 185.5 37.5t140.5 106.5t54 164q0 104 -55.5 174t-151.5 102l291 -16v34l-297 -16q-38 12 -79.5 20t-88.5 8q-98 0 -185 -37t-141 -106.5t-54 -167.5zM261 646q0 142 51 222.5t151 80.5q101 0 152 -89t51 -219q0 -141 -51 -220.5t-151 -79.5
t-151.5 87.5t-51.5 217.5zM195 -244q0 85 45.5 144t150.5 70h118q131 0 192 -51.5t61 -149.5q0 -126 -86.5 -191t-209.5 -65q-128 0 -199.5 70t-71.5 173z" />
    <glyph glyph-name="Hcircumflex" unicode="&#x124;" horiz-adv-x="1446" 
d="M362 122v1200q0 41 9.5 63.5t33.5 35t69 22.5v1h-428v-1q47 -10 72 -23.5t34.5 -37.5t9.5 -68v-1184q0 -43 -9.5 -67.5t-34.5 -37.5t-72 -24v-1h428v1q-45 10 -69 22.5t-33.5 35t-9.5 63.5zM1284 130v1184q0 44 9.5 68t34.5 37.5t72 23.5v1h-428v-1q45 -10 69.5 -22.5
t33.5 -35t9 -63.5v-1200q0 -41 -9 -63.5t-33.5 -35t-69.5 -22.5v-1h428v1q-47 11 -72 24t-34.5 37.5t-9.5 67.5zM262 737h922v6h-922v-6zM515 1513l257 168h-81l256 -168h2l-189 257h-56l-189 -257v0v0z" />
    <glyph glyph-name="hcircumflex" unicode="&#x125;" horiz-adv-x="1068" 
d="M318 1474l-282 -30v-1l43 -17q39 -16 48 -29t9 -51v-1232q0 -57 -19 -78.5t-81 -34.5v-1h378v1q-65 11 -80.5 31.5t-15.5 73.5v657q35 61 91.5 93t129.5 32q107 0 163 -61.5t56 -192.5v-528q0 -53 -16 -73.5t-80 -31.5v-1h378v1q-66 14 -83 35t-17 78v554
q0 152 -88.5 218t-222.5 66q-105 0 -187.5 -51.5t-123.5 -136.5v710zM12 1578l257 168h-81l256 -168h2l-189 257h-56l-189 -257v0v0z" />
    <glyph glyph-name="Hstroke" unicode="&#x126;" horiz-adv-x="1446" 
d="M362 122v1200q0 41 9.5 63.5t33.5 35t69 22.5v1h-428v-1q47 -10 72 -23.5t34.5 -37.5t9.5 -68v-1184q0 -43 -9.5 -67.5t-34.5 -37.5t-72 -24v-1h428v1q-45 10 -69 22.5t-33.5 35t-9.5 63.5zM1284 130v1184q0 44 9.5 68t34.5 37.5t72 23.5v1h-428v-1q45 -10 69.5 -22.5
t33.5 -35t9 -63.5v-1200q0 -41 -9 -63.5t-33.5 -35t-69.5 -22.5v-1h428v1q-47 11 -72 24t-34.5 37.5t-9.5 67.5zM262 737h922v6h-922v-6zM46 1084h1354v8h-1354v-8z" />
    <glyph glyph-name="hstroke" unicode="&#x127;" horiz-adv-x="1068" 
d="M414 1q-65 11 -80.5 31.5t-15.5 73.5v657q35 61 91.5 93t129.5 32q107 0 163 -61.5t56 -192.5v-528q0 -53 -16 -73.5t-80 -31.5v-1h378v1q-66 14 -83 35t-17 78v554q0 152 -88.5 218t-222.5 66q-105 0 -187.5 -51.5t-123.5 -136.5v710l-182 -15v-1345q0 -57 -19 -78.5
t-81 -34.5v-1h378v1zM36 1222h482v8h-482v-8z" />
    <glyph glyph-name="Itilde" unicode="&#x128;" horiz-adv-x="540" 
d="M370 130v1184q0 44 9.5 68t34.5 37.5t72 23.5v1h-432v-1q47 -10 72 -23.5t34.5 -37.5t9.5 -68v-1184q0 -43 -9.5 -67.5t-34.5 -37.5t-72 -24v-1h432v1q-47 11 -72 24t-34.5 37.5t-9.5 67.5zM365 1543q60 0 96 45t29 166h-1q-5 -70 -23.5 -94.5t-46.5 -24.5q-22 0 -40 8
t-47 27l-29 19q-38 26 -68 38.5t-61 12.5q-60 0 -96 -44.5t-29 -166.5h1q5 71 23.5 95t46.5 24q22 0 40 -7.5t47 -27.5l29 -19q38 -25 68 -38t61 -13z" />
    <glyph glyph-name="itilde" unicode="&#x129;" horiz-adv-x="450" 
d="M318 948l-282 -30v-1l43 -17q39 -16 48 -29t9 -51v-706q0 -57 -19 -78.5t-81 -34.5v-1h382v1q-61 13 -80.5 34.5t-19.5 78.5v834zM300.103 1102q55.8018 0 88.6523 47t27.4502 177h-0.899414q-5.40039 -76 -22.0508 -102.5t-42.751 -26.5q-19.8008 0 -36.9014 8.5
t-44.1006 29.5l-27.001 21q-36.001 28 -63.9014 41.5q-27.9014 13.5 -56.7021 13.5q-54.9014 0 -88.2021 -47t-27.9004 -177h0.899414q5.40039 77 22.501 103t42.3008 26q20.7012 0 37.3516 -8.5t43.6504 -29.5l27.001 -21q36.001 -28 64.3516 -41.5t56.252 -13.5z" />
    <glyph glyph-name="Imacron" unicode="&#x12a;" horiz-adv-x="540" 
d="M370 130v1184q0 44 9.5 68t34.5 37.5t72 23.5v1h-432v-1q47 -10 72 -23.5t34.5 -37.5t9.5 -68v-1184q0 -43 -9.5 -67.5t-34.5 -37.5t-72 -24v-1h432v1q-47 11 -72 24t-34.5 37.5t-9.5 67.5zM64 1582h413v85h-413v-85z" />
    <glyph glyph-name="imacron" unicode="&#x12b;" horiz-adv-x="450" 
d="M318 948l-282 -30v-1l43 -17q39 -16 48 -29t9 -51v-706q0 -57 -19 -78.5t-81 -34.5v-1h382v1q-61 13 -80.5 34.5t-19.5 78.5v834zM27.8027 1142h366.395v106h-366.395v-106z" />
    <glyph glyph-name="Ibreve" unicode="&#x12c;" horiz-adv-x="540" 
d="M370 130v1184q0 44 9.5 68t34.5 37.5t72 23.5v1h-432v-1q47 -10 72 -23.5t34.5 -37.5t9.5 -68v-1184q0 -43 -9.5 -67.5t-34.5 -37.5t-72 -24v-1h432v1q-47 11 -72 24t-34.5 37.5t-9.5 67.5zM270 1580q64 0 109.5 31t70 81.5t24.5 106.5q0 23 -3 44h-1v0v0
q0 -50 -27.5 -86.5t-73 -55.5t-100.5 -19t-100.5 19t-73 55.5t-27.5 86.5v0v0h-1q-3 -21 -3 -44q0 -56 25 -106.5t71 -81.5t110 -31z" />
    <glyph glyph-name="ibreve" unicode="&#x12d;" horiz-adv-x="450" 
d="M318 948l-282 -30v-1l43 -17q39 -16 48 -29t9 -51v-706q0 -57 -19 -78.5t-81 -34.5v-1h382v1q-61 13 -80.5 34.5t-19.5 78.5v834zM211 1090q66.6016 0 112.953 35.5t70.6523 92q24.2998 56.5 24.2998 119.5q0 12 -0.449219 24.5q-0.450195 12.5 -2.25098 24.5h-0.899414
v0v0q0 -56 -27.9014 -96q-27.9004 -40 -74.252 -61.5q-46.3506 -21.5 -102.152 -21.5t-102.152 21.5q-46.3516 21.5 -74.252 61.5q-27.9014 40 -27.9014 96v0v0h-0.899414q-0.900391 -12 -1.80078 -24.5q-0.899414 -12.5 -0.899414 -24.5q0 -63 24.2998 -119.5
q24.3008 -56.5 71.1025 -92q46.8008 -35.5 112.503 -35.5z" />
    <glyph glyph-name="Iogonek" unicode="&#x12e;" horiz-adv-x="540" 
d="M370 130v1184q0 44 9.5 68t34.5 37.5t72 23.5v1h-432v-1q47 -10 72 -23.5t34.5 -37.5t9.5 -68v-1184q0 -43 -9.5 -67.5t-34.5 -37.5t-72 -24v-1h432v1q-47 11 -72 24t-34.5 37.5t-9.5 67.5zM281 -468q56 0 100 31.5t60 83.5l-1 1q-11 -18 -30 -30.5t-44 -12.5
q-49 0 -85 60t-36 142q0 62 11 111.5t32 82.5h-1q-80 -68 -124 -143.5t-44 -159.5q0 -73 45.5 -119.5t116.5 -46.5z" />
    <glyph glyph-name="iogonek" unicode="&#x12f;" horiz-adv-x="450" 
d="M318 948l-282 -30v-1l43 -17q39 -16 48 -29t9 -51v-706q0 -57 -19 -78.5t-81 -34.5v-1h382v1q-61 13 -80.5 34.5t-19.5 78.5v834zM211 1121q40 0 67.5 27.5t27.5 65.5t-27.5 65t-67.5 27q-39 0 -66.5 -27t-27.5 -65t27.5 -65.5t66.5 -27.5zM239 -468q61 0 106 29.5
t63 70.5l-1 1q-10 -15 -28.5 -23t-39.5 -8q-60 0 -98 69t-38 170q0 46 11 85.5t25 74.5v0q-87 -79 -127 -153.5t-40 -144.5q0 -82 50.5 -126.5t116.5 -44.5z" />
    <glyph glyph-name="Idotaccent" unicode="&#x130;" horiz-adv-x="540" 
d="M370 130v1184q0 44 9.5 68t34.5 37.5t72 23.5v1h-432v-1q47 -10 72 -23.5t34.5 -37.5t9.5 -68v-1184q0 -43 -9.5 -67.5t-34.5 -37.5t-72 -24v-1h432v1q-47 11 -72 24t-34.5 37.5t-9.5 67.5zM270 1559q35 0 59 24.5t24 57.5t-24 57.5t-59 24.5q-34 0 -58.5 -24.5
t-24.5 -57.5t24.5 -57.5t58.5 -24.5z" />
    <glyph glyph-name="dotlessi" unicode="&#x131;" horiz-adv-x="450" 
d="M318 948l-282 -30v-1l43 -17q39 -16 48 -29t9 -51v-706q0 -57 -19 -78.5t-81 -34.5v-1h382v1q-61 13 -80.5 34.5t-19.5 78.5v834z" />
    <glyph glyph-name="IJ" unicode="&#x132;" horiz-adv-x="1048" 
d="M370 130v1184q0 44 9.5 68t34.5 37.5t72 23.5v1h-432v-1q47 -10 72 -23.5t34.5 -37.5t9.5 -68v-1184q0 -43 -9.5 -67.5t-34.5 -37.5t-72 -24v-1h432v1q-47 11 -72 24t-34.5 37.5t-9.5 67.5zM894 232v1082q0 44 9.5 68t34.5 37.5t72 23.5v1h-432v-1q47 -10 72 -23.5
t34.5 -37.5t9.5 -68v-1052q0 -176 -24.5 -300t-84 -211.5t-164.5 -155.5v-1q111 50 198.5 108t148.5 132t93.5 171.5t32.5 226.5z" />
    <glyph glyph-name="ij" unicode="&#x133;" horiz-adv-x="884" 
d="M318 948l-282 -30v-1l43 -17q39 -16 48 -29t9 -51v-706q0 -57 -19 -78.5t-81 -34.5v-1h382v1q-61 13 -80.5 34.5t-19.5 78.5v834zM211 1101.29q43.0498 0 72.9746 29.9248q29.9238 29.9248 29.9238 70.874q0 40.9502 -29.9238 70.875q-29.9248 29.9238 -72.9746 29.9238
q-42 0 -72.4492 -29.9238q-30.4492 -29.9248 -30.4492 -70.875q0 -40.9492 30.4492 -70.874t72.4492 -29.9248zM762 948l-282 -30v-1l43 -17q39 -16 48 -29t9 -51v-698q0 -117 -10 -205t-33.5 -155.5t-63.5 -122.5t-101 -108v-1l58 41q87 62 150 113t103.5 109.5t59.5 140
t19 203.5v811zM655 1101.29q43.0498 0 72.9746 29.9248q29.9238 29.9248 29.9238 70.874q0 40.9502 -29.9238 70.875q-29.9248 29.9238 -72.9746 29.9238q-42 0 -72.4492 -29.9238q-30.4492 -29.9248 -30.4492 -70.875q0 -40.9492 30.4492 -70.874t72.4492 -29.9248z" />
    <glyph glyph-name="Jcircumflex" unicode="&#x134;" horiz-adv-x="508" 
d="M354 232v1082q0 44 9.5 68t34.5 37.5t72 23.5v1h-432v-1q47 -10 72 -23.5t34.5 -37.5t9.5 -68v-1052q0 -176 -24.5 -300t-84 -211.5t-164.5 -155.5v-1q111 50 198.5 108t148.5 132t93.5 171.5t32.5 226.5zM46 1513l257 168h-81l256 -168h2l-189 257h-56l-189 -257v0v0z
" />
    <glyph glyph-name="jcircumflex" unicode="&#x135;" horiz-adv-x="434" 
d="M312 948l-282 -30v-1l43 -17q39 -16 48 -29t9 -51v-698q0 -117 -10 -205t-33.5 -155.5t-63.5 -122.5t-101 -108v-1l58 41q87 62 150 113t103.5 109.5t59.5 140t19 203.5v811zM-27 1024l274 226h-82l272 -226h1l-208 340h-50l-208 -340h1z" />
    <glyph glyph-name="Kcommaaccent" unicode="&#x136;" horiz-adv-x="1252" 
d="M362 122v1200q0 41 9.5 63.5t33.5 35t69 22.5v1h-428v-1q47 -10 72 -23.5t34.5 -37.5t9.5 -68v-1184q0 -43 -9.5 -67.5t-34.5 -37.5t-72 -24v-1h428v1q-45 10 -69 22.5t-33.5 35t-9.5 63.5zM950 0h302v1q-34 12 -67 39t-75 83t-104 153l-399 629v0q56 58 126 133t135 141
q81 82 142 135.5t111.5 84.5t99.5 44v1h-319v-1q60 -7 74 -33.5t-17.5 -79.5t-108.5 -142l-373 -431zM480 752v8l-121 -4v-1zM638 -417q77 0 129 39.5t52 103.5q0 65 -46.5 102.5t-116.5 37.5q-58 0 -92 -28t-56 -58v-1q11 5 30.5 9.5t39.5 4.5q45 0 74 -20.5t29 -57.5
q0 -34 -28 -55t-74 -21q-37 0 -71 16t-55 38l-1 -1q18 -45 70 -77t116 -32z" />
    <glyph glyph-name="kcommaaccent" unicode="&#x137;" horiz-adv-x="970" 
d="M318 1474l-282 -30v-1l43 -17q39 -16 48 -29t9 -51v-1232q0 -57 -19 -78.5t-81 -34.5v-1h378v1q-65 11 -80.5 31.5t-15.5 73.5v1368zM315 514l113 -6v18l-113 -11v-1zM726 0h264v1q-28 6 -53 22t-52 50.5t-63 93.5l-290 485v0l143 135q51 48 86.5 75.5t72 44t86.5 30.5v1
h-298v-1q72 -16 77.5 -46.5t-46.5 -91.5l-239 -282zM500 -417q77 0 129 39.5t52 103.5q0 65 -46.5 102.5t-116.5 37.5q-58 0 -92 -28t-56 -58v-1q11 5 30.5 9.5t39.5 4.5q45 0 74 -20.5t29 -57.5q0 -34 -28 -55t-74 -21q-37 0 -71 16t-55 38l-1 -1q18 -45 70 -77t116 -32z
" />
    <glyph glyph-name="Lacute" unicode="&#x139;" horiz-adv-x="1024" 
d="M974 0l22 354h-1q-22 -97 -54 -161t-85 -102.5t-136.5 -57.5t-208.5 -25l-149 -7v1297q0 49 8.5 77t35.5 43.5t80 24.5v1h-440v-1q47 -10 72 -23.5t34.5 -37.5t9.5 -68v-1184q0 -43 -9.5 -67.5t-34.5 -37.5t-72 -24v-1h928zM232 1512l293 255v2h-186l-109 -257h2z" />
    <glyph glyph-name="lacute" unicode="&#x13a;" horiz-adv-x="454" 
d="M318 1474l-282 -30v-1l43 -17q39 -16 48 -29t9 -51v-1232q0 -57 -19 -78.5t-81 -34.5v-1h382v1q-61 13 -80.5 34.5t-19.5 78.5v1360zM197 1511l293 255v2h-186l-109 -257h2z" />
    <glyph glyph-name="Lcommaaccent" unicode="&#x13b;" horiz-adv-x="1024" 
d="M974 0l22 354h-1q-22 -97 -54 -161t-85 -102.5t-136.5 -57.5t-208.5 -25l-149 -7v1297q0 49 8.5 77t35.5 43.5t80 24.5v1h-440v-1q47 -10 72 -23.5t34.5 -37.5t9.5 -68v-1184q0 -43 -9.5 -67.5t-34.5 -37.5t-72 -24v-1h928zM564 -417q77 0 129 39.5t52 103.5
q0 65 -46.5 102.5t-116.5 37.5q-58 0 -92 -28t-56 -58v-1q11 5 30.5 9.5t39.5 4.5q45 0 74 -20.5t29 -57.5q0 -34 -28 -55t-74 -21q-37 0 -71 16t-55 38l-1 -1q18 -45 70 -77t116 -32z" />
    <glyph glyph-name="lcommaaccent" unicode="&#x13c;" horiz-adv-x="454" 
d="M318 1474l-282 -30v-1l43 -17q39 -16 48 -29t9 -51v-1232q0 -57 -19 -78.5t-81 -34.5v-1h382v1q-61 13 -80.5 34.5t-19.5 78.5v1360zM227 -417q77 0 129 39.5t52 103.5q0 65 -46.5 102.5t-116.5 37.5q-58 0 -92 -28t-56 -58v-1q11 5 30.5 9.5t39.5 4.5q45 0 74 -20.5
t29 -57.5q0 -34 -28 -55t-74 -21q-37 0 -71 16t-55 38l-1 -1q18 -45 70 -77t116 -32z" />
    <glyph glyph-name="Lcaron" unicode="&#x13d;" horiz-adv-x="1024" 
d="M974 0l22 354h-1q-22 -97 -54 -161t-85 -102.5t-136.5 -57.5t-208.5 -25l-149 -7v1297q0 49 8.5 77t35.5 43.5t80 24.5v1h-440v-1q47 -10 72 -23.5t34.5 -37.5t9.5 -68v-1184q0 -43 -9.5 -67.5t-34.5 -37.5t-72 -24v-1h928zM655 1102l193 382h-152l-42 -382h1z" />
    <glyph glyph-name="lcaron" unicode="&#x13e;" horiz-adv-x="454" 
d="M318 1474l-282 -30v-1l43 -17q39 -16 48 -29t9 -51v-1232q0 -57 -19 -78.5t-81 -34.5v-1h382v1q-61 13 -80.5 34.5t-19.5 78.5v1360zM439 1026l193 382h-152l-42 -382h1z" />
    <glyph glyph-name="Ldot" unicode="&#x13f;" horiz-adv-x="1024" 
d="M974 0l22 354h-1q-22 -97 -54 -161t-85 -102.5t-136.5 -57.5t-208.5 -25l-149 -7v1297q0 49 8.5 77t35.5 43.5t80 24.5v1h-440v-1q47 -10 72 -23.5t34.5 -37.5t9.5 -68v-1184q0 -43 -9.5 -67.5t-34.5 -37.5t-72 -24v-1h928zM657 684q41 0 69.5 28.5t28.5 67.5t-28.5 67.5
t-69.5 28.5q-40 0 -69 -28.5t-29 -67.5t29 -67.5t69 -28.5z" />
    <glyph glyph-name="ldot" unicode="&#x140;" horiz-adv-x="566" 
d="M318 1474l-282 -30v-1l43 -17q39 -16 48 -29t9 -51v-1232q0 -57 -19 -78.5t-81 -34.5v-1h382v1q-61 13 -80.5 34.5t-19.5 78.5v1360zM510 631q38 0 65.5 27t27.5 64t-27.5 64t-65.5 27t-65.5 -27t-27.5 -64t27.5 -64t65.5 -27z" />
    <glyph glyph-name="Lstroke" unicode="&#x141;" horiz-adv-x="1024" 
d="M974 0l22 354h-1q-22 -97 -54 -161t-85 -102.5t-136.5 -57.5t-208.5 -25l-149 -7v1297q0 49 8.5 77t35.5 43.5t80 24.5v1h-440v-1q47 -10 72 -23.5t34.5 -37.5t9.5 -68v-1184q0 -43 -9.5 -67.5t-34.5 -37.5t-72 -24v-1h928zM46 658l668 191v9l-668 -191v-9z" />
    <glyph glyph-name="lstroke" unicode="&#x142;" horiz-adv-x="454" 
d="M318 1474l-282 -30v-1l43 -17q39 -16 48 -29t9 -51v-1232q0 -57 -19 -78.5t-81 -34.5v-1h382v1q-61 13 -80.5 34.5t-19.5 78.5v1360zM36 759l396 138v9l-396 -138v-9z" />
    <glyph glyph-name="Nacute" unicode="&#x143;" horiz-adv-x="1338" 
d="M358 1444h-306v-1q36 -14 60.5 -34t37 -53t11.5 -89l-13 -971q-1 -111 -11.5 -172t-39.5 -87.5t-87 -35.5v-1h306v1q-57 9 -86.5 35t-39.5 87t-12 173l-15 1086h-17l991 -1382h47l10 1148q1 112 11.5 172.5t40 87.5t86.5 35v1h-306v-1q58 -8 86.5 -34.5t39 -87.5
t12.5 -173l18 -857v0zM686 1512l293 255v2h-186l-109 -257h2z" />
    <glyph glyph-name="nacute" unicode="&#x144;" horiz-adv-x="1068" 
d="M318 948l-282 -30v-1l43 -17q39 -16 48 -29t9 -51v-706q0 -57 -19 -78.5t-81 -34.5v-1h378v1q-65 11 -80.5 31.5t-15.5 73.5v657q35 61 91.5 93t129.5 32q107 0 163 -61.5t56 -192.5v-528q0 -53 -16 -73.5t-80 -31.5v-1h378v1q-66 14 -83 35t-17 78v554q0 152 -88.5 218
t-222.5 66q-105 0 -187.5 -51.5t-123.5 -136.5v184zM504 1024l308 338v2h-186l-123 -340h1z" />
    <glyph glyph-name="Ncommaaccent" unicode="&#x145;" horiz-adv-x="1338" 
d="M358 1444h-306v-1q36 -14 60.5 -34t37 -53t11.5 -89l-13 -971q-1 -111 -11.5 -172t-39.5 -87.5t-87 -35.5v-1h306v1q-57 9 -86.5 35t-39.5 87t-12 173l-15 1086h-17l991 -1382h47l10 1148q1 112 11.5 172.5t40 87.5t86.5 35v1h-306v-1q58 -8 86.5 -34.5t39 -87.5
t12.5 -173l18 -857v0zM672 -417q77 0 129 39.5t52 103.5q0 65 -46.5 102.5t-116.5 37.5q-58 0 -92 -28t-56 -58v-1q11 5 30.5 9.5t39.5 4.5q45 0 74 -20.5t29 -57.5q0 -34 -28 -55t-74 -21q-37 0 -71 16t-55 38l-1 -1q18 -45 70 -77t116 -32z" />
    <glyph glyph-name="ncommaaccent" unicode="&#x146;" horiz-adv-x="1068" 
d="M318 948l-282 -30v-1l43 -17q39 -16 48 -29t9 -51v-706q0 -57 -19 -78.5t-81 -34.5v-1h378v1q-65 11 -80.5 31.5t-15.5 73.5v657q35 61 91.5 93t129.5 32q107 0 163 -61.5t56 -192.5v-528q0 -53 -16 -73.5t-80 -31.5v-1h378v1q-66 14 -83 35t-17 78v554q0 152 -88.5 218
t-222.5 66q-105 0 -187.5 -51.5t-123.5 -136.5v184zM538 -417q77 0 129 39.5t52 103.5q0 65 -46.5 102.5t-116.5 37.5q-58 0 -92 -28t-56 -58v-1q11 5 30.5 9.5t39.5 4.5q45 0 74 -20.5t29 -57.5q0 -34 -28 -55t-74 -21q-37 0 -71 16t-55 38l-1 -1q18 -45 70 -77t116 -32z
" />
    <glyph glyph-name="Ncaron" unicode="&#x147;" horiz-adv-x="1338" 
d="M358 1444h-306v-1q36 -14 60.5 -34t37 -53t11.5 -89l-13 -971q-1 -111 -11.5 -172t-39.5 -87.5t-87 -35.5v-1h306v1q-57 9 -86.5 35t-39.5 87t-12 173l-15 1086h-17l991 -1382h47l10 1148q1 112 11.5 172.5t40 87.5t86.5 35v1h-306v-1q58 -8 86.5 -34.5t39 -87.5
t12.5 -173l18 -857v0zM940 1803l-257 -168h81l-256 168h-2l189 -257h56l189 257v0v0z" />
    <glyph glyph-name="ncaron" unicode="&#x148;" horiz-adv-x="1068" 
d="M318 948l-282 -30v-1l43 -17q39 -16 48 -29t9 -51v-706q0 -57 -19 -78.5t-81 -34.5v-1h378v1q-65 11 -80.5 31.5t-15.5 73.5v657q35 61 91.5 93t129.5 32q107 0 163 -61.5t56 -192.5v-528q0 -53 -16 -73.5t-80 -31.5v-1h378v1q-66 14 -83 35t-17 78v554q0 152 -88.5 218
t-222.5 66q-105 0 -187.5 -51.5t-123.5 -136.5v184zM770 1408l-274 -226h82l-272 226h-1l208 -340h50l208 340h-1z" />
    <glyph glyph-name="Omacron" unicode="&#x14c;" horiz-adv-x="1584" 
d="M88 723q0 -171 59.5 -307.5t161 -232t228 -146.5t261.5 -51q158 0 286 57.5t220.5 159.5t142 235.5t49.5 284.5q0 171 -59.5 307t-161 231.5t-228.5 146t-261 50.5q-158 0 -286.5 -57.5t-220.5 -158.5t-141.5 -234t-49.5 -285zM312 733q0 211 48 374t152.5 255.5
t273.5 92.5q111 0 201 -54t153.5 -152.5t97.5 -234.5t34 -301q0 -211 -48 -374.5t-152.5 -256.5t-273.5 -93q-112 0 -201.5 54t-153 153.5t-97.5 235.5t-34 301zM584 1582h413v85h-413v-85z" />
    <glyph glyph-name="omacron" unicode="&#x14d;" horiz-adv-x="1106" 
d="M553 -14q130 0 238.5 61.5t173.5 170.5t65 251q0 150 -65 258.5t-173.5 166.5t-238.5 58t-238.5 -61.5t-173.5 -170t-65 -251.5q0 -150 65 -258.5t173.5 -166.5t238.5 -58zM553 -11q-84 0 -145 62.5t-94.5 172t-33.5 249.5q0 141 33.5 248t94.5 167.5t145 60.5
t145.5 -62.5t94.5 -172t33 -249.5t-33 -247.5t-94.5 -168t-145.5 -60.5zM325 1142h458v106h-458v-106z" />
    <glyph glyph-name="Obreve" unicode="&#x14e;" horiz-adv-x="1584" 
d="M88 723q0 -171 59.5 -307.5t161 -232t228 -146.5t261.5 -51q158 0 286 57.5t220.5 159.5t142 235.5t49.5 284.5q0 171 -59.5 307t-161 231.5t-228.5 146t-261 50.5q-158 0 -286.5 -57.5t-220.5 -158.5t-141.5 -234t-49.5 -285zM312 733q0 211 48 374t152.5 255.5
t273.5 92.5q111 0 201 -54t153.5 -152.5t97.5 -234.5t34 -301q0 -211 -48 -374.5t-152.5 -256.5t-273.5 -93q-112 0 -201.5 54t-153 153.5t-97.5 235.5t-34 301zM790 1580q64 0 109.5 31t70 81.5t24.5 106.5q0 23 -3 44h-1v0v0q0 -50 -27.5 -86.5t-73 -55.5t-100.5 -19
t-100.5 19t-73 55.5t-27.5 86.5v0v0h-1q-3 -21 -3 -44q0 -56 25 -106.5t71 -81.5t110 -31z" />
    <glyph glyph-name="obreve" unicode="&#x14f;" horiz-adv-x="1106" 
d="M553 -14q130 0 238.5 61.5t173.5 170.5t65 251q0 150 -65 258.5t-173.5 166.5t-238.5 58t-238.5 -61.5t-173.5 -170t-65 -251.5q0 -150 65 -258.5t173.5 -166.5t238.5 -58zM553 -11q-84 0 -145 62.5t-94.5 172t-33.5 249.5q0 141 33.5 248t94.5 167.5t145 60.5
t145.5 -62.5t94.5 -172t33 -249.5t-33 -247.5t-94.5 -168t-145.5 -60.5zM554 1090q74 0 125.5 35.5t78.5 92t27 119.5q0 12 -0.5 24.5t-2.5 24.5h-1v0v0q0 -56 -31 -96t-82.5 -61.5t-113.5 -21.5t-113.5 21.5t-82.5 61.5t-31 96v0v0h-1q-1 -12 -2 -24.5t-1 -24.5
q0 -63 27 -119.5t79 -92t125 -35.5z" />
    <glyph glyph-name="Ohungarumlaut" unicode="&#x150;" horiz-adv-x="1584" 
d="M88 723q0 -171 59.5 -307.5t161 -232t228 -146.5t261.5 -51q158 0 286 57.5t220.5 159.5t142 235.5t49.5 284.5q0 171 -59.5 307t-161 231.5t-228.5 146t-261 50.5q-158 0 -286.5 -57.5t-220.5 -158.5t-141.5 -234t-49.5 -285zM312 733q0 211 48 374t152.5 255.5
t273.5 92.5q111 0 201 -54t153.5 -152.5t97.5 -234.5t34 -301q0 -211 -48 -374.5t-152.5 -256.5t-273.5 -93q-112 0 -201.5 54t-153 153.5t-97.5 235.5t-34 301zM716 1770l-73 -257h2l241 256v2zM996 1770l-118 -257h2l295 256v2z" />
    <glyph glyph-name="ohungarumlaut" unicode="&#x151;" horiz-adv-x="1106" 
d="M553 -14q130 0 238.5 61.5t173.5 170.5t65 251q0 150 -65 258.5t-173.5 166.5t-238.5 58t-238.5 -61.5t-173.5 -170t-65 -251.5q0 -150 65 -258.5t173.5 -166.5t238.5 -58zM553 -11q-84 0 -145 62.5t-94.5 172t-33.5 249.5q0 141 33.5 248t94.5 167.5t145 60.5
t145.5 -62.5t94.5 -172t33 -249.5t-33 -247.5t-94.5 -168t-145.5 -60.5zM481 1364l-91 -340h1l262 338v2h-172zM783 1364l-137 -340h1l316 338v2h-180z" />
    <glyph glyph-name="OE" unicode="&#x152;" horiz-adv-x="1938" 
d="M88 722q0 -171 60 -307.5t162.5 -232t231 -146.5t264.5 -51q68 0 129 4t121.5 7.5t125.5 3.5h680l22 354h-1q-21 -96 -52.5 -159.5t-82 -101.5t-130 -56t-196.5 -24l-240 -12v738l276 -11q82 -3 123.5 -24t59.5 -62.5t30 -105.5h1v408h-1q-12 -64 -30 -105.5t-59.5 -62.5
t-123.5 -24l-276 -11v702l164 -8q163 -8 258 -36.5t145.5 -92.5t79.5 -181h1l-18 319h-630q-75 0 -124.5 2.5t-88.5 5t-79 5t-96 2.5q-160 0 -290 -57.5t-223 -159.5t-143 -235t-50 -285zM313 732q0 211 48.5 374.5t154.5 256.5t278 93q61 0 116 -12.5t98 -43.5l-26 33
v-1428l28 25q-47 -24 -97.5 -33t-106.5 -9q-151 0 -261.5 94.5t-171 262.5t-60.5 387z" />
    <glyph glyph-name="oe" unicode="&#x153;" horiz-adv-x="1682" 
d="M546 -14q118 0 222 63.5t168 173t64 248.5q0 149 -62 256.5t-165 166t-227 58.5q-122 0 -229.5 -64.5t-174 -175t-66.5 -249.5q0 -148 64.5 -255t171 -164.5t234.5 -57.5zM546 -11q-89 0 -148.5 63t-89.5 172t-30 247q0 224 67.5 351t200.5 127q89 0 148.5 -64t89.5 -174
t30 -248q0 -223 -68 -348.5t-200 -125.5zM1267 -14q118 0 206 50t129 114v1q-40 -43 -95.5 -72t-149.5 -29q-107 0 -187.5 66.5t-125 179.5t-44.5 254q0 181 63.5 290t183.5 109q70 0 112.5 -47t62 -121t19.5 -155q0 -21 -1.5 -41t-3.5 -37l10 5l-506 -9v-1h674q4 18 4 40
q0 103 -45 186.5t-128 133t-198 49.5q-135 0 -231 -67.5t-147 -177.5t-51 -236q0 -139 57 -249t158 -173t234 -63z" />
    <glyph glyph-name="Racute" unicode="&#x154;" horiz-adv-x="1212" 
d="M1066 1061q0 118 -66.5 204t-197 132.5t-324.5 46.5h-432v-1q47 -8 72 -21t34.5 -37.5t9.5 -70.5v-1184q0 -41 -9.5 -65t-34.5 -37.5t-72 -26.5v-1h428v1q-45 12 -69 25t-33.5 35t-9.5 61v569h217l349 -691h280v1q-28 10 -55.5 32t-64 77.5t-93.5 165.5l-240 469v-23
q91 20 161 67t110 116t40 156zM858 1053q0 -172 -104 -262t-264 -95l-128 -4v751l96 -3q153 -5 240 -60.5t123.5 -142t36.5 -184.5zM533 1512l293 255v2h-186l-109 -257h2z" />
    <glyph glyph-name="racute" unicode="&#x155;" horiz-adv-x="688" 
d="M318 948l-282 -30v-1l43 -17q39 -16 48 -29t9 -51v-714q0 -53 -17 -73.5t-83 -31.5v-1h390v1q-47 9 -70.5 21t-30.5 34.5t-7 61.5v618q39 36 101 56t128 20q29 0 54.5 -3t37.5 -6q7 8 14 26t7 38q0 34 -22 57.5t-66 23.5q-54 0 -112.5 -53t-141.5 -158v211zM355 1024
l308 338v2h-186l-123 -340h1z" />
    <glyph glyph-name="Rcommaaccent" unicode="&#x156;" horiz-adv-x="1212" 
d="M1066 1061q0 118 -66.5 204t-197 132.5t-324.5 46.5h-432v-1q47 -8 72 -21t34.5 -37.5t9.5 -70.5v-1184q0 -41 -9.5 -65t-34.5 -37.5t-72 -26.5v-1h428v1q-45 12 -69 25t-33.5 35t-9.5 61v569h217l349 -691h280v1q-28 10 -55.5 32t-64 77.5t-93.5 165.5l-240 469v-23
q91 20 161 67t110 116t40 156zM858 1053q0 -172 -104 -262t-264 -95l-128 -4v751l96 -3q153 -5 240 -60.5t123.5 -142t36.5 -184.5zM563 -417q77 0 129 39.5t52 103.5q0 65 -46.5 102.5t-116.5 37.5q-58 0 -92 -28t-56 -58v-1q11 5 30.5 9.5t39.5 4.5q45 0 74 -20.5
t29 -57.5q0 -34 -28 -55t-74 -21q-37 0 -71 16t-55 38l-1 -1q18 -45 70 -77t116 -32z" />
    <glyph glyph-name="rcommaaccent" unicode="&#x157;" horiz-adv-x="688" 
d="M318 948l-282 -30v-1l43 -17q39 -16 48 -29t9 -51v-714q0 -53 -17 -73.5t-83 -31.5v-1h390v1q-47 9 -70.5 21t-30.5 34.5t-7 61.5v618q39 36 101 56t128 20q29 0 54.5 -3t37.5 -6q7 8 14 26t7 38q0 34 -22 57.5t-66 23.5q-54 0 -112.5 -53t-141.5 -158v211zM227 -417
q77 0 129 39.5t52 103.5q0 65 -46.5 102.5t-116.5 37.5q-58 0 -92 -28t-56 -58v-1q11 5 30.5 9.5t39.5 4.5q45 0 74 -20.5t29 -57.5q0 -34 -28 -55t-74 -21q-37 0 -71 16t-55 38l-1 -1q18 -45 70 -77t116 -32z" />
    <glyph glyph-name="Rcaron" unicode="&#x158;" horiz-adv-x="1212" 
d="M1066 1061q0 118 -66.5 204t-197 132.5t-324.5 46.5h-432v-1q47 -8 72 -21t34.5 -37.5t9.5 -70.5v-1184q0 -41 -9.5 -65t-34.5 -37.5t-72 -26.5v-1h428v1q-45 12 -69 25t-33.5 35t-9.5 61v569h217l349 -691h280v1q-28 10 -55.5 32t-64 77.5t-93.5 165.5l-240 469v-23
q91 20 161 67t110 116t40 156zM858 1053q0 -172 -104 -262t-264 -95l-128 -4v751l96 -3q153 -5 240 -60.5t123.5 -142t36.5 -184.5zM787 1803l-257 -168h81l-256 168h-2l189 -257h56l189 257v0v0z" />
    <glyph glyph-name="rcaron" unicode="&#x159;" horiz-adv-x="688" 
d="M318 948l-282 -30v-1l43 -17q39 -16 48 -29t9 -51v-714q0 -53 -17 -73.5t-83 -31.5v-1h390v1q-47 9 -70.5 21t-30.5 34.5t-7 61.5v618q39 36 101 56t128 20q29 0 54.5 -3t37.5 -6q7 8 14 26t7 38q0 34 -22 57.5t-66 23.5q-54 0 -112.5 -53t-141.5 -158v211zM621 1408
l-274 -226h82l-272 226h-1l208 -340h50l208 340h-1z" />
    <glyph glyph-name="Sacute" unicode="&#x15a;" horiz-adv-x="1084" 
d="M537 -14q121 0 227.5 50.5t173 143t66.5 218.5q0 145 -89 249.5t-251 171.5l-111 46q-136 56 -215.5 131.5t-79.5 195.5q0 116 74.5 189.5t219.5 73.5q94 0 164.5 -44.5t120.5 -127.5t82 -200h1l-14 300q-39 27 -126 51t-228 24q-111 0 -215 -38t-170.5 -119t-66.5 -211
q0 -145 86.5 -248.5t248.5 -168.5l115 -46q151 -61 223.5 -138t72.5 -193q0 -145 -89 -226t-220 -81q-80 0 -151 25.5t-129 77.5t-101 131.5t-67 188.5h-1l16 -332q62 -37 167.5 -65.5t265.5 -28.5zM514 1512l293 255v2h-186l-109 -257h2z" />
    <glyph glyph-name="sacute" unicode="&#x15b;" horiz-adv-x="802" 
d="M84 683q0 -97 63.5 -162t187.5 -111l71 -26q92 -34 137 -83.5t45 -128.5q0 -76 -54.5 -129.5t-145.5 -53.5q-61 0 -125 39t-114.5 113.5t-71.5 180.5h-1l13 -270q28 -20 73.5 -35t103.5 -23t122 -8q76 0 154 30.5t131 91.5t53 150q0 108 -62.5 181.5t-181.5 116.5l-71 26
q-92 34 -140.5 76t-48.5 115q0 75 49.5 125.5t146.5 50.5q93 0 162 -73.5t92 -213.5h1l-2 239q-26 19 -92 35t-161 16q-87 0 -163.5 -29.5t-123.5 -89.5t-47 -150zM358 1024l308 338v2h-186l-123 -340h1z" />
    <glyph glyph-name="Scircumflex" unicode="&#x15c;" horiz-adv-x="1084" 
d="M537 -14q121 0 227.5 50.5t173 143t66.5 218.5q0 145 -89 249.5t-251 171.5l-111 46q-136 56 -215.5 131.5t-79.5 195.5q0 116 74.5 189.5t219.5 73.5q94 0 164.5 -44.5t120.5 -127.5t82 -200h1l-14 300q-39 27 -126 51t-228 24q-111 0 -215 -38t-170.5 -119t-66.5 -211
q0 -145 86.5 -248.5t248.5 -168.5l115 -46q151 -61 223.5 -138t72.5 -193q0 -145 -89 -226t-220 -81q-80 0 -151 25.5t-129 77.5t-101 131.5t-67 188.5h-1l16 -332q62 -37 167.5 -65.5t265.5 -28.5zM336 1513l257 168h-81l256 -168h2l-189 257h-56l-189 -257v0v0z" />
    <glyph glyph-name="scircumflex" unicode="&#x15d;" horiz-adv-x="802" 
d="M84 683q0 -97 63.5 -162t187.5 -111l71 -26q92 -34 137 -83.5t45 -128.5q0 -76 -54.5 -129.5t-145.5 -53.5q-61 0 -125 39t-114.5 113.5t-71.5 180.5h-1l13 -270q28 -20 73.5 -35t103.5 -23t122 -8q76 0 154 30.5t131 91.5t53 150q0 108 -62.5 181.5t-181.5 116.5l-71 26
q-92 34 -140.5 76t-48.5 115q0 75 49.5 125.5t146.5 50.5q93 0 162 -73.5t92 -213.5h1l-2 239q-26 19 -92 35t-161 16q-87 0 -163.5 -29.5t-123.5 -89.5t-47 -150zM160 1024l274 226h-82l272 -226h1l-208 340h-50l-208 -340h1z" />
    <glyph glyph-name="Scedilla" unicode="&#x15e;" horiz-adv-x="1084" 
d="M537 -14q121 0 227.5 50.5t173 143t66.5 218.5q0 145 -89 249.5t-251 171.5l-111 46q-136 56 -215.5 131.5t-79.5 195.5q0 116 74.5 189.5t219.5 73.5q94 0 164.5 -44.5t120.5 -127.5t82 -200h1l-14 300q-39 27 -126 51t-228 24q-111 0 -215 -38t-170.5 -119t-66.5 -211
q0 -145 86.5 -248.5t248.5 -168.5l115 -46q151 -61 223.5 -138t72.5 -193q0 -145 -89 -226t-220 -81q-80 0 -151 25.5t-129 77.5t-101 131.5t-67 188.5h-1l16 -332q62 -37 167.5 -65.5t265.5 -28.5zM531 -413q40 0 76 17t59.5 49t23.5 78q0 62 -43.5 101t-105.5 40
q-38 1 -68.5 -11.5t-43.5 -30.5v-3l116 159v2h-3l-140 -191v-1q16 12 56 12q36 0 61 -21.5t25 -57.5q0 -38 -27 -61t-67 -23q-29 0 -54 11t-40 29l-1 -1q20 -45 70 -71t106 -26z" />
    <glyph glyph-name="scedilla" unicode="&#x15f;" horiz-adv-x="802" 
d="M84 683q0 -97 63.5 -162t187.5 -111l71 -26q92 -34 137 -83.5t45 -128.5q0 -76 -54.5 -129.5t-145.5 -53.5q-61 0 -125 39t-114.5 113.5t-71.5 180.5h-1l13 -270q28 -20 73.5 -35t103.5 -23t122 -8q76 0 154 30.5t131 91.5t53 150q0 108 -62.5 181.5t-181.5 116.5l-71 26
q-92 34 -140.5 76t-48.5 115q0 75 49.5 125.5t146.5 50.5q93 0 162 -73.5t92 -213.5h1l-2 239q-26 19 -92 35t-161 16q-87 0 -163.5 -29.5t-123.5 -89.5t-47 -150zM379 -413q40 0 76 17t59.5 49t23.5 78q0 62 -43.5 101t-105.5 40q-38 1 -68.5 -11.5t-43.5 -30.5v-3l116 159
v2h-3l-140 -191v-1q16 12 56 12q36 0 61 -21.5t25 -57.5q0 -38 -27 -61t-67 -23q-29 0 -54 11t-40 29l-1 -1q20 -45 70 -71t106 -26z" />
    <glyph glyph-name="Scaron" unicode="&#x160;" horiz-adv-x="1084" 
d="M537 -14q121 0 227.5 50.5t173 143t66.5 218.5q0 145 -89 249.5t-251 171.5l-111 46q-136 56 -215.5 131.5t-79.5 195.5q0 116 74.5 189.5t219.5 73.5q94 0 164.5 -44.5t120.5 -127.5t82 -200h1l-14 300q-39 27 -126 51t-228 24q-111 0 -215 -38t-170.5 -119t-66.5 -211
q0 -145 86.5 -248.5t248.5 -168.5l115 -46q151 -61 223.5 -138t72.5 -193q0 -145 -89 -226t-220 -81q-80 0 -151 25.5t-129 77.5t-101 131.5t-67 188.5h-1l16 -332q62 -37 167.5 -65.5t265.5 -28.5zM768 1803l-257 -168h81l-256 168h-2l189 -257h56l189 257v0v0z" />
    <glyph glyph-name="scaron" unicode="&#x161;" horiz-adv-x="802" 
d="M84 683q0 -97 63.5 -162t187.5 -111l71 -26q92 -34 137 -83.5t45 -128.5q0 -76 -54.5 -129.5t-145.5 -53.5q-61 0 -125 39t-114.5 113.5t-71.5 180.5h-1l13 -270q28 -20 73.5 -35t103.5 -23t122 -8q76 0 154 30.5t131 91.5t53 150q0 108 -62.5 181.5t-181.5 116.5l-71 26
q-92 34 -140.5 76t-48.5 115q0 75 49.5 125.5t146.5 50.5q93 0 162 -73.5t92 -213.5h1l-2 239q-26 19 -92 35t-161 16q-87 0 -163.5 -29.5t-123.5 -89.5t-47 -150zM624 1408l-274 -226h82l-272 226h-1l208 -340h50l208 340h-1z" />
    <glyph glyph-name="Tcedilla" unicode="&#x162;" horiz-adv-x="1196" 
d="M585 -413q40 0 76 17t59.5 49t23.5 78q0 41 -20 72.5t-54 49.5t-75 19q-38 1 -68.5 -11.5t-43.5 -30.5v-3l116 173v2h-3l-140 -205v-1q16 12 56 12q36 0 61 -21.5t25 -57.5q0 -38 -27 -61t-67 -23q-29 0 -54 11.5t-40 28.5l-1 -1q20 -45 70 -71t106 -26zM1146 1444h-1096
l-18 -319h1q28 117 73 181.5t125 94t211 38.5l56 4v-1297q0 -48 -8.5 -76.5t-35 -44t-80.5 -24.5v-1h448v1q-53 9 -80 24.5t-35.5 44t-8.5 76.5v1297l56 -4q131 -9 211 -38.5t125.5 -94t72.5 -181.5h1z" />
    <glyph glyph-name="tcedilla" unicode="&#x163;" horiz-adv-x="546" 
d="M136 237q0 -87 28 -142.5t77.5 -82t115.5 -26.5q76 0 128.5 34t68.5 72v1q-17 -25 -45 -38.5t-61 -12.5q-55 0 -92.5 38t-37.5 123v716l223 -15v34l-223 -15v210h-1l-295 -228v-1h114v-667zM347 -413q40 0 76 17t59.5 49t23.5 78q0 62 -43.5 101t-105.5 40
q-38 1 -68.5 -11.5t-43.5 -30.5v-3l116 159v2h-3l-140 -191v-1q16 12 56 12q36 0 61 -21.5t25 -57.5q0 -38 -27 -61t-67 -23q-29 0 -54 11t-40 29l-1 -1q20 -45 70 -71t106 -26z" />
    <glyph glyph-name="Tcaron" unicode="&#x164;" horiz-adv-x="1196" 
d="M1146 1444h-1096l-18 -319h1q28 117 73 181.5t125 94t211 38.5l56 4v-1297q0 -48 -8.5 -76.5t-35 -44t-80.5 -24.5v-1h448v1q-53 9 -80 24.5t-35.5 44t-8.5 76.5v1297l56 -4q131 -9 211 -38.5t125.5 -94t72.5 -181.5h1zM822 1803l-257 -168h81l-256 168h-2l189 -257h56
l189 257v0v0z" />
    <glyph glyph-name="tcaron" unicode="&#x165;" horiz-adv-x="546" 
d="M136 237q0 -87 28 -142.5t77.5 -82t115.5 -26.5q76 0 128.5 34t68.5 72v1q-17 -25 -45 -38.5t-61 -12.5q-55 0 -92.5 38t-37.5 123v716l223 -15v34l-223 -15v210h-1l-295 -228v-1h114v-667zM459 1026l193 382h-152l-42 -382h1z" />
    <glyph glyph-name="Tstroke" unicode="&#x166;" horiz-adv-x="1196" 
d="M1146 1444h-1096l-18 -319h1q28 117 73 181.5t125 94t211 38.5l56 4v-1297q0 -48 -8.5 -76.5t-35 -44t-80.5 -24.5v-1h448v1q-53 9 -80 24.5t-35.5 44t-8.5 76.5v1297l56 -4q131 -9 211 -38.5t125.5 -94t72.5 -181.5h1zM244 736h708v8h-708v-8z" />
    <glyph glyph-name="tstroke" unicode="&#x167;" horiz-adv-x="546" 
d="M136 237q0 -86 28 -142t78 -82.5t115 -26.5q76 0 128.5 34t68.5 72v1q-34 -51 -106 -51q-55 0 -92.5 38t-37.5 123v716l223 -15v34l-223 -15v210h-1l-295 -228v-1h114v-667zM29 547h525v8h-525v-8z" />
    <glyph glyph-name="Utilde" unicode="&#x168;" horiz-adv-x="1360" 
d="M136 1322v-720q0 -174 46 -292.5t125 -189.5t179.5 -102.5t208.5 -31.5q179 0 293.5 73t170.5 201.5t59 293.5l10 594q2 112 12 172.5t37 87t79 35.5v1h-298v-1q59 -11 89 -37t41 -86t13 -172l10 -594q3 -165 -52.5 -288t-156 -191.5t-232.5 -68.5q-129 0 -226.5 58.5
t-152.5 186t-55 332.5v731q0 44 9.5 68t34.5 37.5t72 23.5v1h-428v-1q45 -10 69.5 -22.5t33.5 -35t9 -63.5zM853 1543q60 0 96 45t29 166h-1q-5 -70 -23.5 -94.5t-46.5 -24.5q-22 0 -40 8t-47 27l-29 19q-38 26 -68 38.5t-61 12.5q-60 0 -96 -44.5t-29 -166.5h1
q5 71 23.5 95t46.5 24q22 0 40 -7.5t47 -27.5l29 -19q38 -25 68 -38t61 -13z" />
    <glyph glyph-name="utilde" unicode="&#x169;" horiz-adv-x="1054" 
d="M304 948l-282 -30v-1l43 -17q39 -16 48 -29t9 -51v-550q0 -152 88 -218t221 -66q104 0 186.5 51.5t122.5 136.5v-180l282 30v1l-43 17q-39 16 -48 29.5t-9 50.5v826l-282 -30v-1l43 -17q39 -16 48 -29t9 -51v-645q-35 -60 -90.5 -92.5t-128.5 -32.5q-106 0 -161.5 62
t-55.5 192v644zM622 1102q62 0 98.5 47t30.5 177h-1q-6 -76 -24.5 -102.5t-47.5 -26.5q-22 0 -41 8.5t-49 29.5l-30 21q-40 28 -71 41.5t-63 13.5q-61 0 -98 -47t-31 -177h1q6 77 25 103t47 26q23 0 41.5 -8.5t48.5 -29.5l30 -21q40 -28 71.5 -41.5t62.5 -13.5z" />
    <glyph glyph-name="Umacron" unicode="&#x16a;" horiz-adv-x="1360" 
d="M136 1322v-720q0 -174 46 -292.5t125 -189.5t179.5 -102.5t208.5 -31.5q179 0 293.5 73t170.5 201.5t59 293.5l10 594q2 112 12 172.5t37 87t79 35.5v1h-298v-1q59 -11 89 -37t41 -86t13 -172l10 -594q3 -165 -52.5 -288t-156 -191.5t-232.5 -68.5q-129 0 -226.5 58.5
t-152.5 186t-55 332.5v731q0 44 9.5 68t34.5 37.5t72 23.5v1h-428v-1q45 -10 69.5 -22.5t33.5 -35t9 -63.5zM552 1582h413v85h-413v-85z" />
    <glyph glyph-name="umacron" unicode="&#x16b;" horiz-adv-x="1054" 
d="M304 948l-282 -30v-1l43 -17q39 -16 48 -29t9 -51v-550q0 -152 88 -218t221 -66q104 0 186.5 51.5t122.5 136.5v-180l282 30v1l-43 17q-39 16 -48 29.5t-9 50.5v826l-282 -30v-1l43 -17q39 -16 48 -29t9 -51v-645q-35 -60 -90.5 -92.5t-128.5 -32.5q-106 0 -161.5 62
t-55.5 192v644zM294 1142h458v106h-458v-106z" />
    <glyph glyph-name="Ubreve" unicode="&#x16c;" horiz-adv-x="1360" 
d="M136 1322v-720q0 -174 46 -292.5t125 -189.5t179.5 -102.5t208.5 -31.5q179 0 293.5 73t170.5 201.5t59 293.5l10 594q2 112 12 172.5t37 87t79 35.5v1h-298v-1q59 -11 89 -37t41 -86t13 -172l10 -594q3 -165 -52.5 -288t-156 -191.5t-232.5 -68.5q-129 0 -226.5 58.5
t-152.5 186t-55 332.5v731q0 44 9.5 68t34.5 37.5t72 23.5v1h-428v-1q45 -10 69.5 -22.5t33.5 -35t9 -63.5zM758 1580q64 0 109.5 31t70 81.5t24.5 106.5q0 23 -3 44h-1v0v0q0 -50 -27.5 -86.5t-73 -55.5t-100.5 -19t-100.5 19t-73 55.5t-27.5 86.5v0v0h-1q-3 -21 -3 -44
q0 -56 25 -106.5t71 -81.5t110 -31z" />
    <glyph glyph-name="ubreve" unicode="&#x16d;" horiz-adv-x="1054" 
d="M304 948l-282 -30v-1l43 -17q39 -16 48 -29t9 -51v-550q0 -152 88 -218t221 -66q104 0 186.5 51.5t122.5 136.5v-180l282 30v1l-43 17q-39 16 -48 29.5t-9 50.5v826l-282 -30v-1l43 -17q39 -16 48 -29t9 -51v-645q-35 -60 -90.5 -92.5t-128.5 -32.5q-106 0 -161.5 62
t-55.5 192v644zM523 1090q74 0 125.5 35.5t78.5 92t27 119.5q0 12 -0.5 24.5t-2.5 24.5h-1v0v0q0 -56 -31 -96t-82.5 -61.5t-113.5 -21.5t-113.5 21.5t-82.5 61.5t-31 96v0v0h-1q-1 -12 -2 -24.5t-1 -24.5q0 -63 27 -119.5t79 -92t125 -35.5z" />
    <glyph glyph-name="Uring" unicode="&#x16e;" horiz-adv-x="1360" 
d="M136 1322v-720q0 -174 46 -292.5t125 -189.5t179.5 -102.5t208.5 -31.5q179 0 293.5 73t170.5 201.5t59 293.5l10 594q2 112 12 172.5t37 87t79 35.5v1h-298v-1q59 -11 89 -37t41 -86t13 -172l10 -594q3 -165 -52.5 -288t-156 -191.5t-232.5 -68.5q-129 0 -226.5 58.5
t-152.5 186t-55 332.5v731q0 44 9.5 68t34.5 37.5t72 23.5v1h-428v-1q45 -10 69.5 -22.5t33.5 -35t9 -63.5zM566 1692q0 -67 61 -99.5t131 -32.5q71 0 131.5 32.5t60.5 99.5q0 65 -60.5 98.5t-131.5 33.5t-131.5 -33.5t-60.5 -98.5zM683 1692q0 55 20 92.5t55 37.5t55 -38
t20 -92q0 -58 -20 -94t-55 -36t-55 36t-20 94z" />
    <glyph glyph-name="uring" unicode="&#x16f;" horiz-adv-x="1054" 
d="M304 948l-282 -30v-1l43 -17q39 -16 48 -29t9 -51v-550q0 -152 88 -218t221 -66q104 0 186.5 51.5t122.5 136.5v-180l282 30v1l-43 17q-39 16 -48 29.5t-9 50.5v826l-282 -30v-1l43 -17q39 -16 48 -29t9 -51v-645q-35 -60 -90.5 -92.5t-128.5 -32.5q-106 0 -161.5 62
t-55.5 192v644zM310 1213q0 -49 31.5 -81.5t80.5 -48.5t101 -16t101 16t80.5 48.5t31.5 82.5q0 72 -67 109.5t-146 37.5t-146 -37.5t-67 -110.5zM440 1213q0 61 22 103t61 42t61 -42t22 -102q0 -65 -22 -104.5t-61 -39.5t-61 39.5t-22 103.5z" />
    <glyph glyph-name="Uhungarumlaut" unicode="&#x170;" horiz-adv-x="1360" 
d="M136 1322v-720q0 -174 46 -292.5t125 -189.5t179.5 -102.5t208.5 -31.5q179 0 293.5 73t170.5 201.5t59 293.5l10 594q2 112 12 172.5t37 87t79 35.5v1h-298v-1q59 -11 89 -37t41 -86t13 -172l10 -594q3 -165 -52.5 -288t-156 -191.5t-232.5 -68.5q-129 0 -226.5 58.5
t-152.5 186t-55 332.5v731q0 44 9.5 68t34.5 37.5t72 23.5v1h-428v-1q45 -10 69.5 -22.5t33.5 -35t9 -63.5zM684 1770l-73 -257h2l241 256v2zM964 1770l-118 -257h2l295 256v2z" />
    <glyph glyph-name="uhungarumlaut" unicode="&#x171;" horiz-adv-x="1054" 
d="M304 948l-282 -30v-1l43 -17q39 -16 48 -29t9 -51v-550q0 -152 88 -218t221 -66q104 0 186.5 51.5t122.5 136.5v-180l282 30v1l-43 17q-39 16 -48 29.5t-9 50.5v826l-282 -30v-1l43 -17q39 -16 48 -29t9 -51v-645q-35 -60 -90.5 -92.5t-128.5 -32.5q-106 0 -161.5 62
t-55.5 192v644zM450 1364l-91 -340h1l262 338v2h-172zM752 1364l-137 -340h1l316 338v2h-180z" />
    <glyph glyph-name="Uogonek" unicode="&#x172;" horiz-adv-x="1360" 
d="M136 1322v-720q0 -174 46 -292.5t125 -189.5t179.5 -102.5t208.5 -31.5q179 0 293.5 73t170.5 201.5t59 293.5l10 594q2 112 12 172.5t37 87t79 35.5v1h-298v-1q59 -11 89 -37t41 -86t13 -172l10 -594q3 -164 -52.5 -287.5t-155.5 -192t-233 -68.5q-129 0 -227 58.5
t-152.5 186t-54.5 332.5v731q0 44 9.5 68t34.5 37.5t72 23.5v1h-428v-1q45 -10 69.5 -22.5t33.5 -35t9 -63.5zM737 -468q56 0 100 31.5t60 83.5l-1 1q-11 -18 -30 -30.5t-44 -12.5q-49 0 -85 58t-36 137q0 122 43 188h-1q-80 -66 -124 -139t-44 -155q0 -70 45.5 -116
t116.5 -46z" />
    <glyph glyph-name="uogonek" unicode="&#x173;" horiz-adv-x="1054" 
d="M304 948l-282 -30v-1l43 -17q39 -16 48 -29t9 -51v-550q0 -152 88 -218t221 -66q104 0 186.5 51.5t122.5 136.5v-180l282 30v1l-43 17q-39 16 -48 29.5t-9 50.5v826l-282 -30v-1l43 -17q39 -16 48 -29t9 -51v-645q-35 -60 -90.5 -92.5t-128.5 -32.5q-106 0 -161.5 62
t-55.5 192v644zM858 -468q67 0 111 27.5t67 72.5l-1 1q-10 -16 -33.5 -23.5t-46.5 -7.5q-41 0 -71.5 34.5t-30.5 99.5q0 75 38 147t131 141h-1l-66 -37q-131 -73 -188.5 -147t-57.5 -152q0 -68 43 -112t106 -44z" />
    <glyph glyph-name="Wcircumflex" unicode="&#x174;" horiz-adv-x="2001" 
d="M156 1231l402 -1231h34l429 1330h-33l416 -1330h34l381 1147q39 116 67.5 177t58.5 86.5t72 32.5v1h-306v-1q67 -9 93.5 -37t21 -88t-37.5 -166l-266 -890v0l-284 964q-25 86 -29 130t16.5 62t67.5 25v1h-433v-1q60 -12 88.5 -32.5t27.5 -69.5t-30 -146l-273 -933v0
l-302 969q-22 71 -22 115.5t24.5 67.5t77.5 29v1h-467v-1q34 -5 63 -23t55.5 -61.5t53.5 -127.5zM841 1513l257 168h-81l256 -168h2l-189 257h-56l-189 -257v0v0z" />
    <glyph glyph-name="wcircumflex" unicode="&#x175;" horiz-adv-x="1475" 
d="M133 784l270 -784h32l313 834h-17l299 -834h32l264 721q30 82 54 126t50 63t61 27v1h-261v-1q52 -11 75.5 -30t21.5 -61t-28 -121l-169 -529v1l-184 541q-25 74 -27.5 113t20.5 57t76 29v1h-400v-1q53 -11 76 -29.5t20 -57.5t-27 -112l-179 -542v1l-170 541
q-23 74 -26 113t19.5 57t75.5 29v1h-420v-1q36 -7 62 -20.5t46.5 -43.5t40.5 -89zM593 1024l274 226h-82l272 -226h1l-208 340h-50l-208 -340h1z" />
    <glyph glyph-name="Ycircumflex" unicode="&#x176;" horiz-adv-x="1242" 
d="M211 1220l310 -523v-551q0 -48 -8.5 -76.5t-35 -44t-80.5 -24.5v-1h448v1q-53 9 -80 24.5t-35.5 44t-8.5 76.5v565l263 436q70 116 113 177t76.5 86t72.5 33v1h-302v-1q63 -9 87 -36t6.5 -86.5t-77.5 -168.5l-239 -434v0l-295 506q-67 114 -50 160t87 59v1h-467v-1
q33 -5 60.5 -21t63 -61.5t91.5 -140.5zM492 1513l257 168h-81l256 -168h2l-189 257h-56l-189 -257v0v0z" />
    <glyph glyph-name="ycircumflex" unicode="&#x177;" horiz-adv-x="890" 
d="M130 784l322 -788q-32 -79 -82 -167.5t-106 -165t-108 -122.5v-1h146l152 456l87 223l198 502q32 82 56.5 125.5t50.5 63t61 27.5v1h-261v-1q52 -11 75 -30t20.5 -61t-29.5 -121l-174 -504v0l-195 517q-41 110 -27 146.5t93 52.5v1h-425v-1q36 -7 59.5 -20.5t43.5 -44
t43 -88.5zM284 1024l274 226h-82l272 -226h1l-208 340h-50l-208 -340h1z" />
    <glyph glyph-name="Ydieresis" unicode="&#x178;" horiz-adv-x="1242" 
d="M211 1220l310 -523v-551q0 -48 -8.5 -76.5t-35 -44t-80.5 -24.5v-1h448v1q-53 9 -80 24.5t-35.5 44t-8.5 76.5v565l263 436q70 116 113 177t76.5 86t72.5 33v1h-302v-1q63 -9 87 -36t6.5 -86.5t-77.5 -168.5l-239 -434v0l-295 506q-67 114 -50 160t87 59v1h-467v-1
q33 -5 60.5 -21t63 -61.5t91.5 -140.5zM564 1561q34 0 57 24t23 57q0 32 -23 56t-57 24q-33 0 -56 -24t-23 -56q0 -33 23 -57t56 -24zM836 1561q33 0 56 24t23 57q0 32 -23 56t-56 24q-34 0 -57 -24t-23 -56q0 -33 23 -57t57 -24z" />
    <glyph glyph-name="Zacute" unicode="&#x179;" horiz-adv-x="1173" 
d="M1099 0l22 354h-1q-24 -100 -57.5 -164t-91.5 -101t-154 -54t-245 -23l-294 -11l824 1441v2h-983l-26 -319h1q24 87 58 144.5t96 92t168 51.5t274 23l192 7l-822 -1441v-2h1039zM582 1512l293 255v2h-186l-109 -257h2z" />
    <glyph glyph-name="zacute" unicode="&#x17a;" horiz-adv-x="799" 
d="M64 938l-11 -255h1q18 88 53.5 139.5t107.5 75.5t196 31l144 8v0l-515 -936v-1h711l8 298h-1q-18 -113 -51.5 -173t-99 -85t-178.5 -30l-192 -9v0l516 936v1h-689zM373 1024l308 338v2h-186l-123 -340h1z" />
    <glyph glyph-name="Zdotaccent" unicode="&#x17b;" horiz-adv-x="1173" 
d="M1099 0l22 354h-1q-24 -100 -57.5 -164t-91.5 -101t-154 -54t-245 -23l-294 -11l824 1441v2h-983l-26 -319h1q24 87 58 144.5t96 92t168 51.5t274 23l192 7l-822 -1441v-2h1039zM612 1559q35 0 59 24.5t24 57.5t-24 57.5t-59 24.5q-34 0 -58.5 -24.5t-24.5 -57.5
t24.5 -57.5t58.5 -24.5z" />
    <glyph glyph-name="zdotaccent" unicode="&#x17c;" horiz-adv-x="799" 
d="M64 938l-11 -255h1q18 88 53.5 139.5t107.5 75.5t196 31l144 8v0l-515 -936v-1h711l8 298h-1q-18 -113 -51.5 -173t-99 -85t-178.5 -30l-192 -9v0l516 936v1h-689zM407 1106q41 0 69.5 28.5t28.5 67.5t-28.5 67.5t-69.5 28.5q-40 0 -69 -28.5t-29 -67.5t29 -67.5
t69 -28.5z" />
    <glyph glyph-name="Zcaron" unicode="&#x17d;" horiz-adv-x="1173" 
d="M1099 0l22 354h-1q-24 -100 -57.5 -164t-91.5 -101t-154 -54t-245 -23l-294 -11l824 1441v2h-983l-26 -319h1q24 87 58 144.5t96 92t168 51.5t274 23l192 7l-822 -1441v-2h1039zM836 1803l-257 -168h81l-256 168h-2l189 -257h56l189 257v0v0z" />
    <glyph glyph-name="zcaron" unicode="&#x17e;" horiz-adv-x="799" 
d="M64 938l-11 -255h1q18 88 53.5 139.5t107.5 75.5t196 31l144 8v0l-515 -936v-1h711l8 298h-1q-18 -113 -51.5 -173t-99 -85t-178.5 -30l-192 -9v0l516 936v1h-689zM639 1408l-274 -226h82l-272 226h-1l208 -340h50l208 340h-1z" />
    <glyph glyph-name="Schwa" unicode="&#x18f;" horiz-adv-x="1447" 
d="M666 -14q228 0 382 100.5t232.5 272t78.5 383.5q0 177 -56 311.5t-153.5 225t-224 136.5t-268.5 46q-209 0 -322 -28.5t-162 -65.5l-16 -332h1q19 94 60.5 172t104.5 134t146.5 86.5t187.5 30.5q146 0 253.5 -85.5t166 -242.5t58.5 -371q0 -132 -21.5 -267.5
t-73.5 -249.5t-143 -183.5t-231 -69.5q-116 0 -191 50t-117 133t-58.5 182.5t-16.5 199.5q0 23 1 47.5t3 43.5l-24 -6l948 9v1l-1143 1q-1 -15 -1.5 -30t-0.5 -29q0 -185 73 -321t207.5 -210t319.5 -74z" />
    <glyph glyph-name="florin" unicode="&#x192;" horiz-adv-x="1048" 
d="M213 820v-6h752v6h-752zM333 285q-34 -155 -85 -220.5t-123 -65.5q-56 0 -89.5 33t-33.5 83v0q0 -37 24.5 -59.5t52.5 -22.5q33 0 57.5 22.5t24.5 59.5q0 34 -23.5 57.5t-57.5 23.5q-31 0 -55 -23t-24 -58q0 -56 39.5 -92.5t119.5 -36.5q74 0 150 35.5t140 129t102 265.5
l164 742q35 155 85.5 220.5t122.5 65.5q56 0 89.5 -33t33.5 -83v0q0 37 -24 59.5t-53 22.5q-33 0 -57.5 -22.5t-24.5 -59.5q0 -34 23.5 -57.5t57.5 -23.5q32 0 55.5 23.5t23.5 57.5q0 56 -39.5 92.5t-119.5 36.5q-74 0 -150 -35.5t-140 -128.5t-102 -266z" />
    <glyph glyph-name="Ohorn" unicode="&#x1a0;" horiz-adv-x="1600" 
d="M88 723q0 -171 59.5 -307.5t161 -232t228 -146.5t261.5 -51q158 0 286 57.5t220.5 159.5t142 235.5t49.5 284.5q0 189 -72.5 335.5t-193 242.5t-264.5 134v-1q29 -5 72 -11t89 -6q85 0 150 19.5t102 57t37 91.5q0 68 -48.5 116t-119.5 64h-2q15 -16 26 -48.5t11 -73.5
q0 -89 -70 -149t-208 -60q-49 0 -101.5 12t-117.5 12q-158 0 -286.5 -57.5t-220.5 -158.5t-141.5 -234t-49.5 -285zM312 733q0 211 48 374t152.5 255.5t273.5 92.5q111 0 201 -54t153.5 -152.5t97.5 -234.5t34 -301q0 -211 -48 -374.5t-152.5 -256.5t-273.5 -93
q-112 0 -201.5 54t-153 153.5t-97.5 235.5t-34 301z" />
    <glyph glyph-name="ohorn" unicode="&#x1a1;" horiz-adv-x="1154" 
d="M553 -14q130 0 238.5 61.5t173.5 170.5t65 251q0 127 -44.5 225t-120.5 161.5t-173 84.5v-1q23 -4 59.5 -8.5t79.5 -4.5q131 0 210 37t79 110q0 66 -47 110.5t-117 61.5h-2q15 -16 26 -48t11 -69q0 -82 -67 -134.5t-196 -52.5q-35 0 -77 5.5t-98 5.5q-130 0 -238.5 -61.5
t-173.5 -170t-65 -251.5q0 -150 65 -258.5t173.5 -166.5t238.5 -58zM553 -11q-90 0 -150.5 63.5t-91.5 173t-31 247.5q0 139 31 246t91.5 168.5t150.5 61.5t150.5 -63.5t91.5 -173t31 -247.5t-31 -245.5t-91.5 -169t-150.5 -61.5z" />
    <glyph glyph-name="Uhorn" unicode="&#x1af;" horiz-adv-x="1474" 
d="M136 602q0 -174 46 -292.5t125 -189.5t179.5 -102.5t208.5 -31.5q179 0 293.5 73t170.5 201.5t59 293.5l15 896h-4q17 -3 35 -4.5t37 -1.5q110 0 174.5 38t64.5 107q0 64 -47 112t-117 64h-2q15 -16 26 -48t11 -72q0 -57 -31.5 -102.5t-94 -72t-156.5 -26.5h-71v-1
q59 -11 89 -37t41 -86t13 -172l10 -594q3 -164 -52.5 -287.5t-155.5 -192t-233 -68.5q-129 0 -227 58.5t-152.5 186t-54.5 332.5v731q0 44 9.5 68t34.5 37.5t72 23.5v1h-428v-1q45 -10 69.5 -22.5t33.5 -35t9 -63.5v-720z" />
    <glyph glyph-name="uhorn" unicode="&#x1b0;" horiz-adv-x="1172" 
d="M304 948l-284 -30v-1l43 -17q40 -16 49.5 -29t9.5 -51v-550q0 -152 88 -218t221 -66q104 0 186.5 51.5t122.5 136.5v-180l290 30v1l-49 17q-40 14 -49.5 28.5t-9.5 51.5v826h-21q14 -5 32 -6.5t40 -1.5q65 0 116 31.5t51 93.5q0 66 -48.5 116t-115.5 64h-2
q16 -16 26.5 -48.5t10.5 -68.5q0 -53 -32 -96t-99.5 -71t-172.5 -37l-69 -6v-1l43 -17q40 -16 49.5 -29t9.5 -51v-645q-35 -60 -90.5 -92.5t-128.5 -32.5q-106 0 -161.5 62t-55.5 192v644z" />
    <glyph glyph-name="uni01C4" unicode="&#x1c4;" horiz-adv-x="2613" 
d="M1360 749q0 229 -114 383.5t-320 233t-484 78.5h-396v-1q47 -10 72 -23.5t34.5 -37.5t9.5 -68v-1184q0 -43 -9.5 -67.5t-34.5 -37.5t-72 -24v-1h396q187 0 353 45t293 137t199.5 233.5t72.5 333.5zM1136 727q0 -223 -81.5 -382.5t-239.5 -247t-389 -94.5l-64 -2v1442
l64 -2q235 -7 393 -96t237.5 -246.5t79.5 -371.5zM2539 0l22 354h-1q-24 -100 -57.5 -164t-91.5 -101t-154 -54t-245 -23l-294 -11l824 1441v2h-983l-26 -319h1q24 87 58 144.5t96 92t168 51.5t274 23l192 7l-822 -1441v-2h1039zM2276 1803l-257 -168h81l-256 168h-2
l189 -257h56l189 257v0v0z" />
    <glyph glyph-name="uni01C5" unicode="&#x1c5;" horiz-adv-x="2239" 
d="M1360 749q0 229 -114 383.5t-320 233t-484 78.5h-396v-1q47 -10 72 -23.5t34.5 -37.5t9.5 -68v-1184q0 -43 -9.5 -67.5t-34.5 -37.5t-72 -24v-1h396q187 0 353 45t293 137t199.5 233.5t72.5 333.5zM1136 727q0 -223 -81.5 -382.5t-239.5 -247t-389 -94.5l-64 -2v1442
l64 -2q235 -7 393 -96t237.5 -246.5t79.5 -371.5zM1504 938l-11 -255h1q18 88 53.5 139.5t107.5 75.5t196 31l144 8v0l-515 -936v-1h711l8 298h-1q-18 -113 -51.5 -173t-99 -85t-178.5 -30l-192 -9v0l516 936v1h-689zM2079 1408l-274 -226h82l-272 226h-1l208 -340h50
l208 340h-1z" />
    <glyph glyph-name="uni01C6" unicode="&#x1c6;" horiz-adv-x="1897" 
d="M76 464q0 -154 57 -261t147.5 -162t192.5 -55q101 0 184 51t123 137v-180l282 30v1l-43 17q-39 16 -48 29.5t-9 50.5v1352l-282 -30v-1l43 -17q39 -16 48 -29t9 -51v-533q-26 64 -87.5 101.5t-156.5 37.5q-126 0 -230.5 -60.5t-167 -170t-62.5 -257.5zM266 492
q0 129 38 229t108 157.5t166 57.5q62 0 120 -35t82 -91v-635q-37 -61 -90.5 -93t-133.5 -32q-82 0 -147.5 55.5t-104 155t-38.5 231.5zM1162 938l-11 -255h1q18 88 53.5 139.5t107.5 75.5t196 31l144 8v0l-515 -936v-1h711l8 298h-1q-18 -113 -51.5 -173t-99 -85t-178.5 -30
l-192 -9v0l516 936v1h-689zM1737 1408l-274 -226h82l-272 226h-1l208 -340h50l208 340h-1z" />
    <glyph glyph-name="uni01C7" unicode="&#x1c7;" horiz-adv-x="1532" 
d="M974 0l22 354h-1q-22 -97 -54 -161t-85 -102.5t-136.5 -57.5t-208.5 -25l-149 -7v1297q0 49 8.5 77t35.5 43.5t80 24.5v1h-440v-1q47 -10 72 -23.5t34.5 -37.5t9.5 -68v-1184q0 -43 -9.5 -67.5t-34.5 -37.5t-72 -24v-1h928zM1378 232v1082q0 44 9.5 68t34.5 37.5t72 23.5
v1h-432v-1q47 -10 72 -23.5t34.5 -37.5t9.5 -68v-1052q0 -176 -24.5 -300t-84 -211.5t-164.5 -155.5v-1q111 50 198.5 108t148.5 132t93.5 171.5t32.5 226.5z" />
    <glyph glyph-name="uni01C8" unicode="&#x1c8;" horiz-adv-x="1458" 
d="M974 0l22 354h-1q-22 -97 -54 -161t-85 -102.5t-136.5 -57.5t-208.5 -25l-149 -7v1297q0 49 8.5 77t35.5 43.5t80 24.5v1h-440v-1q47 -10 72 -23.5t34.5 -37.5t9.5 -68v-1184q0 -43 -9.5 -67.5t-34.5 -37.5t-72 -24v-1h928zM1336 948l-282 -30v-1l43 -17q39 -16 48 -29
t9 -51v-698q0 -117 -10 -205t-33.5 -155.5t-63.5 -122.5t-101 -108v-1l58 41q87 62 150 113t103.5 109.5t59.5 140t19 203.5v811zM1229 1101.29q43.0498 0 72.9746 29.9248q29.9238 29.9248 29.9238 70.874q0 40.9502 -29.9238 70.875q-29.9248 29.9238 -72.9746 29.9238
q-42 0 -72.4492 -29.9238q-30.4492 -29.9248 -30.4492 -70.875q0 -40.9492 30.4492 -70.874t72.4492 -29.9248z" />
    <glyph glyph-name="uni01C9" unicode="&#x1c9;" horiz-adv-x="888" 
d="M318 1474l-282 -30v-1l43 -17q39 -16 48 -29t9 -51v-1232q0 -57 -19 -78.5t-81 -34.5v-1h382v1q-61 13 -80.5 34.5t-19.5 78.5v1360zM766 948l-282 -30v-1l43 -17q39 -16 48 -29t9 -51v-698q0 -117 -10 -205t-33.5 -155.5t-63.5 -122.5t-101 -108v-1l58 41q87 62 150 113
t103.5 109.5t59.5 140t19 203.5v811zM659 1101.29q43.0498 0 72.9746 29.9248q29.9238 29.9248 29.9238 70.874q0 40.9502 -29.9238 70.875q-29.9248 29.9238 -72.9746 29.9238q-42 0 -72.4492 -29.9238q-30.4492 -29.9248 -30.4492 -70.875q0 -40.9492 30.4492 -70.874
t72.4492 -29.9248z" />
    <glyph glyph-name="uni01CA" unicode="&#x1ca;" horiz-adv-x="1846" 
d="M358 1444h-306v-1q36 -14 60.5 -34t37 -53t11.5 -89l-13 -971q-1 -111 -11.5 -172t-39.5 -87.5t-87 -35.5v-1h306v1q-57 9 -86.5 35t-39.5 87t-12 173l-15 1086h-17l991 -1382h47l10 1148q1 112 11.5 172.5t40 87.5t86.5 35v1h-306v-1q58 -8 86.5 -34.5t39 -87.5
t12.5 -173l18 -857v0zM1692 232v1082q0 44 9.5 68t34.5 37.5t72 23.5v1h-432v-1q47 -10 72 -23.5t34.5 -37.5t9.5 -68v-1052q0 -176 -24.5 -300t-84 -211.5t-164.5 -155.5v-1q111 50 198.5 108t148.5 132t93.5 171.5t32.5 226.5z" />
    <glyph glyph-name="uni01CB" unicode="&#x1cb;" horiz-adv-x="1772" 
d="M358 1444h-306v-1q36 -14 60.5 -34t37 -53t11.5 -89l-13 -971q-1 -111 -11.5 -172t-39.5 -87.5t-87 -35.5v-1h306v1q-57 9 -86.5 35t-39.5 87t-12 173l-15 1086h-17l991 -1382h47l10 1148q1 112 11.5 172.5t40 87.5t86.5 35v1h-306v-1q58 -8 86.5 -34.5t39 -87.5
t12.5 -173l18 -857v0zM1650 948l-282 -30v-1l43 -17q39 -16 48 -29t9 -51v-698q0 -117 -10 -205t-33.5 -155.5t-63.5 -122.5t-101 -108v-1l58 41q87 62 150 113t103.5 109.5t59.5 140t19 203.5v811zM1543 1101.29q43.0498 0 72.9746 29.9248q29.9238 29.9248 29.9238 70.874
q0 40.9502 -29.9238 70.875q-29.9248 29.9238 -72.9746 29.9238q-42 0 -72.4492 -29.9238q-30.4492 -29.9248 -30.4492 -70.875q0 -40.9492 30.4492 -70.874t72.4492 -29.9248z" />
    <glyph glyph-name="uni01CC" unicode="&#x1cc;" horiz-adv-x="1502" 
d="M318 948l-282 -30v-1l43 -17q39 -16 48 -29t9 -51v-706q0 -57 -19 -78.5t-81 -34.5v-1h378v1q-65 11 -80.5 31.5t-15.5 73.5v657q35 61 91.5 93t129.5 32q107 0 163 -61.5t56 -192.5v-528q0 -53 -16 -73.5t-80 -31.5v-1h378v1q-66 14 -83 35t-17 78v554q0 152 -88.5 218
t-222.5 66q-105 0 -187.5 -51.5t-123.5 -136.5v184zM1380 948l-282 -30v-1l43 -17q39 -16 48 -29t9 -51v-698q0 -117 -10 -205t-33.5 -155.5t-63.5 -122.5t-101 -108v-1l58 41q87 62 150 113t103.5 109.5t59.5 140t19 203.5v811zM1273 1101.29q43.0498 0 72.9746 29.9248
q29.9238 29.9248 29.9238 70.874q0 40.9502 -29.9238 70.875q-29.9248 29.9238 -72.9746 29.9238q-42 0 -72.4492 -29.9238q-30.4492 -29.9248 -30.4492 -70.875q0 -40.9492 30.4492 -70.874t72.4492 -29.9248z" />
    <glyph glyph-name="Acaron" unicode="&#x1cd;" horiz-adv-x="1244" 
d="M1086 213l-438 1231h-34l-421 -1147q-42 -116 -73 -177t-62 -86t-74 -33v-1h306v1q-66 10 -93 37.5t-20 87.5t43 166l308 908v0l346 -987q25 -70 24 -114.5t-27 -68t-78 -29.5v-1h467v1q-41 8 -70 28.5t-53 64t-51 119.5zM290 532h570l-1 12h-565zM854 1803l-257 -168h81
l-256 168h-2l189 -257h56l189 257v0v0z" />
    <glyph glyph-name="acaron" unicode="&#x1ce;" horiz-adv-x="930" 
d="M339 -14q70 0 128 18.5t99.5 51.5t59.5 77q8 -46 31.5 -78t60.5 -48.5t84 -16.5q44 0 80.5 9.5t57.5 24.5v1q-17 -5 -34 -5q-47 0 -75.5 31.5t-28.5 97.5v519q0 150 -101 217t-256 67q-101 0 -177.5 -27.5t-119 -73t-42.5 -100.5q0 -39 27 -65.5t63 -26.5q39 0 65.5 27
t26.5 65q0 43 -27.5 68.5t-65.5 25.5q-31 0 -58.5 -26t-29.5 -68v0q0 52 37 93.5t98 65.5t132 24q116 0 184 -65t68 -213v-523q-30 -49 -73 -70t-104 -21q-76 0 -132 52.5t-56 149.5q0 66 24.5 116.5t88 88t179.5 62.5l111 25v2l-214 -46q-135 -29 -217.5 -68.5
t-119.5 -91.5t-37 -119q0 -106 75.5 -166.5t187.5 -60.5zM668 1408l-274 -226h82l-272 226h-1l208 -340h50l208 340h-1z" />
    <glyph glyph-name="Icaron" unicode="&#x1cf;" horiz-adv-x="540" 
d="M370 130v1184q0 44 9.5 68t34.5 37.5t72 23.5v1h-432v-1q47 -10 72 -23.5t34.5 -37.5t9.5 -68v-1184q0 -43 -9.5 -67.5t-34.5 -37.5t-72 -24v-1h432v1q-47 11 -72 24t-34.5 37.5t-9.5 67.5zM494 1803l-257 -168h81l-256 168h-2l189 -257h56l189 257v0v0z" />
    <glyph glyph-name="icaron" unicode="&#x1d0;" horiz-adv-x="450" 
d="M318 948l-282 -30v-1l43 -17q39 -16 48 -29t9 -51v-706q0 -57 -19 -78.5t-81 -34.5v-1h382v1q-61 13 -80.5 34.5t-19.5 78.5v834zM419.806 1408l-246.606 -226h73.8018l-244.807 226h-0.900391l187.205 -340h45.002l187.205 340h-0.900391z" />
    <glyph glyph-name="Ocaron" unicode="&#x1d1;" horiz-adv-x="1584" 
d="M88 723q0 -171 59.5 -307.5t161 -232t228 -146.5t261.5 -51q158 0 286 57.5t220.5 159.5t142 235.5t49.5 284.5q0 171 -59.5 307t-161 231.5t-228.5 146t-261 50.5q-158 0 -286.5 -57.5t-220.5 -158.5t-141.5 -234t-49.5 -285zM312 733q0 211 48 374t152.5 255.5
t273.5 92.5q111 0 201 -54t153.5 -152.5t97.5 -234.5t34 -301q0 -211 -48 -374.5t-152.5 -256.5t-273.5 -93q-112 0 -201.5 54t-153 153.5t-97.5 235.5t-34 301zM1014 1803l-257 -168h81l-256 168h-2l189 -257h56l189 257v0v0z" />
    <glyph glyph-name="ocaron" unicode="&#x1d2;" horiz-adv-x="1106" 
d="M553 -14q130 0 238.5 61.5t173.5 170.5t65 251q0 150 -65 258.5t-173.5 166.5t-238.5 58t-238.5 -61.5t-173.5 -170t-65 -251.5q0 -150 65 -258.5t173.5 -166.5t238.5 -58zM553 -11q-84 0 -145 62.5t-94.5 172t-33.5 249.5q0 141 33.5 248t94.5 167.5t145 60.5
t145.5 -62.5t94.5 -172t33 -249.5t-33 -247.5t-94.5 -168t-145.5 -60.5zM786 1408l-274 -226h82l-272 226h-1l208 -340h50l208 340h-1z" />
    <glyph glyph-name="Ucaron" unicode="&#x1d3;" horiz-adv-x="1360" 
d="M136 1322v-720q0 -174 46 -292.5t125 -189.5t179.5 -102.5t208.5 -31.5q179 0 293.5 73t170.5 201.5t59 293.5l10 594q2 112 12 172.5t37 87t79 35.5v1h-298v-1q59 -11 89 -37t41 -86t13 -172l10 -594q3 -165 -52.5 -288t-156 -191.5t-232.5 -68.5q-129 0 -226.5 58.5
t-152.5 186t-55 332.5v731q0 44 9.5 68t34.5 37.5t72 23.5v1h-428v-1q45 -10 69.5 -22.5t33.5 -35t9 -63.5zM982 1803l-257 -168h81l-256 168h-2l189 -257h56l189 257v0v0z" />
    <glyph glyph-name="ucaron" unicode="&#x1d4;" horiz-adv-x="1054" 
d="M304 948l-282 -30v-1l43 -17q39 -16 48 -29t9 -51v-550q0 -152 88 -218t221 -66q104 0 186.5 51.5t122.5 136.5v-180l282 30v1l-43 17q-39 16 -48 29.5t-9 50.5v826l-282 -30v-1l43 -17q39 -16 48 -29t9 -51v-645q-35 -60 -90.5 -92.5t-128.5 -32.5q-106 0 -161.5 62
t-55.5 192v644zM755 1408l-274 -226h82l-272 226h-1l208 -340h50l208 340h-1z" />
    <glyph glyph-name="Udieresismacron" unicode="&#x1d5;" horiz-adv-x="1360" 
d="M136 1322v-720q0 -174 46 -292.5t125 -189.5t179.5 -102.5t208.5 -31.5q179 0 293.5 73t170.5 201.5t59 293.5l10 594q2 112 12 172.5t37 87t79 35.5v1h-298v-1q59 -11 89 -37t41 -86t13 -172l10 -594q3 -165 -52.5 -288t-156 -191.5t-232.5 -68.5q-129 0 -226.5 58.5
t-152.5 186t-55 332.5v731q0 44 9.5 68t34.5 37.5t72 23.5v1h-428v-1q45 -10 69.5 -22.5t33.5 -35t9 -63.5zM631 1581q31 0 51.5 18.5t20.5 46.5t-20.5 46.5t-51.5 18.5h-2q-31 0 -51.5 -18.5t-20.5 -46.5t20.5 -46.5t51.5 -18.5h2zM887 1581q31 0 51.5 18.5t20.5 46.5
t-20.5 46.5t-51.5 18.5h-2q-31 0 -51.5 -18.5t-20.5 -46.5t20.5 -46.5t51.5 -18.5h2zM533 1808h451v73h-451v-73z" />
    <glyph glyph-name="udieresismacron" unicode="&#x1d6;" horiz-adv-x="1054" 
d="M304 948l-282 -30v-1l43 -17q39 -16 48 -29t9 -51v-550q0 -152 88 -218t221 -66q104 0 186.5 51.5t122.5 136.5v-180l282 30v1l-43 17q-39 16 -48 29.5t-9 50.5v826l-282 -30v-1l43 -17q39 -16 48 -29t9 -51v-645q-35 -60 -90.5 -92.5t-128.5 -32.5q-106 0 -161.5 62
t-55.5 192v644zM389 1060q32 0 54 22t22 54t-22 54.5t-54 22.5h-2q-32 0 -54 -22.5t-22 -54.5t22 -54t54 -22h2zM659 1060q32 0 54 22t22 54t-22 54.5t-54 22.5h-2q-32 0 -54 -22.5t-22 -54.5t22 -54t54 -22h2zM303 1315h440v86h-440v-86z" />
    <glyph glyph-name="Udieresisacute" unicode="&#x1d7;" horiz-adv-x="1360" 
d="M136 1322v-720q0 -174 46 -292.5t125 -189.5t179.5 -102.5t208.5 -31.5q179 0 293.5 73t170.5 201.5t59 293.5l10 594q2 112 12 172.5t37 87t79 35.5v1h-298v-1q59 -11 89 -37t41 -86t13 -172l10 -594q3 -165 -52.5 -288t-156 -191.5t-232.5 -68.5q-129 0 -226.5 58.5
t-152.5 186t-55 332.5v731q0 44 9.5 68t34.5 37.5t72 23.5v1h-428v-1q45 -10 69.5 -22.5t33.5 -35t9 -63.5zM631 1581q31 0 51.5 18.5t20.5 46.5t-20.5 46.5t-51.5 18.5h-2q-31 0 -51.5 -18.5t-20.5 -46.5t20.5 -46.5t51.5 -18.5h2zM887 1581q31 0 51.5 18.5t20.5 46.5
t-20.5 46.5t-51.5 18.5h-2q-31 0 -51.5 -18.5t-20.5 -46.5t20.5 -46.5t51.5 -18.5h2zM983 1829v104l-451 -175v-1z" />
    <glyph glyph-name="udieresisacute" unicode="&#x1d8;" horiz-adv-x="1054" 
d="M304 948l-282 -30v-1l43 -17q39 -16 48 -29t9 -51v-550q0 -152 88 -218t221 -66q104 0 186.5 51.5t122.5 136.5v-180l282 30v1l-43 17q-39 16 -48 29.5t-9 50.5v826l-282 -30v-1l43 -17q39 -16 48 -29t9 -51v-645q-35 -60 -90.5 -92.5t-128.5 -32.5q-106 0 -161.5 62
t-55.5 192v644zM389 1060q32 0 54 22t22 54t-22 54.5t-54 22.5h-2q-32 0 -54 -22.5t-22 -54.5t22 -54t54 -22h2zM659 1060q32 0 54 22t22 54t-22 54.5t-54 22.5h-2q-32 0 -54 -22.5t-22 -54.5t22 -54t54 -22h2zM743 1354v122l-440 -206v-1z" />
    <glyph glyph-name="Udieresiscaron" unicode="&#x1d9;" horiz-adv-x="1360" 
d="M136 1322v-720q0 -174 46 -292.5t125 -189.5t179.5 -102.5t208.5 -31.5q179 0 293.5 73t170.5 201.5t59 293.5l10 594q2 112 12 172.5t37 87t79 35.5v1h-298v-1q59 -11 89 -37t41 -86t13 -172l10 -594q3 -165 -52.5 -288t-156 -191.5t-232.5 -68.5q-129 0 -226.5 58.5
t-152.5 186t-55 332.5v731q0 44 9.5 68t34.5 37.5t72 23.5v1h-428v-1q45 -10 69.5 -22.5t33.5 -35t9 -63.5zM631 1581q31 0 51.5 18.5t20.5 46.5t-20.5 46.5t-51.5 18.5h-2q-31 0 -51.5 -18.5t-20.5 -46.5t20.5 -46.5t51.5 -18.5h2zM887 1581q31 0 51.5 18.5t20.5 46.5
t-20.5 46.5t-51.5 18.5h-2q-31 0 -51.5 -18.5t-20.5 -46.5t20.5 -46.5t51.5 -18.5h2zM983 1935l-237 -88h23l-237 88v-1l218 -180h16l216 180z" />
    <glyph glyph-name="udieresiscaron" unicode="&#x1da;" horiz-adv-x="1054" 
d="M304 948l-282 -30v-1l43 -17q39 -16 48 -29t9 -51v-550q0 -152 88 -218t221 -66q104 0 186.5 51.5t122.5 136.5v-180l282 30v1l-43 17q-39 16 -48 29.5t-9 50.5v826l-282 -30v-1l43 -17q39 -16 48 -29t9 -51v-645q-35 -60 -90.5 -92.5t-128.5 -32.5q-106 0 -161.5 62
t-55.5 192v644zM389 1060q32 0 54 22t22 54t-22 54.5t-54 22.5h-2q-32 0 -54 -22.5t-22 -54.5t22 -54t54 -22h2zM659 1060q32 0 54 22t22 54t-22 54.5t-54 22.5h-2q-32 0 -54 -22.5t-22 -54.5t22 -54t54 -22h2zM743 1453l-231 -107h22l-231 107v-1l213 -219h16l211 219v1z
" />
    <glyph glyph-name="Udieresisgrave" unicode="&#x1db;" horiz-adv-x="1360" 
d="M136 1322v-720q0 -174 46 -292.5t125 -189.5t179.5 -102.5t208.5 -31.5q179 0 293.5 73t170.5 201.5t59 293.5l10 594q2 112 12 172.5t37 87t79 35.5v1h-298v-1q59 -11 89 -37t41 -86t13 -172l10 -594q3 -165 -52.5 -288t-156 -191.5t-232.5 -68.5q-129 0 -226.5 58.5
t-152.5 186t-55 332.5v731q0 44 9.5 68t34.5 37.5t72 23.5v1h-428v-1q45 -10 69.5 -22.5t33.5 -35t9 -63.5zM631 1581q31 0 51.5 18.5t20.5 46.5t-20.5 46.5t-51.5 18.5h-2q-31 0 -51.5 -18.5t-20.5 -46.5t20.5 -46.5t51.5 -18.5h2zM887 1581q31 0 51.5 18.5t20.5 46.5
t-20.5 46.5t-51.5 18.5h-2q-31 0 -51.5 -18.5t-20.5 -46.5t20.5 -46.5t51.5 -18.5h2zM533 1829l451 -72v1l-451 175v-104z" />
    <glyph glyph-name="udieresisgrave" unicode="&#x1dc;" horiz-adv-x="1054" 
d="M304 948l-282 -30v-1l43 -17q39 -16 48 -29t9 -51v-550q0 -152 88 -218t221 -66q104 0 186.5 51.5t122.5 136.5v-180l282 30v1l-43 17q-39 16 -48 29.5t-9 50.5v826l-282 -30v-1l43 -17q39 -16 48 -29t9 -51v-645q-35 -60 -90.5 -92.5t-128.5 -32.5q-106 0 -161.5 62
t-55.5 192v644zM389 1060q32 0 54 22t22 54t-22 54.5t-54 22.5h-2q-32 0 -54 -22.5t-22 -54.5t22 -54t54 -22h2zM659 1060q32 0 54 22t22 54t-22 54.5t-54 22.5h-2q-32 0 -54 -22.5t-22 -54.5t22 -54t54 -22h2zM303 1354l440 -85v1l-440 206v-122z" />
    <glyph glyph-name="Adieresismacron" unicode="&#x1de;" horiz-adv-x="1244" 
d="M1086 213l-438 1231h-34l-421 -1147q-42 -116 -73 -177t-62 -86t-74 -33v-1h306v1q-66 10 -93 37.5t-20 87.5t43 166l308 908v0l346 -987q25 -70 24 -114.5t-27 -68t-78 -29.5v-1h467v1q-41 8 -70 28.5t-53 64t-51 119.5zM290 532h570l-1 12h-565zM503 1581
q31 0 51.5 18.5t20.5 46.5t-20.5 46.5t-51.5 18.5h-2q-31 0 -51.5 -18.5t-20.5 -46.5t20.5 -46.5t51.5 -18.5h2zM759 1581q31 0 51.5 18.5t20.5 46.5t-20.5 46.5t-51.5 18.5h-2q-31 0 -51.5 -18.5t-20.5 -46.5t20.5 -46.5t51.5 -18.5h2zM405 1808h451v73h-451v-73z" />
    <glyph glyph-name="adieresismacron" unicode="&#x1df;" horiz-adv-x="930" 
d="M339 -14q70 0 128 18.5t99.5 51.5t59.5 77q8 -46 31.5 -78t60.5 -48.5t84 -16.5q44 0 80.5 9.5t57.5 24.5v1q-17 -5 -34 -5q-47 0 -75.5 31.5t-28.5 97.5v519q0 150 -101 217t-256 67q-101 0 -177.5 -27.5t-119 -73t-42.5 -100.5q0 -39 27 -65.5t63 -26.5q39 0 65.5 27
t26.5 65q0 43 -27.5 68.5t-65.5 25.5q-31 0 -58.5 -26t-29.5 -68v0q0 52 37 93.5t98 65.5t132 24q116 0 184 -65t68 -213v-523q-30 -49 -73 -70t-104 -21q-76 0 -132 52.5t-56 149.5q0 66 24.5 116.5t88 88t179.5 62.5l111 25v2l-214 -46q-135 -29 -217.5 -68.5
t-119.5 -91.5t-37 -119q0 -106 75.5 -166.5t187.5 -60.5zM302 1060q32 0 54 22t22 54t-22 54.5t-54 22.5h-2q-32 0 -54 -22.5t-22 -54.5t22 -54t54 -22h2zM572 1060q32 0 54 22t22 54t-22 54.5t-54 22.5h-2q-32 0 -54 -22.5t-22 -54.5t22 -54t54 -22h2zM216 1315h440v86
h-440v-86z" />
    <glyph glyph-name="Adotmacron" unicode="&#x1e0;" horiz-adv-x="1244" 
d="M1086 213l-438 1231h-34l-421 -1147q-42 -116 -73 -177t-62 -86t-74 -33v-1h306v1q-66 10 -93 37.5t-20 87.5t43 166l308 908v0l346 -987q25 -70 24 -114.5t-27 -68t-78 -29.5v-1h467v1q-41 8 -70 28.5t-53 64t-51 119.5zM290 532h570l-1 12h-565zM630 1580q32 0 54 19
t22 47t-22 47t-54 19t-54 -19t-22 -47t22 -47t54 -19zM405 1789h451v73h-451v-73z" />
    <glyph glyph-name="adotmacron" unicode="&#x1e1;" horiz-adv-x="930" 
d="M339 -14q70 0 128 18.5t99.5 51.5t59.5 77q8 -46 31.5 -78t60.5 -48.5t84 -16.5q44 0 80.5 9.5t57.5 24.5v1q-17 -5 -34 -5q-47 0 -75.5 31.5t-28.5 97.5v519q0 150 -101 217t-256 67q-101 0 -177.5 -27.5t-119 -73t-42.5 -100.5q0 -39 27 -65.5t63 -26.5q39 0 65.5 27
t26.5 65q0 43 -27.5 68.5t-65.5 25.5q-31 0 -58.5 -26t-29.5 -68v0q0 52 37 93.5t98 65.5t132 24q116 0 184 -65t68 -213v-523q-30 -49 -73 -70t-104 -21q-76 0 -132 52.5t-56 149.5q0 66 24.5 116.5t88 88t179.5 62.5l111 25v2l-214 -46q-135 -29 -217.5 -68.5
t-119.5 -91.5t-37 -119q0 -106 75.5 -166.5t187.5 -60.5zM436 1060q34 0 57 22.5t23 55.5q0 32 -23 55t-57 23t-57 -23t-23 -55q0 -33 23 -55.5t57 -22.5zM216 1306h440v86h-440v-86z" />
    <glyph glyph-name="AEmacron" unicode="&#x1e2;" horiz-adv-x="1839" 
d="M1713 1444h-837l-626 -1147q-64 -118 -107.5 -178t-78.5 -84t-76 -34v-1h318v1q-62 9 -89 34t-13.5 85t72.5 172l601 1149h36v-1319q0 -41 -9 -63.5t-33.5 -35t-69.5 -22.5v-1h962l22 354h-1q-21 -96 -51 -159.5t-78.5 -101.5t-124 -56t-187.5 -24l-240 -12v738l256 -11
q82 -4 123.5 -24.5t59.5 -62t30 -105.5h1v408h-1q-12 -64 -30 -105.5t-59.5 -62t-123.5 -24.5l-256 -11v702l164 -8q156 -8 247 -36t139 -93t77 -181h1zM486 707h520v12h-514zM1004 1582h413v85h-413v-85z" />
    <glyph glyph-name="aemacron" unicode="&#x1e3;" horiz-adv-x="1495" 
d="M339 -14q91 0 160.5 33t109 103t39.5 180v123h-3v-123q0 -95 -30.5 -152t-78 -82.5t-99.5 -25.5q-78 0 -128.5 52.5t-50.5 144.5q0 101 61 172t196 104l159 39v2l-215 -46q-139 -30 -224.5 -75.5t-124 -103.5t-38.5 -128q0 -101 75 -159t192 -58zM1088 -14q118 0 206 50
t129 114v1q-40 -43 -95.5 -72t-149.5 -29q-107 0 -187.5 66.5t-125 179.5t-44.5 254q0 181 65 290t182 109q67 0 107.5 -47t59.5 -121t19 -155q0 -21 -1.5 -41t-3.5 -37l10 5l-494 -9v-1h662q4 18 4 40q0 103 -44 186.5t-125.5 133t-193.5 49.5q-106 0 -186.5 -39.5
t-134.5 -107.5q-26 53 -77.5 85.5t-113 47t-116.5 14.5q-97 0 -172.5 -27.5t-119 -73t-43.5 -100.5q0 -39 27 -65.5t63 -26.5q39 0 65.5 27t26.5 65q0 43 -27.5 68.5t-65.5 25.5q-21 0 -41 -11.5t-33 -32t-14 -48.5v0q0 47 36.5 88t98 67t136.5 26q67 0 128.5 -30t100.5 -99
t39 -185v-195q0 -108 35 -190t96 -137.5t141.5 -83.5t170.5 -28zM524 1142h458v106h-458v-106z" />
    <glyph glyph-name="Gcaron" unicode="&#x1e6;" horiz-adv-x="1455" 
d="M88 742q0 -170 52 -309t149.5 -239t233 -154t302.5 -54q141 0 278 44.5t222 118.5v367q0 50 9 77t33 39t68 17v1h-404v-1q45 -5 68.5 -17t32.5 -39t9 -77v-429q-44 -42 -128 -70t-188 -28q-136 0 -233 66t-159 176.5t-91.5 248t-29.5 279.5q0 215 60.5 371t171 240.5
t261.5 84.5q98 0 176.5 -30.5t137.5 -87t98.5 -134t58.5 -171.5h1l-16 332q-47 35 -153 64.5t-303 29.5q-145 0 -275 -45.5t-229 -136t-156 -224t-57 -310.5zM1044 1803l-257 -168h81l-256 168h-2l189 -257h56l189 257v0v0z" />
    <glyph glyph-name="gcaron" unicode="&#x1e7;" horiz-adv-x="940" 
d="M83 641q0 -80 35.5 -139t97 -97t139.5 -55q-115 -8 -190 -59.5t-75 -136.5q0 -89 83 -139t211 -44q-111 -5 -186 -35.5t-112.5 -79t-37.5 -109.5q0 -75 57.5 -128t152.5 -81t208 -28q71 0 145 23t137 67t101.5 108.5t38.5 147.5q0 136 -93 203t-275 67h-110
q-96 0 -145 26.5t-49 79.5q0 50 40 80t102 38q25 -5 51.5 -8.5t54.5 -3.5q99 0 185.5 37.5t140.5 106.5t54 164q0 104 -55.5 174t-151.5 102l291 -16v34l-297 -16q-38 12 -79.5 20t-88.5 8q-98 0 -185 -37t-141 -106.5t-54 -167.5zM261 646q0 142 51 222.5t151 80.5
q101 0 152 -89t51 -219q0 -141 -51 -220.5t-151 -79.5t-151.5 87.5t-51.5 217.5zM195 -244q0 85 45.5 144t150.5 70h118q131 0 192 -51.5t61 -149.5q0 -126 -86.5 -191t-209.5 -65q-128 0 -199.5 70t-71.5 173zM715 1408l-274 -226h82l-272 226h-1l208 -340h50l208 340h-1z
" />
    <glyph glyph-name="Kcaron" unicode="&#x1e8;" horiz-adv-x="1252" 
d="M362 122v1200q0 41 9.5 63.5t33.5 35t69 22.5v1h-428v-1q47 -10 72 -23.5t34.5 -37.5t9.5 -68v-1184q0 -43 -9.5 -67.5t-34.5 -37.5t-72 -24v-1h428v1q-45 10 -69 22.5t-33.5 35t-9.5 63.5zM950 0h302v1q-34 12 -67 39t-75 83t-104 153l-399 629v0q56 58 126 133t135 141
q81 82 142 135.5t111.5 84.5t99.5 44v1h-319v-1q60 -7 74 -33.5t-17.5 -79.5t-108.5 -142l-373 -431zM480 752v8l-121 -4v-1zM842 1802l-257 -168h81l-256 168h-2l189 -257h56l189 257v0v0z" />
    <glyph glyph-name="kcaron" unicode="&#x1e9;" horiz-adv-x="970" 
d="M318 1474l-282 -30v-1l43 -17q39 -16 48 -29t9 -51v-1232q0 -57 -19 -78.5t-81 -34.5v-1h378v1q-65 11 -80.5 31.5t-15.5 73.5v1368zM315 514l113 -6v18l-113 -11v-1zM726 0h264v1q-28 6 -53 22t-52 50.5t-63 93.5l-290 485v0l143 135q51 48 86.5 75.5t72 44t86.5 30.5v1
h-298v-1q72 -16 77.5 -46.5t-46.5 -91.5l-239 -282zM451 1803l-257 -168h81l-256 168h-2l189 -257h56l189 257v0v0z" />
    <glyph glyph-name="Oogonek" unicode="&#x1ea;" horiz-adv-x="1584" 
d="M88 723q0 -171 59.5 -307.5t161 -232t228 -146.5t261.5 -51q158 0 286 57.5t220.5 159.5t142 235.5t49.5 284.5q0 171 -59.5 307t-161 231.5t-228.5 146t-261 50.5q-158 0 -286.5 -57.5t-220.5 -158.5t-141.5 -234t-49.5 -285zM312 733q0 211 48 374t152.5 255.5
t273.5 92.5q111 0 201 -54t153.5 -152.5t97.5 -234.5t34 -301q0 -211 -48 -374.5t-152.5 -256.5t-273.5 -93q-112 0 -201.5 54t-153 153.5t-97.5 235.5t-34 301zM811 -468q56 0 100 31.5t60 83.5l-1 1q-11 -18 -30 -30.5t-44 -12.5q-49 0 -85 58t-36 137q0 122 43 188h-1
q-80 -66 -124 -139t-44 -155q0 -70 45.5 -116t116.5 -46z" />
    <glyph glyph-name="oogonek" unicode="&#x1eb;" horiz-adv-x="1106" 
d="M553 -14q130 0 238.5 61.5t173.5 170.5t65 251q0 150 -65 258.5t-173.5 166.5t-238.5 58t-238.5 -61.5t-173.5 -170t-65 -251.5q0 -150 65 -258.5t173.5 -166.5t238.5 -58zM553 -11q-84 0 -145 62.5t-94.5 172t-33.5 249.5q0 141 33.5 248t94.5 167.5t145 60.5
t145.5 -62.5t94.5 -172t33 -249.5t-33 -247.5t-94.5 -168t-145.5 -60.5zM601 -468q62 0 106.5 30t62.5 70l-1 1q-10 -15 -28.5 -23t-39.5 -8q-40 0 -73.5 34t-53.5 92t-20 128q0 38 5 72t13 60v0q-76 -75 -107 -144.5t-31 -140.5q0 -82 50.5 -126.5t116.5 -44.5z" />
    <glyph glyph-name="Oogonekmacron" unicode="&#x1ec;" horiz-adv-x="1584" 
d="M88 723q0 -171 59.5 -307.5t161 -232t228 -146.5t261.5 -51q158 0 286 57.5t220.5 159.5t142 235.5t49.5 284.5q0 171 -59.5 307t-161 231.5t-228.5 146t-261 50.5q-158 0 -286.5 -57.5t-220.5 -158.5t-141.5 -234t-49.5 -285zM312 733q0 211 48 374t152.5 255.5
t273.5 92.5q111 0 201 -54t153.5 -152.5t97.5 -234.5t34 -301q0 -211 -48 -374.5t-152.5 -256.5t-273.5 -93q-112 0 -201.5 54t-153 153.5t-97.5 235.5t-34 301zM811 -468q56 0 100 31.5t60 83.5l-1 1q-11 -18 -30 -30.5t-44 -12.5q-49 0 -85 58t-36 137q0 122 43 188h-1
q-80 -66 -124 -139t-44 -155q0 -70 45.5 -116t116.5 -46zM584 1582h413v85h-413v-85z" />
    <glyph glyph-name="oogonekmacron" unicode="&#x1ed;" horiz-adv-x="1106" 
d="M553 -14q130 0 238.5 61.5t173.5 170.5t65 251q0 150 -65 258.5t-173.5 166.5t-238.5 58t-238.5 -61.5t-173.5 -170t-65 -251.5q0 -150 65 -258.5t173.5 -166.5t238.5 -58zM553 -11q-84 0 -145 62.5t-94.5 172t-33.5 249.5q0 141 33.5 248t94.5 167.5t145 60.5
t145.5 -62.5t94.5 -172t33 -249.5t-33 -247.5t-94.5 -168t-145.5 -60.5zM601 -468q62 0 106.5 30t62.5 70l-1 1q-10 -15 -28.5 -23t-39.5 -8q-40 0 -73.5 34t-53.5 92t-20 128q0 38 5 72t13 60v0q-76 -75 -107 -144.5t-31 -140.5q0 -82 50.5 -126.5t116.5 -44.5zM325 1142
h458v106h-458v-106z" />
    <glyph glyph-name="uni01F1" unicode="&#x1f1;" horiz-adv-x="2613" 
d="M1360 749q0 229 -114 383.5t-320 233t-484 78.5h-396v-1q47 -10 72 -23.5t34.5 -37.5t9.5 -68v-1184q0 -43 -9.5 -67.5t-34.5 -37.5t-72 -24v-1h396q187 0 353 45t293 137t199.5 233.5t72.5 333.5zM1136 727q0 -223 -81.5 -382.5t-239.5 -247t-389 -94.5l-64 -2v1442
l64 -2q235 -7 393 -96t237.5 -246.5t79.5 -371.5zM2539 0l22 354h-1q-24 -100 -57.5 -164t-91.5 -101t-154 -54t-245 -23l-294 -11l824 1441v2h-983l-26 -319h1q24 87 58 144.5t96 92t168 51.5t274 23l192 7l-822 -1441v-2h1039z" />
    <glyph glyph-name="uni01F2" unicode="&#x1f2;" horiz-adv-x="2239" 
d="M1360 749q0 229 -114 383.5t-320 233t-484 78.5h-396v-1q47 -10 72 -23.5t34.5 -37.5t9.5 -68v-1184q0 -43 -9.5 -67.5t-34.5 -37.5t-72 -24v-1h396q187 0 353 45t293 137t199.5 233.5t72.5 333.5zM1136 727q0 -223 -81.5 -382.5t-239.5 -247t-389 -94.5l-64 -2v1442
l64 -2q235 -7 393 -96t237.5 -246.5t79.5 -371.5zM1504 938l-11 -255h1q18 88 53.5 139.5t107.5 75.5t196 31l144 8v0l-515 -936v-1h711l8 298h-1q-18 -113 -51.5 -173t-99 -85t-178.5 -30l-192 -9v0l516 936v1h-689z" />
    <glyph glyph-name="uni01F3" unicode="&#x1f3;" horiz-adv-x="1897" 
d="M76 464q0 -154 57 -261t147.5 -162t192.5 -55q101 0 184 51t123 137v-180l282 30v1l-43 17q-39 16 -48 29.5t-9 50.5v1352l-282 -30v-1l43 -17q39 -16 48 -29t9 -51v-533q-26 64 -87.5 101.5t-156.5 37.5q-126 0 -230.5 -60.5t-167 -170t-62.5 -257.5zM266 492
q0 129 38 229t108 157.5t166 57.5q62 0 120 -35t82 -91v-635q-37 -61 -90.5 -93t-133.5 -32q-82 0 -147.5 55.5t-104 155t-38.5 231.5zM1162 938l-11 -255h1q18 88 53.5 139.5t107.5 75.5t196 31l144 8v0l-515 -936v-1h711l8 298h-1q-18 -113 -51.5 -173t-99 -85t-178.5 -30
l-192 -9v0l516 936v1h-689z" />
    <glyph glyph-name="Gacute" unicode="&#x1f4;" horiz-adv-x="1455" 
d="M88 742q0 -170 52 -309t149.5 -239t233 -154t302.5 -54q141 0 278 44.5t222 118.5v367q0 50 9 77t33 39t68 17v1h-404v-1q45 -5 68.5 -17t32.5 -39t9 -77v-429q-44 -42 -128 -70t-188 -28q-136 0 -233 66t-159 176.5t-91.5 248t-29.5 279.5q0 215 60.5 371t171 240.5
t261.5 84.5q98 0 176.5 -30.5t137.5 -87t98.5 -134t58.5 -171.5h1l-16 332q-47 35 -153 64.5t-303 29.5q-145 0 -275 -45.5t-229 -136t-156 -224t-57 -310.5zM790 1512l293 255v2h-186l-109 -257h2z" />
    <glyph glyph-name="gacute" unicode="&#x1f5;" horiz-adv-x="940" 
d="M83 641q0 -80 35.5 -139t97 -97t139.5 -55q-115 -8 -190 -59.5t-75 -136.5q0 -89 83 -139t211 -44q-111 -5 -186 -35.5t-112.5 -79t-37.5 -109.5q0 -75 57.5 -128t152.5 -81t208 -28q71 0 145 23t137 67t101.5 108.5t38.5 147.5q0 136 -93 203t-275 67h-110
q-96 0 -145 26.5t-49 79.5q0 50 40 80t102 38q25 -5 51.5 -8.5t54.5 -3.5q99 0 185.5 37.5t140.5 106.5t54 164q0 104 -55.5 174t-151.5 102l291 -16v34l-297 -16q-38 12 -79.5 20t-88.5 8q-98 0 -185 -37t-141 -106.5t-54 -167.5zM261 646q0 142 51 222.5t151 80.5
q101 0 152 -89t51 -219q0 -141 -51 -220.5t-151 -79.5t-151.5 87.5t-51.5 217.5zM195 -244q0 85 45.5 144t150.5 70h118q131 0 192 -51.5t61 -149.5q0 -126 -86.5 -191t-209.5 -65q-128 0 -199.5 70t-71.5 173zM449 1024l308 338v2h-186l-123 -340h1z" />
    <glyph glyph-name="Ngrave" unicode="&#x1f8;" horiz-adv-x="1338" 
d="M358 1444h-306v-1q36 -14 60.5 -34t37 -53t11.5 -89l-13 -971q-1 -111 -11.5 -172t-39.5 -87.5t-87 -35.5v-1h306v1q-57 9 -86.5 35t-39.5 87t-12 173l-15 1086h-17l991 -1382h47l10 1148q1 112 11.5 172.5t40 87.5t86.5 35v1h-306v-1q58 -8 86.5 -34.5t39 -87.5
t12.5 -173l18 -857v0zM763 1513h2l-105 257h-194v-2z" />
    <glyph glyph-name="ngrave" unicode="&#x1f9;" horiz-adv-x="1068" 
d="M318 948l-282 -30v-1l43 -17q39 -16 48 -29t9 -51v-706q0 -57 -19 -78.5t-81 -34.5v-1h378v1q-65 11 -80.5 31.5t-15.5 73.5v657q35 61 91.5 93t129.5 32q107 0 163 -61.5t56 -192.5v-528q0 -53 -16 -73.5t-80 -31.5v-1h378v1q-66 14 -83 35t-17 78v554q0 152 -88.5 218
t-222.5 66q-105 0 -187.5 -51.5t-123.5 -136.5v184zM572 1024h1l-119 340h-194v-2z" />
    <glyph glyph-name="Aringacute" unicode="&#x1fa;" horiz-adv-x="1244" 
d="M1086 213l-438 1231h-34l-421 -1147q-42 -116 -73 -177t-62 -86t-74 -33v-1h306v1q-66 10 -93 37.5t-20 87.5t43 166l308 908v0l346 -987q25 -70 24 -114.5t-27 -68t-78 -29.5v-1h467v1q-41 8 -70 28.5t-53 64t-51 119.5zM290 532h570l-1 12h-565zM632 1562
q86 0 139 18.5t53 49.5t-53 49.5t-139 18.5h-5q-85 0 -138.5 -18.5t-53.5 -49.5t53.5 -49.5t138.5 -18.5h5zM632 1564h-5q-33 0 -51.5 19t-18.5 47q0 29 18.5 47.5t51.5 18.5h5q35 0 52.5 -18.5t17.5 -47.5q0 -28 -18 -47t-52 -19zM855 1813v104l-451 -175v-1z" />
    <glyph glyph-name="aringacute" unicode="&#x1fb;" horiz-adv-x="930" 
d="M339 -14q70 0 128 18.5t99.5 51.5t59.5 77q8 -46 31.5 -78t60.5 -48.5t84 -16.5q44 0 80.5 9.5t57.5 24.5v1q-17 -5 -34 -5q-47 0 -75.5 31.5t-28.5 97.5v519q0 150 -101 217t-256 67q-101 0 -177.5 -27.5t-119 -73t-42.5 -100.5q0 -39 27 -65.5t63 -26.5q39 0 65.5 27
t26.5 65q0 43 -27.5 68.5t-65.5 25.5q-31 0 -58.5 -26t-29.5 -68v0q0 52 37 93.5t98 65.5t132 24q116 0 184 -65t68 -213v-523q-30 -49 -73 -70t-104 -21q-76 0 -132 52.5t-56 149.5q0 66 24.5 116.5t88 88t179.5 62.5l111 25v2l-214 -46q-135 -29 -217.5 -68.5
t-119.5 -91.5t-37 -119q0 -106 75.5 -166.5t187.5 -60.5zM438 1043q91 0 146.5 25t55.5 66t-55.5 66t-146.5 25h-5q-89 0 -145.5 -25t-56.5 -66t56.5 -66t145.5 -25h5zM438 1046h-5q-34 0 -54 25.5t-20 62.5q0 38 20 63t54 25h5q36 0 55 -25t19 -63q0 -37 -19 -62.5
t-55 -25.5zM656 1356v122l-440 -206v-1z" />
    <glyph glyph-name="AEacute" unicode="&#x1fc;" horiz-adv-x="1839" 
d="M1713 1444h-837l-626 -1147q-64 -118 -107.5 -178t-78.5 -84t-76 -34v-1h318v1q-62 9 -89 34t-13.5 85t72.5 172l601 1149h36v-1319q0 -41 -9 -63.5t-33.5 -35t-69.5 -22.5v-1h962l22 354h-1q-21 -96 -51 -159.5t-78.5 -101.5t-124 -56t-187.5 -24l-240 -12v738l256 -11
q82 -4 123.5 -24.5t59.5 -62t30 -105.5h1v408h-1q-12 -64 -30 -105.5t-59.5 -62t-123.5 -24.5l-256 -11v702l164 -8q156 -8 247 -36t139 -93t77 -181h1zM486 707h520v12h-514zM1180 1512l293 255v2h-186l-109 -257h2z" />
    <glyph glyph-name="aeacute" unicode="&#x1fd;" horiz-adv-x="1495" 
d="M339 -14q91 0 160.5 33t109 103t39.5 180v123h-3v-123q0 -95 -30.5 -152t-78 -82.5t-99.5 -25.5q-78 0 -128.5 52.5t-50.5 144.5q0 101 61 172t196 104l159 39v2l-215 -46q-139 -30 -224.5 -75.5t-124 -103.5t-38.5 -128q0 -101 75 -159t192 -58zM1088 -14q118 0 206 50
t129 114v1q-40 -43 -95.5 -72t-149.5 -29q-107 0 -187.5 66.5t-125 179.5t-44.5 254q0 181 65 290t182 109q67 0 107.5 -47t59.5 -121t19 -155q0 -21 -1.5 -41t-3.5 -37l10 5l-494 -9v-1h662q4 18 4 40q0 103 -44 186.5t-125.5 133t-193.5 49.5q-106 0 -186.5 -39.5
t-134.5 -107.5q-26 53 -77.5 85.5t-113 47t-116.5 14.5q-97 0 -172.5 -27.5t-119 -73t-43.5 -100.5q0 -39 27 -65.5t63 -26.5q39 0 65.5 27t26.5 65q0 43 -27.5 68.5t-65.5 25.5q-21 0 -41 -11.5t-33 -32t-14 -48.5v0q0 47 36.5 88t98 67t136.5 26q67 0 128.5 -30t100.5 -99
t39 -185v-195q0 -108 35 -190t96 -137.5t141.5 -83.5t170.5 -28zM719 1024l308 338v2h-186l-123 -340h1z" />
    <glyph glyph-name="Ostrokeacute" unicode="&#x1fe;" horiz-adv-x="1584" 
d="M88 723q0 -171 59.5 -307.5t161 -232t228 -146.5t261.5 -51q158 0 286 57.5t220.5 159.5t142 235.5t49.5 284.5q0 171 -59.5 307t-161 231.5t-228.5 146t-261 50.5q-158 0 -286.5 -57.5t-220.5 -158.5t-141.5 -234t-49.5 -285zM312 733q0 211 48 374t152.5 255.5
t273.5 92.5q111 0 201 -54t153.5 -152.5t97.5 -234.5t34 -301q0 -211 -48 -374.5t-152.5 -256.5t-273.5 -93q-112 0 -201.5 54t-153 153.5t-97.5 235.5t-34 301zM1387 1428l-1197 -1408l6 -5l1197 1408zM760 1511l293 255v2h-186l-109 -257h2z" />
    <glyph glyph-name="ostrokeacute" unicode="&#x1ff;" horiz-adv-x="1101" 
d="M550 -14q129 0 237 61t172.5 170t64.5 251q0 150 -64.5 258t-172.5 166t-237 58t-237 -61t-172.5 -169.5t-64.5 -251.5q0 -150 64.5 -258t172.5 -166t237 -58zM550 -11q-84 0 -146 63t-95.5 172.5t-33.5 248.5q0 140 34 247.5t96 168t146 60.5q85 0 146.5 -63t95 -172
t33.5 -249t-33.5 -247.5t-95.5 -168t-147 -60.5zM955 929l-811 -915l6 -5l811 915zM517 1023l308 338v2h-186l-123 -340h1z" />
    <glyph glyph-name="Adblgrave" unicode="&#x200;" horiz-adv-x="1244" 
d="M1086 213l-438 1231h-34l-421 -1147q-42 -116 -73 -177t-62 -86t-74 -33v-1h306v1q-66 10 -93 37.5t-20 87.5t43 166l308 908v0l346 -987q25 -70 24 -114.5t-27 -68t-78 -29.5v-1h467v1q-41 8 -70 28.5t-53 64t-51 119.5zM290 532h570l-1 12h-565zM440 1770h-178v-2
l295 -256h2zM720 1770h-169v-2l241 -256h2z" />
    <glyph glyph-name="adblgrave" unicode="&#x201;" horiz-adv-x="930" 
d="M339 -14q70 0 128 18.5t99.5 51.5t59.5 77q8 -46 31.5 -78t60.5 -48.5t84 -16.5q44 0 80.5 9.5t57.5 24.5v1q-17 -5 -34 -5q-47 0 -75.5 31.5t-28.5 97.5v519q0 150 -101 217t-256 67q-101 0 -177.5 -27.5t-119 -73t-42.5 -100.5q0 -39 27 -65.5t63 -26.5q39 0 65.5 27
t26.5 65q0 43 -27.5 68.5t-65.5 25.5q-31 0 -58.5 -26t-29.5 -68v0q0 52 37 93.5t98 65.5t132 24q116 0 184 -65t68 -213v-523q-30 -49 -73 -70t-104 -21q-76 0 -132 52.5t-56 149.5q0 66 24.5 116.5t88 88t179.5 62.5l111 25v2l-214 -46q-135 -29 -217.5 -68.5
t-119.5 -91.5t-37 -119q0 -106 75.5 -166.5t187.5 -60.5zM207 1364h-180v-2l316 -338h1zM509 1364h-172v-2l262 -338h1z" />
    <glyph glyph-name="Ainvertedbreve" unicode="&#x202;" horiz-adv-x="1244" 
d="M1086 213l-438 1231h-34l-421 -1147q-42 -116 -73 -177t-62 -86t-74 -33v-1h306v1q-66 10 -93 37.5t-20 87.5t43 166l308 908v0l346 -987q25 -70 24 -114.5t-27 -68t-78 -29.5v-1h467v1q-41 8 -70 28.5t-53 64t-51 119.5zM290 532h570l-1 12h-565zM628 1843
q-64 0 -109.5 -31t-70 -81t-24.5 -107q0 -23 3 -44h1v0v0q0 51 27.5 87t73 55t100.5 19t100.5 -19t73 -55t27.5 -87v0v0h1q3 21 3 44q0 57 -25 107t-71 81t-110 31z" />
    <glyph glyph-name="ainvertedbreve" unicode="&#x203;" horiz-adv-x="930" 
d="M339 -14q70 0 128 18.5t99.5 51.5t59.5 77q8 -46 31.5 -78t60.5 -48.5t84 -16.5q44 0 80.5 9.5t57.5 24.5v1q-17 -5 -34 -5q-47 0 -75.5 31.5t-28.5 97.5v519q0 150 -101 217t-256 67q-101 0 -177.5 -27.5t-119 -73t-42.5 -100.5q0 -39 27 -65.5t63 -26.5q39 0 65.5 27
t26.5 65q0 43 -27.5 68.5t-65.5 25.5q-31 0 -58.5 -26t-29.5 -68v0q0 52 37 93.5t98 65.5t132 24q116 0 184 -65t68 -213v-523q-30 -49 -73 -70t-104 -21q-76 0 -132 52.5t-56 149.5q0 66 24.5 116.5t88 88t179.5 62.5l111 25v2l-214 -46q-135 -29 -217.5 -68.5
t-119.5 -91.5t-37 -119q0 -106 75.5 -166.5t187.5 -60.5zM436 1342q-73 0 -125 -35.5t-79 -92t-27 -119.5q0 -12 1 -24.5t2 -24.5h1v0v0q0 56 31 96t82.5 61.5t113.5 21.5t113.5 -21.5t82.5 -61.5t31 -96v0v0h1q2 12 2.5 24.5t0.5 24.5q0 63 -27 119.5t-78.5 92t-125.5 35.5
z" />
    <glyph glyph-name="Edblgrave" unicode="&#x204;" horiz-adv-x="1122" 
d="M992 1444h-946v-1q47 -10 72 -23.5t34.5 -37.5t9.5 -68v-1184q0 -43 -9.5 -67.5t-34.5 -37.5t-72 -24v-1h1000l22 354h-1q-21 -96 -52.5 -159.5t-82 -101.5t-130 -56t-196.5 -24l-244 -12v738l276 -11q82 -3 123.5 -24t59.5 -62.5t30 -105.5h1v408h-1q-12 -64 -30 -105.5
t-59.5 -62.5t-123.5 -24l-276 -11v702l164 -8q163 -8 258 -36.5t145.5 -92.5t79.5 -181h1zM389 1770h-178v-2l295 -256h2zM669 1770h-169v-2l241 -256h2z" />
    <glyph glyph-name="edblgrave" unicode="&#x205;" horiz-adv-x="940" 
d="M76 475q0 -140 57.5 -251t159.5 -174.5t236 -63.5q118 0 206 45.5t129 118.5l-1 1q-37 -43 -94 -72t-150 -29q-107 0 -187.5 66.5t-125 179.5t-44.5 254q0 181 61 290t182 109q70 0 112.5 -47t62 -121t19.5 -155q0 -21 -1.5 -41t-3.5 -37l10 5l-498 -9v-1h666q4 18 4 40
q0 103 -45 186.5t-128 133t-198 49.5q-136 0 -232 -63t-146.5 -171t-50.5 -243zM279 1364h-180v-2l316 -338h1zM581 1364h-172v-2l262 -338h1z" />
    <glyph glyph-name="Einvertedbreve" unicode="&#x206;" horiz-adv-x="1122" 
d="M992 1444h-946v-1q47 -10 72 -23.5t34.5 -37.5t9.5 -68v-1184q0 -43 -9.5 -67.5t-34.5 -37.5t-72 -24v-1h1000l22 354h-1q-21 -96 -52.5 -159.5t-82 -101.5t-130 -56t-196.5 -24l-244 -12v738l276 -11q82 -3 123.5 -24t59.5 -62.5t30 -105.5h1v408h-1q-12 -64 -30 -105.5
t-59.5 -62.5t-123.5 -24l-276 -11v702l164 -8q163 -8 258 -36.5t145.5 -92.5t79.5 -181h1zM577 1843q-64 0 -109.5 -31t-70 -81t-24.5 -107q0 -23 3 -44h1v0v0q0 51 27.5 87t73 55t100.5 19t100.5 -19t73 -55t27.5 -87v0v0h1q3 21 3 44q0 57 -25 107t-71 81t-110 31z" />
    <glyph glyph-name="einvertedbreve" unicode="&#x207;" horiz-adv-x="940" 
d="M76 475q0 -140 57.5 -251t159.5 -174.5t236 -63.5q118 0 206 45.5t129 118.5l-1 1q-37 -43 -94 -72t-150 -29q-107 0 -187.5 66.5t-125 179.5t-44.5 254q0 181 61 290t182 109q70 0 112.5 -47t62 -121t19.5 -155q0 -21 -1.5 -41t-3.5 -37l10 5l-498 -9v-1h666q4 18 4 40
q0 103 -45 186.5t-128 133t-198 49.5q-136 0 -232 -63t-146.5 -171t-50.5 -243zM508 1342q-73 0 -125 -35.5t-79 -92t-27 -119.5q0 -12 1 -24.5t2 -24.5h1v0v0q0 56 31 96t82.5 61.5t113.5 21.5t113.5 -21.5t82.5 -61.5t31 -96v0v0h1q2 12 2.5 24.5t0.5 24.5q0 63 -27 119.5
t-78.5 92t-125.5 35.5z" />
    <glyph glyph-name="Idblgrave" unicode="&#x208;" horiz-adv-x="540" 
d="M370 130v1184q0 44 9.5 68t34.5 37.5t72 23.5v1h-432v-1q47 -10 72 -23.5t34.5 -37.5t9.5 -68v-1184q0 -43 -9.5 -67.5t-34.5 -37.5t-72 -24v-1h432v1q-47 11 -72 24t-34.5 37.5t-9.5 67.5zM80 1770h-178v-2l295 -256h2zM360 1770h-169v-2l241 -256h2z" />
    <glyph glyph-name="idblgrave" unicode="&#x209;" horiz-adv-x="450" 
d="M318 948l-282 -30v-1l43 -17q39 -16 48 -29t9 -51v-706q0 -57 -19 -78.5t-81 -34.5v-1h382v1q-61 13 -80.5 34.5t-19.5 78.5v834zM-18 1364h-180v-2l316 -338h1zM284 1364h-172v-2l262 -338h1z" />
    <glyph glyph-name="Iinvertedbreve" unicode="&#x20a;" horiz-adv-x="540" 
d="M370 130v1184q0 44 9.5 68t34.5 37.5t72 23.5v1h-432v-1q47 -10 72 -23.5t34.5 -37.5t9.5 -68v-1184q0 -43 -9.5 -67.5t-34.5 -37.5t-72 -24v-1h432v1q-47 11 -72 24t-34.5 37.5t-9.5 67.5zM268 1843q-64 0 -109.5 -31t-70 -81t-24.5 -107q0 -23 3 -44h1v0v0
q0 51 27.5 87t73 55t100.5 19t100.5 -19t73 -55t27.5 -87v0v0h1q3 21 3 44q0 57 -25 107t-71 81t-110 31z" />
    <glyph glyph-name="iinvertedbreve" unicode="&#x20b;" horiz-adv-x="450" 
d="M318 948l-282 -30v-1l43 -17q39 -16 48 -29t9 -51v-706q0 -57 -19 -78.5t-81 -34.5v-1h382v1q-61 13 -80.5 34.5t-19.5 78.5v834zM211 1342q-65.7021 0 -112.503 -35.5q-46.8018 -35.5 -71.1025 -92q-24.2998 -56.5 -24.2998 -119.5q0 -12 0.899414 -24.5
q0.900391 -12.5 1.80078 -24.5h0.899414v0v0q0 56 27.9014 96q27.9004 40 74.252 61.5q46.3506 21.5 102.152 21.5t102.152 -21.5q46.3516 -21.5 74.252 -61.5q27.9014 -40 27.9014 -96v0v0h0.899414q1.80078 12 2.25098 24.5q0.449219 12.5 0.449219 24.5
q0 63 -24.2998 119.5q-24.3008 56.5 -70.6523 92t-112.953 35.5z" />
    <glyph glyph-name="Odblgrave" unicode="&#x20c;" horiz-adv-x="1584" 
d="M88 723q0 -171 59.5 -307.5t161 -232t228 -146.5t261.5 -51q158 0 286 57.5t220.5 159.5t142 235.5t49.5 284.5q0 171 -59.5 307t-161 231.5t-228.5 146t-261 50.5q-158 0 -286.5 -57.5t-220.5 -158.5t-141.5 -234t-49.5 -285zM312 733q0 211 48 374t152.5 255.5
t273.5 92.5q111 0 201 -54t153.5 -152.5t97.5 -234.5t34 -301q0 -211 -48 -374.5t-152.5 -256.5t-273.5 -93q-112 0 -201.5 54t-153 153.5t-97.5 235.5t-34 301zM600 1770h-178v-2l295 -256h2zM880 1770h-169v-2l241 -256h2z" />
    <glyph glyph-name="odblgrave" unicode="&#x20d;" horiz-adv-x="1106" 
d="M553 -14q130 0 238.5 61.5t173.5 170.5t65 251q0 150 -65 258.5t-173.5 166.5t-238.5 58t-238.5 -61.5t-173.5 -170t-65 -251.5q0 -150 65 -258.5t173.5 -166.5t238.5 -58zM553 -11q-84 0 -145 62.5t-94.5 172t-33.5 249.5q0 141 33.5 248t94.5 167.5t145 60.5
t145.5 -62.5t94.5 -172t33 -249.5t-33 -247.5t-94.5 -168t-145.5 -60.5zM325 1364h-180v-2l316 -338h1zM627 1364h-172v-2l262 -338h1z" />
    <glyph glyph-name="Oinvertedbreve" unicode="&#x20e;" horiz-adv-x="1584" 
d="M88 723q0 -171 59.5 -307.5t161 -232t228 -146.5t261.5 -51q158 0 286 57.5t220.5 159.5t142 235.5t49.5 284.5q0 171 -59.5 307t-161 231.5t-228.5 146t-261 50.5q-158 0 -286.5 -57.5t-220.5 -158.5t-141.5 -234t-49.5 -285zM312 733q0 211 48 374t152.5 255.5
t273.5 92.5q111 0 201 -54t153.5 -152.5t97.5 -234.5t34 -301q0 -211 -48 -374.5t-152.5 -256.5t-273.5 -93q-112 0 -201.5 54t-153 153.5t-97.5 235.5t-34 301zM788 1843q-64 0 -109.5 -31t-70 -81t-24.5 -107q0 -23 3 -44h1v0v0q0 51 27.5 87t73 55t100.5 19t100.5 -19
t73 -55t27.5 -87v0v0h1q3 21 3 44q0 57 -25 107t-71 81t-110 31z" />
    <glyph glyph-name="oinvertedbreve" unicode="&#x20f;" horiz-adv-x="1106" 
d="M553 -14q130 0 238.5 61.5t173.5 170.5t65 251q0 150 -65 258.5t-173.5 166.5t-238.5 58t-238.5 -61.5t-173.5 -170t-65 -251.5q0 -150 65 -258.5t173.5 -166.5t238.5 -58zM553 -11q-84 0 -145 62.5t-94.5 172t-33.5 249.5q0 141 33.5 248t94.5 167.5t145 60.5
t145.5 -62.5t94.5 -172t33 -249.5t-33 -247.5t-94.5 -168t-145.5 -60.5zM554 1342q-73 0 -125 -35.5t-79 -92t-27 -119.5q0 -12 1 -24.5t2 -24.5h1v0v0q0 56 31 96t82.5 61.5t113.5 21.5t113.5 -21.5t82.5 -61.5t31 -96v0v0h1q2 12 2.5 24.5t0.5 24.5q0 63 -27 119.5
t-78.5 92t-125.5 35.5z" />
    <glyph glyph-name="Rdblgrave" unicode="&#x210;" horiz-adv-x="1212" 
d="M1066 1061q0 118 -66.5 204t-197 132.5t-324.5 46.5h-432v-1q47 -8 72 -21t34.5 -37.5t9.5 -70.5v-1184q0 -41 -9.5 -65t-34.5 -37.5t-72 -26.5v-1h428v1q-45 12 -69 25t-33.5 35t-9.5 61v569h217l349 -691h280v1q-28 10 -55.5 32t-64 77.5t-93.5 165.5l-240 469v-23
q91 20 161 67t110 116t40 156zM858 1053q0 -172 -104 -262t-264 -95l-128 -4v751l96 -3q153 -5 240 -60.5t123.5 -142t36.5 -184.5zM373 1770h-178v-2l295 -256h2zM653 1770h-169v-2l241 -256h2z" />
    <glyph glyph-name="rdblgrave" unicode="&#x211;" horiz-adv-x="688" 
d="M318 948l-282 -30v-1l43 -17q39 -16 48 -29t9 -51v-714q0 -53 -17 -73.5t-83 -31.5v-1h390v1q-47 9 -70.5 21t-30.5 34.5t-7 61.5v618q39 36 101 56t128 20q29 0 54.5 -3t37.5 -6q7 8 14 26t7 38q0 34 -22 57.5t-66 23.5q-54 0 -112.5 -53t-141.5 -158v211zM160 1364
h-180v-2l316 -338h1zM462 1364h-172v-2l262 -338h1z" />
    <glyph glyph-name="Rinvertedbreve" unicode="&#x212;" horiz-adv-x="1212" 
d="M1066 1061q0 118 -66.5 204t-197 132.5t-324.5 46.5h-432v-1q47 -8 72 -21t34.5 -37.5t9.5 -70.5v-1184q0 -41 -9.5 -65t-34.5 -37.5t-72 -26.5v-1h428v1q-45 12 -69 25t-33.5 35t-9.5 61v569h217l349 -691h280v1q-28 10 -55.5 32t-64 77.5t-93.5 165.5l-240 469v-23
q91 20 161 67t110 116t40 156zM858 1053q0 -172 -104 -262t-264 -95l-128 -4v751l96 -3q153 -5 240 -60.5t123.5 -142t36.5 -184.5zM561 1843q-64 0 -109.5 -31t-70 -81t-24.5 -107q0 -23 3 -44h1v0v0q0 51 27.5 87t73 55t100.5 19t100.5 -19t73 -55t27.5 -87v0v0h1
q3 21 3 44q0 57 -25 107t-71 81t-110 31z" />
    <glyph glyph-name="rinvertedbreve" unicode="&#x213;" horiz-adv-x="688" 
d="M318 948l-282 -30v-1l43 -17q39 -16 48 -29t9 -51v-714q0 -53 -17 -73.5t-83 -31.5v-1h390v1q-47 9 -70.5 21t-30.5 34.5t-7 61.5v618q39 36 101 56t128 20q29 0 54.5 -3t37.5 -6q7 8 14 26t7 38q0 34 -22 57.5t-66 23.5q-54 0 -112.5 -53t-141.5 -158v211zM389 1342
q-73 0 -125 -35.5t-79 -92t-27 -119.5q0 -12 1 -24.5t2 -24.5h1v0v0q0 56 31 96t82.5 61.5t113.5 21.5t113.5 -21.5t82.5 -61.5t31 -96v0v0h1q2 12 2.5 24.5t0.5 24.5q0 63 -27 119.5t-78.5 92t-125.5 35.5z" />
    <glyph glyph-name="Udblgrave" unicode="&#x214;" horiz-adv-x="1360" 
d="M136 1322v-720q0 -174 46 -292.5t125 -189.5t179.5 -102.5t208.5 -31.5q179 0 293.5 73t170.5 201.5t59 293.5l10 594q2 112 12 172.5t37 87t79 35.5v1h-298v-1q59 -11 89 -37t41 -86t13 -172l10 -594q3 -165 -52.5 -288t-156 -191.5t-232.5 -68.5q-129 0 -226.5 58.5
t-152.5 186t-55 332.5v731q0 44 9.5 68t34.5 37.5t72 23.5v1h-428v-1q45 -10 69.5 -22.5t33.5 -35t9 -63.5zM568 1770h-178v-2l295 -256h2zM848 1770h-169v-2l241 -256h2z" />
    <glyph glyph-name="udblgrave" unicode="&#x215;" horiz-adv-x="1054" 
d="M304 948l-282 -30v-1l43 -17q39 -16 48 -29t9 -51v-550q0 -152 88 -218t221 -66q104 0 186.5 51.5t122.5 136.5v-180l282 30v1l-43 17q-39 16 -48 29.5t-9 50.5v826l-282 -30v-1l43 -17q39 -16 48 -29t9 -51v-645q-35 -60 -90.5 -92.5t-128.5 -32.5q-106 0 -161.5 62
t-55.5 192v644zM294 1364h-180v-2l316 -338h1zM596 1364h-172v-2l262 -338h1z" />
    <glyph glyph-name="Uinvertedbreve" unicode="&#x216;" horiz-adv-x="1360" 
d="M136 1322v-720q0 -174 46 -292.5t125 -189.5t179.5 -102.5t208.5 -31.5q179 0 293.5 73t170.5 201.5t59 293.5l10 594q2 112 12 172.5t37 87t79 35.5v1h-298v-1q59 -11 89 -37t41 -86t13 -172l10 -594q3 -165 -52.5 -288t-156 -191.5t-232.5 -68.5q-129 0 -226.5 58.5
t-152.5 186t-55 332.5v731q0 44 9.5 68t34.5 37.5t72 23.5v1h-428v-1q45 -10 69.5 -22.5t33.5 -35t9 -63.5zM756 1843q-64 0 -109.5 -31t-70 -81t-24.5 -107q0 -23 3 -44h1v0v0q0 51 27.5 87t73 55t100.5 19t100.5 -19t73 -55t27.5 -87v0v0h1q3 21 3 44q0 57 -25 107t-71 81
t-110 31z" />
    <glyph glyph-name="uinvertedbreve" unicode="&#x217;" horiz-adv-x="1054" 
d="M304 948l-282 -30v-1l43 -17q39 -16 48 -29t9 -51v-550q0 -152 88 -218t221 -66q104 0 186.5 51.5t122.5 136.5v-180l282 30v1l-43 17q-39 16 -48 29.5t-9 50.5v826l-282 -30v-1l43 -17q39 -16 48 -29t9 -51v-645q-35 -60 -90.5 -92.5t-128.5 -32.5q-106 0 -161.5 62
t-55.5 192v644zM523 1342q-73 0 -125 -35.5t-79 -92t-27 -119.5q0 -12 1 -24.5t2 -24.5h1v0v0q0 56 31 96t82.5 61.5t113.5 21.5t113.5 -21.5t82.5 -61.5t31 -96v0v0h1q2 12 2.5 24.5t0.5 24.5q0 63 -27 119.5t-78.5 92t-125.5 35.5z" />
    <glyph glyph-name="Scommaaccent" unicode="&#x218;" horiz-adv-x="1084" 
d="M537 -14q121 0 227.5 50.5t173 143t66.5 218.5q0 145 -89 249.5t-251 171.5l-111 46q-136 56 -215.5 131.5t-79.5 195.5q0 116 74.5 189.5t219.5 73.5q94 0 164.5 -44.5t120.5 -127.5t82 -200h1l-14 300q-39 27 -126 51t-228 24q-111 0 -215 -38t-170.5 -119t-66.5 -211
q0 -145 86.5 -248.5t248.5 -168.5l115 -46q151 -61 223.5 -138t72.5 -193q0 -145 -89 -226t-220 -81q-80 0 -151 25.5t-129 77.5t-101 131.5t-67 188.5h-1l16 -332q62 -37 167.5 -65.5t265.5 -28.5zM544 -417q77 0 129 39.5t52 103.5q0 65 -46.5 102.5t-116.5 37.5
q-58 0 -92 -28t-56 -58v-1q11 5 30.5 9.5t39.5 4.5q45 0 74 -20.5t29 -57.5q0 -34 -28 -55t-74 -21q-37 0 -71 16t-55 38l-1 -1q18 -45 70 -77t116 -32z" />
    <glyph glyph-name="scommaaccent" unicode="&#x219;" horiz-adv-x="802" 
d="M84 683q0 -97 63.5 -162t187.5 -111l71 -26q92 -34 137 -83.5t45 -128.5q0 -76 -54.5 -129.5t-145.5 -53.5q-61 0 -125 39t-114.5 113.5t-71.5 180.5h-1l13 -270q28 -20 73.5 -35t103.5 -23t122 -8q76 0 154 30.5t131 91.5t53 150q0 108 -62.5 181.5t-181.5 116.5l-71 26
q-92 34 -140.5 76t-48.5 115q0 75 49.5 125.5t146.5 50.5q93 0 162 -73.5t92 -213.5h1l-2 239q-26 19 -92 35t-161 16q-87 0 -163.5 -29.5t-123.5 -89.5t-47 -150zM392 -417q77 0 129 39.5t52 103.5q0 65 -46.5 102.5t-116.5 37.5q-58 0 -92 -28t-56 -58v-1q11 5 30.5 9.5
t39.5 4.5q45 0 74 -20.5t29 -57.5q0 -34 -28 -55t-74 -21q-37 0 -71 16t-55 38l-1 -1q18 -45 70 -77t116 -32z" />
    <glyph glyph-name="Tcommaaccent" unicode="&#x21a;" horiz-adv-x="1196" 
d="M1146 1444h-1096l-18 -319h1q28 117 73 181.5t125 94t211 38.5l56 4v-1297q0 -48 -8.5 -76.5t-35 -44t-80.5 -24.5v-1h448v1q-53 9 -80 24.5t-35.5 44t-8.5 76.5v1297l56 -4q131 -9 211 -38.5t125.5 -94t72.5 -181.5h1zM598 -417q77 0 129 39.5t52 103.5
q0 65 -46.5 102.5t-116.5 37.5q-58 0 -92 -28t-56 -58v-1q11 5 30.5 9.5t39.5 4.5q45 0 74 -20.5t29 -57.5q0 -34 -28 -55t-74 -21q-37 0 -71 16t-55 38l-1 -1q18 -45 70 -77t116 -32z" />
    <glyph glyph-name="tcommaaccent" unicode="&#x21b;" horiz-adv-x="546" 
d="M136 237q0 -87 28 -142.5t77.5 -82t115.5 -26.5q76 0 128.5 34t68.5 72v1q-17 -25 -45 -38.5t-61 -12.5q-55 0 -92.5 38t-37.5 123v716l223 -15v34l-223 -15v210h-1l-295 -228v-1h114v-667zM360 -417q77 0 129 39.5t52 103.5q0 65 -46.5 102.5t-116.5 37.5q-58 0 -92 -28
t-56 -58v-1q11 5 30.5 9.5t39.5 4.5q45 0 74 -20.5t29 -57.5q0 -34 -28 -55t-74 -21q-37 0 -71 16t-55 38l-1 -1q18 -45 70 -77t116 -32z" />
    <glyph glyph-name="Hcaron" unicode="&#x21e;" horiz-adv-x="1446" 
d="M362 122v1200q0 41 9.5 63.5t33.5 35t69 22.5v1h-428v-1q47 -10 72 -23.5t34.5 -37.5t9.5 -68v-1184q0 -43 -9.5 -67.5t-34.5 -37.5t-72 -24v-1h428v1q-45 10 -69 22.5t-33.5 35t-9.5 63.5zM1284 130v1184q0 44 9.5 68t34.5 37.5t72 23.5v1h-428v-1q45 -10 69.5 -22.5
t33.5 -35t9 -63.5v-1200q0 -41 -9 -63.5t-33.5 -35t-69.5 -22.5v-1h428v1q-47 11 -72 24t-34.5 37.5t-9.5 67.5zM262 737h922v6h-922v-6zM947 1803l-257 -168h81l-256 168h-2l189 -257h56l189 257v0v0z" />
    <glyph glyph-name="hcaron" unicode="&#x21f;" horiz-adv-x="1068" 
d="M318 1474l-282 -30v-1l43 -17q39 -16 48 -29t9 -51v-1232q0 -57 -19 -78.5t-81 -34.5v-1h378v1q-65 11 -80.5 31.5t-15.5 73.5v657q35 61 91.5 93t129.5 32q107 0 163 -61.5t56 -192.5v-528q0 -53 -16 -73.5t-80 -31.5v-1h378v1q-66 14 -83 35t-17 78v554
q0 152 -88.5 218t-222.5 66q-105 0 -187.5 -51.5t-123.5 -136.5v710zM444 1868l-257 -168h81l-256 168h-2l189 -257h56l189 257v0v0z" />
    <glyph glyph-name="Adotaccent" unicode="&#x226;" horiz-adv-x="1244" 
d="M1086 213l-438 1231h-34l-421 -1147q-42 -116 -73 -177t-62 -86t-74 -33v-1h306v1q-66 10 -93 37.5t-20 87.5t43 166l308 908v0l346 -987q25 -70 24 -114.5t-27 -68t-78 -29.5v-1h467v1q-41 8 -70 28.5t-53 64t-51 119.5zM290 532h570l-1 12h-565zM630 1559q35 0 59 24.5
t24 57.5t-24 57.5t-59 24.5q-34 0 -58.5 -24.5t-24.5 -57.5t24.5 -57.5t58.5 -24.5z" />
    <glyph glyph-name="adotaccent" unicode="&#x227;" horiz-adv-x="930" 
d="M339 -14q70 0 128 18.5t99.5 51.5t59.5 77q8 -46 31.5 -78t60.5 -48.5t84 -16.5q44 0 80.5 9.5t57.5 24.5v1q-17 -5 -34 -5q-47 0 -75.5 31.5t-28.5 97.5v519q0 150 -101 217t-256 67q-101 0 -177.5 -27.5t-119 -73t-42.5 -100.5q0 -39 27 -65.5t63 -26.5q39 0 65.5 27
t26.5 65q0 43 -27.5 68.5t-65.5 25.5q-31 0 -58.5 -26t-29.5 -68v0q0 52 37 93.5t98 65.5t132 24q116 0 184 -65t68 -213v-523q-30 -49 -73 -70t-104 -21q-76 0 -132 52.5t-56 149.5q0 66 24.5 116.5t88 88t179.5 62.5l111 25v2l-214 -46q-135 -29 -217.5 -68.5
t-119.5 -91.5t-37 -119q0 -106 75.5 -166.5t187.5 -60.5zM436 1106q41 0 69.5 28.5t28.5 67.5t-28.5 67.5t-69.5 28.5q-40 0 -69 -28.5t-29 -67.5t29 -67.5t69 -28.5z" />
    <glyph glyph-name="Ecedilla" unicode="&#x228;" horiz-adv-x="1122" 
d="M992 1444h-946v-1q47 -10 72 -23.5t34.5 -37.5t9.5 -68v-1184q0 -43 -9.5 -67.5t-34.5 -37.5t-72 -24v-1h1000l22 354h-1q-21 -96 -52.5 -159.5t-82 -101.5t-130 -56t-196.5 -24l-244 -12v738l276 -11q82 -3 123.5 -24t59.5 -62.5t30 -105.5h1v408h-1q-12 -64 -30 -105.5
t-59.5 -62.5t-123.5 -24l-276 -11v702l164 -8q163 -8 258 -36.5t145.5 -92.5t79.5 -181h1zM548 -413q40 0 76 17t59.5 49t23.5 78q0 62 -43.5 101t-105.5 40q-38 1 -68.5 -11.5t-43.5 -30.5v-3l116 159v2h-3l-140 -191v-1q16 12 56 12q36 0 61 -21.5t25 -57.5q0 -38 -27 -61
t-67 -23q-29 0 -54 11t-40 29l-1 -1q20 -45 70 -71t106 -26z" />
    <glyph glyph-name="ecedilla" unicode="&#x229;" horiz-adv-x="940" 
d="M76 475q0 -140 57.5 -251t159.5 -174.5t236 -63.5q118 0 206 45.5t129 118.5l-1 1q-37 -43 -94 -72t-150 -29q-107 0 -187.5 66.5t-125 179.5t-44.5 254q0 181 61 290t182 109q70 0 112.5 -47t62 -121t19.5 -155q0 -21 -1.5 -41t-3.5 -37l10 5l-498 -9v-1h666q4 18 4 40
q0 103 -45 186.5t-128 133t-198 49.5q-136 0 -232 -63t-146.5 -171t-50.5 -243zM516 -413q40 0 76 17t59.5 49t23.5 78q0 62 -43.5 101t-105.5 40q-38 1 -68.5 -11.5t-43.5 -30.5v-3l116 159v2h-3l-140 -191v-1q16 12 56 12q36 0 61 -21.5t25 -57.5q0 -38 -27 -61t-67 -23
q-29 0 -54 11t-40 29l-1 -1q20 -45 70 -71t106 -26z" />
    <glyph glyph-name="Odieresismacron" unicode="&#x22a;" horiz-adv-x="1584" 
d="M88 723q0 -171 59.5 -307.5t161 -232t228 -146.5t261.5 -51q158 0 286 57.5t220.5 159.5t142 235.5t49.5 284.5q0 171 -59.5 307t-161 231.5t-228.5 146t-261 50.5q-158 0 -286.5 -57.5t-220.5 -158.5t-141.5 -234t-49.5 -285zM312 733q0 211 48 374t152.5 255.5
t273.5 92.5q111 0 201 -54t153.5 -152.5t97.5 -234.5t34 -301q0 -211 -48 -374.5t-152.5 -256.5t-273.5 -93q-112 0 -201.5 54t-153 153.5t-97.5 235.5t-34 301zM663 1581q31 0 51.5 18.5t20.5 46.5t-20.5 46.5t-51.5 18.5h-2q-31 0 -51.5 -18.5t-20.5 -46.5t20.5 -46.5
t51.5 -18.5h2zM919 1581q31 0 51.5 18.5t20.5 46.5t-20.5 46.5t-51.5 18.5h-2q-31 0 -51.5 -18.5t-20.5 -46.5t20.5 -46.5t51.5 -18.5h2zM565 1808h451v73h-451v-73z" />
    <glyph glyph-name="odieresismacron" unicode="&#x22b;" horiz-adv-x="1106" 
d="M553 -14q130 0 238.5 61.5t173.5 170.5t65 251q0 150 -65 258.5t-173.5 166.5t-238.5 58t-238.5 -61.5t-173.5 -170t-65 -251.5q0 -150 65 -258.5t173.5 -166.5t238.5 -58zM553 -11q-84 0 -145 62.5t-94.5 172t-33.5 249.5q0 141 33.5 248t94.5 167.5t145 60.5
t145.5 -62.5t94.5 -172t33 -249.5t-33 -247.5t-94.5 -168t-145.5 -60.5zM420 1060q32 0 54 22t22 54t-22 54.5t-54 22.5h-2q-32 0 -54 -22.5t-22 -54.5t22 -54t54 -22h2zM690 1060q32 0 54 22t22 54t-22 54.5t-54 22.5h-2q-32 0 -54 -22.5t-22 -54.5t22 -54t54 -22h2z
M334 1315h440v86h-440v-86z" />
    <glyph glyph-name="Otildemacron" unicode="&#x22c;" horiz-adv-x="1584" 
d="M88 723q0 -171 59.5 -307.5t161 -232t228 -146.5t261.5 -51q158 0 286 57.5t220.5 159.5t142 235.5t49.5 284.5q0 171 -59.5 307t-161 231.5t-228.5 146t-261 50.5q-158 0 -286.5 -57.5t-220.5 -158.5t-141.5 -234t-49.5 -285zM312 733q0 211 48 374t152.5 255.5
t273.5 92.5q111 0 201 -54t153.5 -152.5t97.5 -234.5t34 -301q0 -211 -48 -374.5t-152.5 -256.5t-273.5 -93q-112 0 -201.5 54t-153 153.5t-97.5 235.5t-34 301zM894 1589q59 0 90.5 35.5t31.5 101.5h-1q-1 -38 -23 -53.5t-58 -15.5q-21 0 -44 5t-53 14l-29 9q-28 8 -58 14
t-63 6q-59 0 -90.5 -35.5t-31.5 -101.5h1q2 38 23.5 53.5t57.5 15.5q21 0 44 -5t53 -14l29 -9q28 -8 57.5 -14t63.5 -6zM565 1808h451v73h-451v-73z" />
    <glyph glyph-name="otildemacron" unicode="&#x22d;" horiz-adv-x="1106" 
d="M553 -14q130 0 238.5 61.5t173.5 170.5t65 251q0 150 -65 258.5t-173.5 166.5t-238.5 58t-238.5 -61.5t-173.5 -170t-65 -251.5q0 -150 65 -258.5t173.5 -166.5t238.5 -58zM553 -11q-84 0 -145 62.5t-94.5 172t-33.5 249.5q0 141 33.5 248t94.5 167.5t145 60.5
t145.5 -62.5t94.5 -172t33 -249.5t-33 -247.5t-94.5 -168t-145.5 -60.5zM655 1070q58 0 88.5 41.5t30.5 119.5h-1q-1 -45 -22.5 -63t-56.5 -18q-20 0 -43 6t-52 16l-28 10q-27 10 -56.5 17t-61.5 7q-58 0 -88.5 -41.5t-30.5 -119.5h1q2 45 23 63t56 18q20 0 43 -5.5
t52 -16.5l28 -10q27 -10 56.5 -17t61.5 -7zM334 1315h440v86h-440v-86z" />
    </font>
</defs>
</svg>
